<mxfile host="app.diagrams.net" agent="Mozilla/5.0 (Macintosh; Intel Mac OS X 10_15_7) AppleWebKit/537.36 (KHTML, like Gecko) Chrome/130.0.0.0 Safari/537.36" version="24.8.4">
  <diagram name="Page-1" id="HuTR2aKc5z_ovFi75lVI">
    <mxGraphModel dx="1399" dy="330" grid="1" gridSize="10" guides="1" tooltips="1" connect="1" arrows="1" fold="1" page="1" pageScale="1" pageWidth="850" pageHeight="1100" math="0" shadow="0">
      <root>
        <mxCell id="0" />
        <mxCell id="1" parent="0" />
        <mxCell id="ZKwMZjw8JraQNioWF39t-1" value="" style="shape=image;verticalLabelPosition=bottom;labelBackgroundColor=default;verticalAlign=top;aspect=fixed;imageAspect=0;image=data:image/png,iVBORw0KGgoAAAANSUhEUgAABn4AAAPQCAYAAAAYaAXIAAABJ2lDQ1BrQ0dDb2xvclNwYWNlQWRvYmVSR0IxOTk4AAAokWNgYFJILCjIYRJgYMjNKykKcndSiIiMUmB/wcDNwMsgyMDJIJKYXFzgGBDgwwAEMBoVfLvGwAiiL+uCzMKUxwu4UlKLk4H0HyDOTi4oKmFgYMwAspXLSwpA7B4gWyQpG8xeAGIXAR0IZG8BsdMh7BNgNRD2HbCakCBnIPsDkM2XBGYzgeziS4ewBUBsqL0gIOiYkp+UqgDyvYahpaWFJol+IAhKUitKQLRzfkFlUWZ6RomCIzCkUhU885L1dBSMDIxMGBhA4Q5R/TkQHJ6MYmcQYgiAEJsjwcDgv5SBgeUPQsykl4FhgQ4DA/9UhJiaIQODgD4Dw745yaVFZVBjGJmMGRgI8QH6LEpERAb0OQAAAIplWElmTU0AKgAAAAgABAEaAAUAAAABAAAAPgEbAAUAAAABAAAARgEoAAMAAAABAAIAAIdpAAQAAAABAAAATgAAAAAAAACQAAAAAQAAAJAAAAABAAOShgAHAAAAEgAAAHigAgAEAAAAAQAABn6gAwAEAAAAAQAAA9AAAAAAQVNDSUkAAABTY3JlZW5zaG90cZgrvAAAAAlwSFlzAAAWJQAAFiUBSVIk8AAAAddpVFh0WE1MOmNvbS5hZG9iZS54bXAAAAAAADx4OnhtcG1ldGEgeG1sbnM6eD0iYWRvYmU6bnM6bWV0YS8iIHg6eG1wdGs9IlhNUCBDb3JlIDYuMC4wIj4KICAgPHJkZjpSREYgeG1sbnM6cmRmPSJodHRwOi8vd3d3LnczLm9yZy8xOTk5LzAyLzIyLXJkZi1zeW50YXgtbnMjIj4KICAgICAgPHJkZjpEZXNjcmlwdGlvbiByZGY6YWJvdXQ9IiIKICAgICAgICAgICAgeG1sbnM6ZXhpZj0iaHR0cDovL25zLmFkb2JlLmNvbS9leGlmLzEuMC8iPgogICAgICAgICA8ZXhpZjpQaXhlbFlEaW1lbnNpb24+OTc2PC9leGlmOlBpeGVsWURpbWVuc2lvbj4KICAgICAgICAgPGV4aWY6UGl4ZWxYRGltZW5zaW9uPjE2NjI8L2V4aWY6UGl4ZWxYRGltZW5zaW9uPgogICAgICAgICA8ZXhpZjpVc2VyQ29tbWVudD5TY3JlZW5zaG90PC9leGlmOlVzZXJDb21tZW50PgogICAgICA8L3JkZjpEZXNjcmlwdGlvbj4KICAgPC9yZGY6UkRGPgo8L3g6eG1wbWV0YT4Kd9FPmwAAABxpRE9UAAAAAgAAAAAAAAHoAAAAKAAAAegAAAHoAACbjUdOabYAAEAASURBVHgB7N0JmFxVmT/gr/clnR1CWELYVxEERFwQEGWAAWUUFdQZkGXABQX/qKOj4wqKqKOAgLKIbIKIOLLIJiKgCLIjhEBYg4SQfenu9Fr/W1HiTeiQqu7bnb7Vbz1Pnj5Vde6557xf0frUr+89VYXkER4ECBAgQIAAAQIECBAgQIAAAQIECBAgQIAAAQK5F6gS/OS+hhZAgAABAgQIECBAgAABAgQIECBAgAABAgQIEFguIPjxQSBAgAABAgQIECBAgAABAgQIECBAgAABAgQIVIiA4KdCCmkZBAgQIECAAAECBAgQIECAAAECBAgQIECAAAHBj88AAQIECBAgQIAAAQIECBAgQIAAAQIECBAgQKBCBAQ/FVJIyyBAgAABAgQIECBAgAABAgQIECBAgAABAgQICH58BggQIECAAAECBAgQIECAAAECBAgQIECAAAECFSIg+KmQQloGAQIECBAgQIAAAQIECBAgQIAAAQIECBAgQEDw4zNAgAABAgQIECBAgAABAgQIECBAgAABAgQIEKgQAcFPhRTSMggQIECAAAECBAgQIECAAAECBAgQIECAAAECgh+fAQIECBAgQIAAAQIECBAgQIAAAQIECBAgQIBAhQgIfiqkkJZBgAABAgQIECBAgAABAgQIECBAgAABAgQIEBD8+AwQIECAAAECBAgQIECAAAECBAgQIECAAAECBCpEQPBTIYW0DAIECBAgQIAAAQIECBAgQIAAAQIECBAgQICA4MdngAABAgQIECBAgAABAgQIECBAgAABAgQIECBQIQKCnwoppGUQIECAAAECBAgQIECAAAECBAgQIECAAAECBAQ/PgMECBAgQIAAAQIECBAgQIAAAQIECBAgQIAAgQoREPxUSCEtgwABAgQIECBAgAABAgQIECBAgAABAgQIECAg+PEZIECAAAECBAgQIECAAAECBAgQIECAAAECBAhUiIDgp0IKaRkECBAgQIAAAQIECBAgQIAAAQIECBAgQIAAAcGPzwABAgQIECBAgAABAgQIECBAgAABAgQIECBAoEIEBD8VUkjLIECAAAECBAgQIECAAAECBAgQIECAAAECBAgIfnwGCBAgQIAAAQIECBAgQIAAAQIECBAgQIAAAQIVIiD4qZBCWgYBAgQIECBAgAABAgQIECBAgAABAgQIECBAQPDjM0CAAAECBAgQIECAAAECBAgQIECAAAECBAgQqBABwU+FFNIyCBAgQIAAAQIECBAgQIAAAQIECBAgQIAAAQKCH58BAgQIECBAgAABAgQIECBAgAABAgQIECBAgECFCAh+KqSQlkGAAAECBAgQIECAAAECBAgQIECAAAECBAgMX4HW1tZ46aWXoqurKzbddNNoaGgYlMkKfgaF1aAECBAgQIAAAQIECBAgQIAAAQIECBAgQIDASBd45JFH4uqrr46rrroq2traVuLYbLPNYrvttovDDz88dtppp5XeG8gTwc9A9BxLgAABAgQIECBAgAABAgQIECBAgAABAgQIEFhFoHhVzymnnBKXXHLJKu/0/fSEE06IY489Nmpra/vuUMargp8ysHQlQIAAAQIECBAgQIAAAQIECBAgQIAAAQIECLyWQHd3d3z4wx+O+++/f0W3PfbYI3bdddfYaqutoqWlJaZPn778/euvv35Fn4MPPjhOO+20Fc/72xD89FfOcQQIECBAgAABAgQIECBAgAABAgQIECBAgACBVQTOOOOMOP3005e/2tzcvDzM2XfffVfp9fent99+exx//PErbgN3yy23xNSpU/vsW+qLgp9SpfQjQIAAAQIECBAgQIAAAQIECBAgQIAAAQIECLyGwHPPPRfvfOc7V/S47rrrll/ls+KFPho33nhjfPKTn1z+TvFKoa9+9at99Fr5pdbW1hg1atTKL/7jmeCnTxYvEiBAgAABAgQIECBAgAABAgQIECBAgAABAgTKE/jRj34UP/jBD5Yf9IlPfCKKe/es6dHT0xPFK4Kef/752G+//aJ4xdArj+JYd911V+y5557x/ve/P84666z405/+FE8//XSst9568Za3vCWOPvro5eHS/Pnzlx8r+HlFz08CBAgQIECAAAECBAgQIECAAAECBAgQIECAwAAE9tlnn+UBTnGIG264ITbffPOSRnvppZdiwoQJUV9fv1L/4m3giuPstNNOUQx2iuHQqo8NN9wwzjvvvCgGTcVASPCzqpDnBAgQIECAAAECBAgQIECAAAECBAgQIECAAIEyBdra2mLHHXdccdTjjz8eNTU1K573p/FK8PPKsbvvvnu8+93vjo6Ojrj44ouXBz2vvFf8WbzNnOAnLaJNgAABAgQIECBAgAABAgQIECBAgAABAgQIEOiHwDPPPLP8lm3FQ4tX6Fx55ZX9GGXlQ9LBT3HMyy67LOrq6pZ3mjNnzvJbvb1yxMEHHxynnXaa4OcVED8JECBAgAABAgQIECBAgAABAgQIECBAgAABAv0VuPfee+Owww5bfvghhxwS3/rWt/oc6sgjj4wlS5b0+V7xxeJxW2yxxfL308HPb37zm9h2221XOi59a7mbbropNt10U8HPSkKeECBAgAABAgQIECBAgAABAgQIECBAgAABAgT6ITB9+vQ48MADlx95wAEHxA9/+MM+RyneDq54W7jVPa644orYeeedl7+dDn76unVcX++71dvqZL1OgAABAgQIECBAgAABAgQIECBAgAABAgQIEChRYNGiRbHrrrsu7/1at3r73Oc+F62trSuNOmPGjBX79fQV/DQ3N8dDDz200jHFJ5/+9Kfj+uuvj/Hjx8c999yz/H3Bz6uYvECAAAECBAgQIECAAAECBAgQIECAAAECBAgQKF9gt912iwULFiw/8K677op11lmnpEEuvPDCOPnkk5f37Sv4SQc76QEFP2kNbQIECBAgQIAAAQIECBAgQIAAAQIECBAgQIBAhgKnnHJK/PSnP10+YvHKnmOOOaak0QU/JTHpRIAAAQIECBAgQIAAAQIECBAgQIAAAQIECBAYOoFp06bFu9/97hUnvO6662KrrbZa8Xx1jXPPPTe+853vLH/bFT+rU/I6AQIECBAgQIAAAQIECBAgQIAAAQIECBAgQGCIBdJX/RT35vn+978f++yzT5+zKO71c8455yz/90oHwc8rEn4SIECAAAECBAgQIECAAAECBAgQIECAAAECBNayQGdnZ3z4wx+OBx98cMVMtt9++zjooINi8803j5qamnj88cfjr3/9a9x2223R1ta2ot+WW24ZF1xwQUyePHn5a8cff3zccMMNYY+fFUQaBAgQIECAAAECBAgQIECAAAECBAgQIECAAIGhFSiGP6eeempcdNFFJZ24eGXQ5z//+fjABz4QtbW1K44R/Kyg0CBAgAABAgQIECBAgAABAgQIECBAgAABAgQIrF2BRx55JK666qq4+uqrV7qypzirYtiz3XbbxW677RZHHnlkjB079lWTPfHEE+Paa6+N9dZbL+68887Vvp++IqiqkDxe1dMLBAgQIECAAAECBAgQIECAAAECBAgQIECAAAECmQh0d3fHnDlzYvbs2dHR0REbbLBBbLTRRlFVVZXJ+OlBBD9pDW0CBAgQIECAAAECBAgQIECAAAECBAgQIECAQI4FBD85Lp6pEyBAgAABAgQIECBAgAABAgQIECBAgAABAgTSAoKftIY2AQIECBAgQIAAAQIECBAgQIAAAQIECBAgQCDHAoKfHBfP1AkQIECAAAECBAgQIECAAAECBAgQIECAAAECaQHBT1pDmwABAgQIECBAgAABAgQIECBAgAABAgQIECCQYwHBT46LZ+oECBAgQIAAAQIECBAgQIAAAQIECBAgQIAAgbSA4CetoU2AAAECBAgQIECAAAECBAgQIECAAAECBAgQyLGA4CfHxTN1AgQIECBAgAABAgQIECBAgAABAgQIECBAgEBaQPCT1tAmQIAAAQIECBAgQIAAAQIECBAgQIAAAQIECORYQPCT4+KZOgECBAgQIECAAAECBAgQIECAAAECBAgQIEAgLSD4SWtoEyBAgAABAgQIECBAgAABAgQIECBAgAABAgRyLCD4yXHxTJ0AAQIECBAgQIAAAQIECBAgQIAAAQIECBAgkBYQ/KQ1tAkQIECAAAECBAgQIECAAAECBAgQIECAAAECORYQ/OS4eKZOgAABAgQIECBAgAABAgQIECBAgAABAgQIEEgLCH7SGtoECBAgQIAAAQIECBAgQIAAAQIECBAgQIAAgRwLCH5yXDxTJ0CAAAECBAgQIECAAAECBAgQIECAAAECBAikBQQ/aQ1tAgQIECBAgAABAgQIECBAgAABAgQIECBAgECOBQQ/OS6eqRMgQIAAAQIECBAgQIAAAQIECBAgQIAAAQIE0gKCn7SGNgECBAgQIECAAAECBAgQIECAAAECBAgQIEAgxwKCnxwXz9QJECBAgAABAgQIECBAgAABAgQIECBAgAABAmkBwU9aQ5sAAQIECBAgQIAAAQIECBAgQIAAAQIECBAgkGMBwU+Oi2fqBAgQIECAAAECBAgQIECAAAECBAgQIECAAIG0gOAnraFNgAABAgQIECBAgAABAgQIECBAgAABAgQIEMixgOAnx8UzdQIECBAgQIAAAQIECBAgQIAAAQIECBAgQIBAWkDwk9bQJkCAAAECBAgQIECAAAECBAgQIECAAAECBAjkWEDwk+PimToBAgQIECBAgAABAgQIECBAgAABAgQIECBAIC0g+ElraBMgQIAAAQIECBAgQIAAAQIECBAgQIAAAQIEciwg+Mlx8UydAAECBAgQIECAAAECBAgQIECAAAECBAgQIJAWEPykNbQJECBAgAABAgQIECBAgAABAgQIECBAgAABAjkWEPzkuHimToAAAQIECBAgQIAAAQIECBAgQIAAAQIECBBICwh+0hraBAgQIECAAAECBAgQIECAAAECBAgQIECAAIEcCwh+clw8UydAgAABAgQIECBAgAABAgQIECBAgAABAgQIpAUEP2kNbQIECBAgQIAAAQIECBAgQIAAAQIECBAgQIBAjgUEPzkunqkTIECAAAECBAgQIECAAAECBAgQIECAAAECBNICgp+0hjYBAgQIECBAgAABAgQIECBAgAABAgQIECBAIMcCgp8cF8/UCRAgQIAAAQIECBAgQIAAAQIECBAgQIAAAQJpAcFPWkObAAECBAgQIECAAAECBAgQIECAAAECBAgQIJBjAcFPjotn6gQIECBAgAABAgQIECBAgAABAgQIECBAgACBtIDgJ62hTYAAAQIECBAgQIAAAQIECBAgQIAAAQIECBDIsYDgJ8fFM3UCBAgQIECAAAECBAgQIECAAAECBAgQIECAQFpA8JPW0CZAgAABAgQIECBAgAABAgQIECBAgAABAgQI5FhA8JPj4pk6AQIECBAgQIAAAQIECBAgQIAAAQIECBAgQCAtIPhJa2gTIECAAAECBAgQIECAAAECBAgQIECAAAECBHIsIPjJcfFMnQABAgQIECBAgAABAgQIECBAgAABAgQIECCQFhD8pDW0CRAgQIAAAQIECBAgQIAAAQIECBAgQIAAAQI5FhD85Lh4pk6AAAECBAgQIECAAAECBAgQIECAAAECBAgQSAsIftIa2gQIECBAgAABAgQIECBAgAABAgQIECBAgACBHAsIfnJcPFMnQIAAAQIECBAgQIAAAQIECBAgQIAAAQIECKQFBD9pDW0CBAgQIECAAAECBAgQIECAAAECBAgQIECAQI4FBD85Lp6pEyBAgAABAgQIECBAgAABAgQIECBAgAABAgTSAoKftIY2AQIECBAgQIAAAQIECBAgQIAAAQIECBAgQCDHAoKfHBfP1AkQIECAAAECBAgQIECAAAECBAgQIECAAAECaQHBT1pDmwABAgQIECBAgAABAgQIECBAgAABAgQIECCQYwHBT46LZ+oECBAgQIAAAQIECBAgQIAAAQIECBAgQIAAgbSA4CetoU2AAAECBAgQIECAAAECBAgQIECAAAECBAgQyLGA4CfHxTN1AgQIECBAgAABAgQIECBAgAABAgQIECBAgEBaQPCT1tAmQIAAAQIECBAgQIAAAQIECBAgQIAAAQIECORYQPCT4+KZOgECBAgQIECAAAECBAgQIECAAAECBAgQIEAgLSD4SWtoEyBAgAABAgQIECBAgAABAgQIECBAgAABAgRyLCD4yXHxTJ0AAQIECBAgQIAAAQIECBAgQIAAAQIECBAgkBYQ/KQ1tAkQIECAAAECBAgQIECAAAECBAgQIECAAAECORYQ/OS4eKZOgAABAgQIECBAgAABAgQIECBAgAABAgQIEEgLCH7SGtoECBAgQIAAAQIECBAgQIAAAQIECBAgQIAAgRwLCH5yXDxTJ0CAAAECBAgQIECAAAECBAgQIECAAAECBAikBQQ/aQ1tAgQIECBAgAABAgQIECBAgAABAgQIECBAgECOBQQ/OS6eqRMgQIAAAQIECBAgQIAAAQIECBAgQIAAAQIE0gKCn7SGNgECBAgQIECAAAECBAgQIECAAAECBAgQIEAgxwKCnxwXz9QJECBAgAABAgQIECBAgAABAgQIECBAgAABAmkBwU9aQ5sAAQIECBAgQIAAAQIECBAgQIAAAQIECBAgkGMBwU+Oi2fqBAgQIECAAAECBAgQIECAAAECBAgQIECAAIG0gOAnraFNgAABAgQIECBAgAABAgQIECBAgAABAgQIEMixgOAnx8UzdQIECBAgQIAAAQIECBAgQIAAAQIECBAgQIBAWkDwk9bQJkCAAAECBAgQIECAAAECBAgQIECAAAECBAjkWEDwk+PimToBAgQIECBAgAABAgQIECBAgAABAgQIECBAIC0g+ElraBMgQIAAAQIECBAgQIAAAQIECBAgQIAAAQIEciwg+Mlx8UydAAECBAgQIECAAAECBAgQIECAAAECBAgQIJAWEPykNbQJECBAgAABAgQIECBAgAABAgQIECBAgAABAjkWEPzkuHimToAAAQIECBAgQIAAAQIECBAgQIAAAQIECBBICwh+0hraBAgQIECAAAECBAgQIECAAAECBAgQIECAAIEcCwh+clw8UydAgAABAgQIECBAgAABAgQIECBAgAABAgQIpAUEP2kNbQIECBAgQIAAAQIECBAgQIAAAQIECBAgQIBAjgUEPzkunqkTIECAAAECBAgQIECAAAECBAgQIECAAAECBNICgp+0hjYBAgQIECBAgAABAgQIECBAgAABAgQIECBAIMcCgp8cF8/UCRAgQIAAAQIECBAgQIAAAQIECBAgQIAAAQJpAcFPWkObAAECBAgQIECAAAECBAgQIECAAAECBAgQIJBjAcFPjotn6gQIECBAgAABAgQIECBAgAABAgQIECBAgACBtIDgJ62hTYAAAQIECBAgQIAAAQIECBAgQIAAAQIECBDIsYDgJ8fFM3UCBAgQIECAAAECBAgQIECAAAECBAgQIECAQFpA8JPW0CZAgAABAgQIECBAgAABAgQIECBAgAABAgQI5FhA8JPj4pk6AQIECBAgQIAAAQIECBAgQIAAAQIECBAgQCAtIPhJa2gTIECAAAECBAgQIECAAAECBAgQIECAAAECBHIsIPjJcfFMnQABAgQIECBAgAABAgQIECBAgAABAgQIECCQFhD8pDW0CRAgQIAAAQIECBAgQIAAAQIECBAgQIAAAQI5FhD85Lh4pk6AAAECBAgQIECAAAECBAgQIECAAAECBAgQSAsIftIa2gQIECBAgAABAgQIECBAgAABAgQIECBAgACBHAsIfnJcPFMnQIAAAQIECBAgQIAAAQIECBAgQIAAAQIECKQFBD9pDW0CBAgQIECAAAECBAgQIECAAAECBAgQIECAQI4FBD85Lp6pEyBAgAABAgQIECBAgAABAgQIECBAgAABAgTSAoKftIY2AQIECBAgQIAAAQIECBAgQIAAAQIECBAgQCDHAoKfHBfP1AkQIECAAAECBAgQIECAAAECBAgQIECAAAECaQHBT1pDmwABAgQIECBAgAABAgQIECBAgAABAgQIECCQYwHBT46LZ+oECBAgQIAAAQIECBAgQIAAAQIECBAgQIAAgbSA4CetoU2AAAECBAgQIECAAAECBAgQIECAAAECBAgQyLGA4CfHxTN1AgQIECBAgAABAgQIECBAgAABAgQIECBAgEBaQPCT1tAmQIAAAQIECBAgQIAAAQIECBAgQIAAAQIECORYQPCT4+KZOgECBAgQIECAAAECBAgQIECAAAECBAgQIEAgLSD4SWtoEyBAgAABAgQIECBAgAABAgQIECBAgAABAgRyLCD4yXHxTJ0AAQIECBAgQIAAAQIECBAgQIAAAQIECBAgkBYQ/KQ1tAkQIECAAAECBAgQIECAAAECBAgQIECAAAECORYQ/OS4eKZOgAABAgQIECBAgAABAgQIECBAgAABAgQIEEgLCH7SGtoECBAgQIAAAQIECBAgQIAAAQIECBAgQIAAgRwLCH5yXDxTJ0CAAAECBAgQIECAAAECBAgQIECAAAECBAikBQQ/aQ1tAgQIECBAgAABAgQIECBAgAABAgQIECBAgECOBQQ/OS6eqRMgQIAAAQIECBAgQIAAAQIECBAgQIAAAQIE0gKCn7SGNgECBAgQIECAAAECBAgQIECAAAECBAgQIEAgxwKCnxwXz9QJECBAgAABAgQIECBAgAABAgQIECBAgAABAmkBwU9aQ5sAAQIECBAgQIAAAQIECBAgQIAAAQIECBAgkGMBwU+Oi2fqBAgQIECAAAECBAgQIECAAAECBAgQIECAAIG0gOAnraFNgAABAgQIECBAgAABAgQIECBAgAABAgQIEMixgOAnx8UzdQIECBAgQIAAAQIECBAgQIAAAQIECBAgQIBAWkDwk9bQJkCAAAECBAgQIECAAAECBAgQIECAAAECBAjkWEDwk+PimToBAgQIECBAgAABAgQIECBAgAABAgQIECBAIC0g+ElraBMgQIAAAQIECBAgQIAAAQIECBAgQIAAAQIEciwg+Mlx8UydAAECBAgQIECAAAECBAgQIECAAAECBAgQIJAWEPykNbQJECBAgAABAgQIECBAgAABAgQIECBAgAABAjkWEPzkuHimToAAAQIECBAgQIAAAQIECBAgQIAAAQIECBBICwh+0hraBAgQIECAAAECBAgQIECAAAECBAgQIECAAIEcCwh+clw8UydAgAABAgQIECBAgAABAgQIECBAgAABAgQIpAUEP2kNbQIECBAgQIAAAQIECBAgQIAAAQIECBAgQIBAjgUEPzkunqkTIECAAAECBAgQIECAAAECBAgQIECAAAECBNICgp+0hjYBAgQIECBAgAABAgQIECBAgAABAgQIECBAIMcCgp8cF8/UCRAgQIAAAQIECBAgQIAAAQIECBAgQIAAAQJpAcFPWkObAAECBAgQIECAAAECBAgQIECAAAECBAgQIJBjAcFPjotn6gQIECBAgAABAgQIECBAgAABAgQIECBAgACBtIDgJ62hTYAAAQIECBAgQIAAAQIECBAgQIAAAQIECBDIsYDgJ8fFM3UCBAgQIECAAAECBAgQIECAAAECBAgQIECAQFpA8JPW0CZAgAABAgQIECBAgAABAgQIECBAgAABAgQI5FhA8JPj4pk6AQIECBAgQIAAAQIECBAgQIAAAQIECBAgQCAtIPhJa2gTIECAAAECBAgQIECAAAECBAgQIECAAAECBHIsIPjJcfFMnQABAgQIECBAgAABAgQIECBAgAABAgQIECCQFhD8pDW0CRAgQIAAAQIECBAgQIAAAQIECBAgQIAAAQI5FhD85Lh4pk6AAAECBAgQIECAAAECBAgQIECAAAECBAgQSAsIftIa2gQIECBAgAABAgQIECBAgAABAgQIECBAgACBHAsIfnJcPFMnQIAAAQIECBAgQIAAAQIECBAgQIAAAQIECKQFBD9pDW0CBAgQIECAAAECBAgQIECAAAECBAgQIECAQI4FBD85Lp6pEyBAgAABAgQIECBAgAABAgQIECBAgAABAgTSAoKftIY2AQIECBAgQIAAAQIECBAgQIAAAQIECBAgQCDHAoKfHBfP1AkQIECAAAECBAgQIECAAAECBAgQIECAAAECaQHBT1pDmwABAgQIECBAgAABAgQIECBAgAABAgQIECCQYwHBT46LZ+oECBAgQIAAAQIECBAgQIAAAQIECBAgQIAAgbSA4CetoU2AAAECBAgQIECAAAECBAgQIECAAAECBAgQyLGA4CfHxTN1AgQIECBAgAABAgQIECBAgAABAgQIECBAgEBaQPCT1tAmQIAAAQIECBAgQIAAAQIECBAgQIAAAQIECORYQPCT4+KZOgECBAgQIECAAAECBAgQIECAAAECBAgQIEAgLSD4SWtoEyBAgAABAgQIECBAgAABAgQIECBAgAABAgRyLCD4yXHxTJ0AAQIECBAgQIAAAQIECBAgQIAAAQIECBAgkBYQ/KQ1tAkQIECAAAECBAgQIECAAAECBAgQIECAAAECORYQ/OS4eKZOgAABAgQIECBAgAABAgQIECBAgAABAgQIEEgLCH7SGtoECBAgQIAAAQIECBAgQIAAAQIECBAgQIAAgRwLCH5yXDxTJ0CAAAECBAgQIECAAAECBAgQIECAAAECBAikBQQ/aQ1tAgQIECBAgAABAgQIECBAgAABAgQIECBAgECOBQQ/OS6eqRMgQIAAAQIECBAgQIAAAQIECBAgQIAAAQIE0gKCn7SGNgECBAgQIECAAAECBAgQIECAAAECBAgQIEAgxwKCnxwXz9QJECBAgAABAgQIECBAgAABAgQIECBAgAABAmkBwU9aQ5sAAQIECBAgQIAAAQIECBAgQIAAAQIECBAgkGMBwU+Oi2fqBAgQIECAAAECBAgQIECAAAECBAgQIECAAIG0gOAnraFNgAABAgQIECBAgAABAgQIECBAgAABAgQIEMixgOAnx8UzdQIECBAgQIAAAQIECBAgQIAAAQIECBAgQIBAWkDwk9bQJkCAAAECBAgQIECAAAECBAgQIECAAAECBAjkWEDwk+PimToBAgQIECBAgAABAgQIECBAgAABAgQIECBAIC0g+ElraBMgQIAAAQIECBAgQIAAAQIECBAgQIAAAQIEciwg+Mlx8UydAAECBAgQIECAAAECBAgQIECAAAECBAgQIJAWEPykNbQJECBAgAABAgQIECBAgAABAgQIECBAgAABAjkWEPzkuHimToAAAQIECBAgQIAAAQIECBAgQIAAAQIECBBICwh+0hraBAgQIECAAAECBAgQIECAAAECBAgQIECAAIEcCwh+clw8UydAgAABAgQIECBAgAABAgQIECBAgAABAgQIpAUEP2kNbQIECBAgQIAAAQIECBAgQIAAAQIECBAgQIBAjgUEPzkunqkTIECAAAECBAgQIECAAAECBAgQIECAAAECBNICgp+0hjYBAgQIECBAgAABAgQIECBAgAABAgQIECBAIMcCgp8cF8/UCRAgQIAAAQIECBAgQIAAAQIECBAgQIAAAQJpAcFPWkObAAECBAgQIECAAAECBAgQIECAAAECBAgQIJBjAcFPjotn6gQIECBAgAABAgQIECBAgAABAgQIECBAgACBtIDgJ62hTYAAAQIECBAgQIAAAQIECBAgQIAAAQIECBDIsYDgJ8fFM3UCBAgQIECAAAECBAgQIECAAAECBAgQIECAQFpA8JPW0CZAgAABAgQIECBAgAABAgQIECBAgAABAgQI5FhA8JPj4pk6AQIECBAgQIAAAQIECBAgQIAAAQIECBAgQCAtIPhJa2gTIECAAAECBAgQIECAAAECBAgQIECAAAECBHIsIPjJcfFMnQABAgQIECBAgAABAgQIECBAgAABAgQIECCQFhD8pDW0CRAgQIAAAQIECBAgQIAAAQIECBAgQIAAAQI5FhD85Lh4pk6AAAECBAgQIECAAAECBAgQIECAAAECBAgQSAsIftIa2gQIECBAgAABAgQIECBAgAABAgQIECBAgACBHAsIfnJcPFMnQIAAAQIECBAgQIAAAQIECBAgQIAAAQIECKQFBD9pDW0CBAgQIECAAAECBAgQIECAAAECBAgQIECAQI4FBD85Lp6pEyBAgAABAgQIECBAgAABAgQIECBAgAABAgTSAoKftIY2AQIECBAgQIAAAQIECBAgQIAAAQIECBAgQCDHAoKfHBfP1AkQIECAAAECBAgQIECAAAECBAgQIECAAAECaQHBT1pDmwABAgQIECBAgAABAgQIECBAgAABAgQIECCQYwHBT46LZ+oECBAgQIAAAQIECBAgQIAAAQIECBAgQIAAgbSA4CetoU2AAAECBAgQIECAAAECBAgQIECAAAECBAgQyLGA4CfHxTN1AgQIECBAgAABAgQIECBAgAABAgQIECBAgEBaQPCT1tAmQIAAAQIECBAgQIAAAQIECBAgQIAAAQIECORYQPCT4+KZOgECBAgQIECAAAECBAgQIECAAAECBAgQIEAgLSD4SWtoEyBAgAABAgQIECBAgAABAgQIECBAgAABAgRyLCD4yXHxTJ0AAQIECBAgQIAAAQIECBAgQIAAAQIECBAgkBYQ/KQ1tAkQIECAAAECBAgQIECAAAECBAgQIECAAAECORYQ/OS4eKZOgAABAgQIECBAgAABAgQIECBAgAABAgQIEEgLCH7SGtoECBAgQIAAAQIECBAgQIAAAQIECBAgQIAAgRwLCH5yXDxTJ0CAAAECBAgQIECAAAECBAgQIECAAAECBAikBQQ/aQ1tAgQIECBAgAABAgQIECBAgAABAgQIECBAgECOBQQ/OS6eqRMgQIAAAQIECBAgQIAAAQIECBAgQIAAAQIE0gKCn7SGNgECBAgQIECAAAECBAgQIECAAAECBAgQIEAgxwKCnxwXz9QJECBAgAABAgQIECBAgAABAgQIECBAgAABAmkBwU9aQ5sAAQIECBAgQIAAAQIECBAgQIAAAQIECBAgkGMBwU+Oi2fqBAgQIECAAAECBAgQIECAAAECBAgQIECAAIG0gOAnraFNgAABAgQI9CnQ0xvR3RPR01uImuqqqK2JqK6OqOqztxcJECBAgAABAgQIECBAgAABAgTWloDgZ23JOy8BAgQIEBgGAsVA58V5vfHi3N6YszD5t6gQcxf1xOK23ljSWoilbREdXUniU+g74qmrLURzU1W0NNdGS1PEmObqWHdc8m9sdUyaUB0brlMdE0ZXCYiGQa1NgQABAgQIECBAgAABAgQIEBgZAoKfkVFnqyRAgAABAlEoRLyQBDxPzOyJJ//WHc+91BWzkuc9PX2HOlmRNTVUx5T1qmPq+rWxzZSa2Dr5N3bU4J4zq7kbhwABAgQIECBAgAABAgQIECCQNwHBT94qZr4ECBAgQKAMgQVLC/HQU93L/z2a/GzvSC7xGQaPdcfXxE5b1iX/amO7jWuW3zpuGEzLFAgQIECAAAECBAgQIECAAAECuRcQ/OS+hBZAgAABAgRWFpi7uBB3P9oVf368M579W3KbtmH+qK2tip23qYu3bF8fO24mBBrm5TI9AgQIECBAgAABAgQIECBAYJgLCH6GeYFMjwABAgQIlCLQ0RXx52ldcdsDnTFjZncphwzLPsXbwr1tx/p4x851sVGyP5AHAQIECBAgQIAAAQIECBAgQIBAeQKCn/K89CZAgAABAsNK4KUFvXHjPV1xx0Od0dE5PG7jlhXQVhvXxv5vboxdtqiJKlsCZcVqHAIEKlzguMs/lMkKzzn0skzGMQgBAgQIECBAgAABAkMvIPgZenNnJECAAAECAxZ44oXuuPauzrh/WkdUVVf2lTHrTayNg95aH297XV3UVPZSB/y5MAABAgQEPz4DBAgQIECAAAECBAgIfnwGCBAgQIBAjgSeTPbsufK2ZTHtmfzezq2/3JMn1MQhezfGbtvWhguA+qvoOAIEKl1A8FPpFbY+AgQIECBAgAABAmsWEPys2UgPAgQIECCw1gVemNsbP//dsnj4yWQznxH+2HTDmjhiv6bYbP2aES5h+QQIEHi1gODn1SZeIUCAAAECBAgQIDDSBAQ/I63i1kuAAAECuRJY0t4bv/xDV9z6l7ZI7umWq7kP5mQLvb2xx86Ncdg7GmNMs+t/BtPa2AQI5EtA8JOvepktAQIECBAgQIAAgcEQEPwMhqoxCRAgQIDAAAUKyfG3P9wVl920LNqW9Q5wtMo9vKWpOg7fvzF2366uchdpZQQIEChDQPBTBpauBAgQIECAAAECBCpUQPBToYW1LAIECBDIr8DshYU4//q2mPb0yNvHp79V22Xb+jjqgIYYnQRBHgQIEBjJAoKfkVx9aydAgAABAgQIECDwdwHBj08CAQIECBAYJgLFq3xue6ArLr1lWXR0uMqn3LKMHVOIj7+nJbabWlvuofoTIECgYgQEPxVTSgshQIAAAQIECBAg0G8BwU+/6RxIgAABAgSyEyju5XPutcvigeld2Q06Akcq7v3zb3uNivfuUR9Vtv4ZgZ8ASyZAQPDjM0CAAAECBAgQIECAgODHZ4AAAQIECKxlgadn9cTpVy2NeQvX8kQq6PSv37IuufqnKUY1Sn8qqKyWQoBACQKCnxKQdCFAgAABAgQIECBQ4QKCnwovsOURIECAwPAWuPX+rrjoxtbo6RFQZF2p9dapjZM+2BSTx9v3J2tb4xEgMHwFBD/DtzZmRoAAAQIECBAgQGCoBAQ/QyXtPAQIECBAICXQm2zoc8ktHXHz3ctSr2pmLdDcWB2fScKfrafY9ydrW+MRIDA8BQQ/w7MuZkWAAAECBAgQIEBgKAUEP0Op7VwECBAgQCAR6Ei28Tnz6rZ48An7+QzFB6K6qhDHf2B07LplzVCczjkIECCwVgUEP2uV38kJECBAgAABAgQIDAsBwc+wKINJECBAgMBIEVi6rBCnXd4aT7/Qk4sl19ZWRXNjIRobaqKhrjca6muiUChEd08hlnVUR3tHdyxtLURvYZjfqq7QG8cc3BJv36EuF+4mSYAAgf4KCH76K+c4AgQIECBAgAABApUjIPipnFpaCQECBAgMc4FFSUByyiVt8eKc7mE10+IVMVM3qI0N162JDSfWxPrr1MQGE6ti0rjqqClhe5zkrnWxpK0Qcxf1xuwFvfHCy70xc05PPD2rMxYtHh6BUG2S93z20FGx3VS3fBtWHz6TIUAgcwHBT+akBiRAgAABAgQIECCQOwHBT+5KZsIECBAgkEeBhUno882L22L23GEQ+iRBzyZJ0LPd1LrYftPa2Hqj4tU82asWA6G5iwox7fnueHhGdzzyVHe0LevN/kRrGFHoswYgbxMgUFECgp+KKqfFECBAgAABAgQIEOiXgOCnX2wOIkCAAAECpQsUr/T5xkVJ6DNv7YY+UyZXxdte1xhvTW53NnbU0F+J05skQY891x1/erQr7nmsOzo6Bj8EEvqU/jnVkwCByhAQ/FRGHa2CAAECBAgQIECAwEAEBD8D0XMsAQIECBBYg0BxT59v/Gzt3d6tob469nxDfey5Y11sPKmE+7atYT1Zvd3RFXHXY11x01/aY+ZLxWuDsn8IfbI3NSIBAsNfQPAz/GtkhgQIECBAgAABAgQGW0DwM9jCxidAgACBESvQlVzg8+2ft8YTyVUuQ/1obqyO/Xevj33fWB/NDUN/dU+p6y1GPo8+2x2/vqMjpmfoJPQptQL6ESBQaQKCn0qrqPUQIECAAAECBAgQKF9A8FO+mSMIECBAgMAaBQpJonH6r9rj3mmda+ybZYeWpuo48C0N8c5d6wdl354s57rqWH9NAqDLb22P514c2C3ghD6rynpOgMBIEhD8jKRqWysBAgQIECBAgACBvgUEP327eJUAAQIECAxI4Be3dcQ1dy4b0BjlHFzo7Y2939gUH9y7IVoah+8VPmtaUzEw+8PDXXHFLctiaXv5AZDQZ03C3idAoNIFBD+VXmHrI0CAAAECBAgQILBmAcHPmo30IECAAAECZQncPa07zryqtaxjBtJ5yuSqOPKAUbHFBjUDGWZYHbskCX0uvmlZ3PVIshlQiQ+hT4lQuhEgUNECgp+KLq/FESBAgAABAgQIEChJQPBTEpNOBAgQIECgNIGZc3rjf85fGt3dxd1rBvlRVYj37dkUByW3dqupHuRzraXh75neE+df0xZty1776h+hz1oqkNMSIDDsBAQ/w64kJkSAAAECBAgQIEBgyAUEP0NO7oQECBAgUKkCnd0RX76gNV58OWkM8mNMS8Qn3jsqttu4dpDPtPaHX7C0kOyX1BYznu/bVeiz9mtkBgQIDB8Bwc/wqYWZECBAgAABAgQIEFhbAoKftSXvvAQIECBQcQIX/HZZ/P6+jkFf1zab1sYnD26OsaPyu5dPuUg9yQU/l97SETffs/K+SUKfciX1J0Cg0gUEP5VeYesjQIAAAQIECBAgsGYBwc+ajfQgQIAAAQJrFLjvyZ74wRVL19hvoB323qUhjtivMapHTuazEtkt93XFz65PnKuqQ+izEo0nBAgQWC4g+PFBIECAAAECBAgQIEBA8OMzQIAAAQIEBiiwdFkh/uvHi2PRkgEOtIbDD3pbY7x/r4YYoZnPCp0HnuqJn/y6LY4/pCm2m1r5t7pbsXANAgQIlCAg+CkBSRcCBAgQIECAAAECFS4g+KnwAlseAQIECAy+wDnXtMcfH+oc1BMd9s6mOGD3+kE9R54G7+iKaKjL04zNlQABAkMjIPgZGmdnIUCAAAECBAgQIDCcBQQ/w7k65kaAAAECw17g0ee649sXtw7qPI84oDn22VnKMajIBidAgECFCAh+KqSQlkGAAAECBAgQIEBgAAKCnwHgOZQAAQIERrZAT2/EF89rjRdf7h40iH/bqyne+zZX+gwasIEJECBQYQKCnworqOUQIECAAAECBAgQ6IeA4KcfaA4hQIAAAQJFgd/e3RmX3dw+aBh77dIQR+7fOOL39Bk0YAMTIECgAgUEPxVYVEsiQIAAAQIECBAgUKaA4KdMMN0JECBAgEBRoHVZIU48Y2m0dySX/QzC4w1b18UJhzRHddUgDG5IAgQIEKhYAcFPxZbWwggQIECAAAECBAiULCD4KZlKRwIECBAg8E+BK27riGvvXPbPFzJsrTu+Jk45ZlQ01kt9MmQ1FAECBEaEgOBnRJTZIgkQIECAAAECBAi8poDg5zV5vEmAAAECBF4tsKi1ECecsSS6uwuvfnOAr9TUFOKrR46JTdarHuBIDidAgACBkSgg+BmJVbdmAgQIECBAgAABAisLCH5W9vCMAAECBAisUeDS33XEDXcNztU+H3pXU+z/pvo1zkEHAgQIECDQl4Dgpy8VrxEgQIAAAQIECBAYWQKCn5FVb6slQIAAgQEKtHUU4lOnL42OQdjb5/Vb1sVJH2wON3gbYJEcToAAgREsIPgZwcW3dAIECBAgQIAAAQL/EBD8+CgQIECAAIEyBK75U0f84tbsr/aprYv47sfGxMQxYp8yyqErAQIECKwiIPhZBcRTAgQIECBAgAABAiNQQPAzAotuyQQIECDQP4Ge3ogTz1wYCxZnH868b6/GOPhtDf2bmKMIECBAgMA/BAQ/PgoECBAgQIAAAQIECAh+fAYIECBAgECJAvc+2RM/vGJpib1L77bu+Jr4znEtUVtT+jF6EiBAgACBvgQEP32peI0AAQIECBAgQIDAyBIQ/IyselstAQIECAxA4Ns/b41Hn+oewAh9H/qZw1riDZtLffrW8SoBAgQIlCMg+ClHS18CBAgQIECAAAEClSkg+KnMuloVAQIECGQsMG9JIT79vwujqro605G32Kg2vnLEqEzHNBgBAgQIjFwBwc/Irb2VEyBAgAABAgQIEHhFQPDzioSfBAgQIEDgNQSuu6szLv9d+2v06N9bJx7aEjtv4Wqf/uk5igABAgRWFRD8rCriOQECBAgQIECAAIGRJyD4GXk1t2ICBAgQ6IfAF89fEjNn9fbjyNUfssGk2vj2MaOiqmr1fbxDgAABAgTKERD8lKOlLwECBAgQIECAAIHKFBD8VGZdrYoAAQIEMhR4aUFvfPZHSzIc8e9DHfOe5nj7DnWZj2tAAgQIEBi5AoKff9S+UIjo+ce+fDW14a8sRu5/E1ZOgAABAgQIEBiJAoKfkVh1ayZAgACBsgR+e3dnXHZztrd5a2mujjNPGB012W4ZVNa6dK5sgZ62tmh7+slof/7paJ/5fHTOnhWdL8+JnsULonPx0qjq7Iyens7lCDU19VFobIj6ljFRM2ZM1E+aFPXrrR9NU6ZE0yabR/NmW0ZNY1Nlg2W9up7W6FryZHQvfSZ6W5+N7mWzotAxOwqd86O7a1FE77Lo7elYftbqmobkZ2PUNoyPqvpxUd04OfFeP6qbp0Zty2ZRN3rLiJrmrGdYseMVv+9/YW5vPPtSTzz/cm+8nIT3cxd1x+LWQrR3VEVXZ0/0FpJLLasK0VBbEy2jemPMqJpYb0JNbJD823SDmthig6poacrnL+gRE/z09kbbc09H61PJ77lnno6OWS9Ex5yXonvBvOhduDR6O5et9Bmvrm+M6rFjo278hGhYf3I0bLRxNG+6RYzaYutoXH9DwdBKWp4QIECAAAECBAjkXUDwk/cKmj8BAgQIDLrAKZe2xrRn/vFXwxmd7V27NcZ/7Fv8steDQDYCxaBn4f33xOIH/hKtjzwcbc88E9VV2dyesLdQnYQ/m8WoHV4fY3Z+Y4zb6Y1JDiGISFeu0J0EPQvujc75dyc/708Cn8eTt7Pxj6hOAqBtki+sd476CW9Kfu4aVbWj0qcf8e25iwtx3/SuePjp7pjxQk+0tQ/cfsrkqnj95g2x+3Z1MXW96sjLXTkrOfgphtgL7/ljLE5+1y157KGI1pXDnf7+h1A7YXy0JL/Xxr/pLTHuTW/z+62/kI4jQIAAAQIECBAYNgKCn2FTChMhQIAAgeEo0NEVcex3FyZXRmT7ld/XjmqJzdavGY5LNqccCfQsa495t98a8+/4XSy5796o6s42oFwtRU1dtLxx15j49nfGhD32jpqGxtV2reg3etpi2ezfJ/9uia75d0RyOc/QLLeqPuomvj0aJ+0Tjeu9I7kaaGRejdXWUYg/PtIVf3y0M56a2TOo9sU92fbeqS72TP411a/5fw+uuK0jrr0zm1Di4i+NLWttlRb8dM6fG3Nuui4W/P53seyZGWVZ9KdzVW19jHnzW2LdA94d43beLbkSKJ9XfvVn7Y4hQIAAAQIECBCoHAHBT+XU0koIECBAYBAE/vpsd5x6SWumI687via+94mW3Pz1eKaLN1gmAsVbuL30f7+MhbfeEr0d2d6GsNwJVjc1x7i93xmT33PI8tsmlXt8Hvt3L5kRy164ItpnXZdc1LN0LS+hJZo2OjAaN/xg1I7efC3PZWhOX9x37bo/d8adD3VGd3dyX7chfDQnt3975y718a9vro/mhtUHQIKfgRdlybRH4qWrLo8Fd/w+qoe2zCsmXz9lakw+5LCY9K79I2rtybcCRoMAAQIECBAgQGDYCwh+hn2JTJAAAQIE1qbAL//QEf93RzZ/tf3KOg5+e1O87+31rzz1k0DJAosffiBmXXpBLHngvpKPGcqOo3fdLdY/7IgYs8NOQ3naITtX8RZurc+c//ere4bsrKWfqG7822PU5kdH3bjK9J81vzd+eXtH3PNosjdScY+etfhoGVUdh+zZGO94Q11U9TEVwU//i7Pkrw/F3y48N5Y+fH//B8n4yPpkT6ANDz82Ju69r72AMrY1HAECBAgQIECAwOAICH4Gx9WoBAgQIFAhAicn+/s8nvH+Pl8/uiU2new2bxXyERmSZbQ+NT1e+MmZwzbwWRWhGABNOfoTyb5AW676Vi6fdy+eHktnnD5sA59VUYsBUMtWn06uAKoM/6XLCnHlHzrj1nvaht1tt7aaWhvHHtQck8atnP4Iflb9VK75+bJZf4uZ554Ri+68fc2d11KP5m23j01O+PyIubpxLTE7LQECBAgQIECAQAYCgp8MEA1BgAABApUpUEhuLXPMd5ZER9fANwl/RaihoTp+ctLoqF75O8JX3vaTwEoCPUsWx3PnnxVzf/ubtXaro5UmVMaT3uQzvu6BB8fGR3wsakaPLuPI4dO10L04WmecGa3PXxHVa+teU/3k6E0KMGrjw2LUFh+Pqtox/Rxl7R5WvLtXcQ+fS29ZFktbs/s9nPWqir/Xj31Pc7xxq38G+oKfMpR7euLFX14Ws352fhS6h2ifrDKmt2rXQk1VbPAfR8eGHzw8kl8Mq77tOQECBAgQIECAAIFhISD4GRZlMAkCBAgQGI4CsxcW4qQzF2c6tddvWRef/WBzpmMarDIF5t1xazx/xveiZ+GCXC+wdvy4mJL8hfzEN++Zq3V0zrktFj/2zSh0vZyrea862aqaSTHmdV+O+nXz5b+4rRDnXdceD0zvWnVJw/b5B97RGAe9pWH5/AQ/pZVp2YsvxFOnfjXapz1W2gHDqFfzDjvGFl/8etRPXHcYzcpUCBAgQIAAAQIECPxdQPDjk0CAAAECBFYjcM/0njjjymw3bj90n6blm4Kv5pReJhA9y9rjuTNPi/k33VBRGhP2OzCmfuIzUdPQOLzX1dMeSx8/Ldpn/XJ4z7PM2TWt//5o2eakiJqmMo8c+u6PPtcdZ/+6NRYtGfpzD/SMB76tMT6wV0P84raOuPbObPaHu/hLY8ua1nGXf6is/qvrfM6hl63urUxeL4bbz333lOhtT27hl9NHMdje/Kunxuhtd8jpCkybAAECBAgQIECgUgUEP5VaWesiQIAAgQELXHV7Z/z69vYBj5Me4GtHtcRm6//zdkDp97QJtD/3bDz59S9G58xnKxKjcZNNYvMvfzuapmw8LNfXvfTZWPLgZ6N72fRhOb+BTqq2aZsYs9NpUTNq6kCHGpTjC8mov/1zZ/z85tZht5dPOQt+316NsTjJMm6+R/DTp1tyH9WZF/0kZl/6sz7fztuLVbX1sckX/icm7vGOvE3dfAkQIECAAAECBCpYQPBTwcW1NAIECBAYmMDZv2mLPz2c7W2Gzvv82GioG9i8HF2ZAgvv+3PM+Pp/R7RnGzYOO62W0bHFl0+OcW/YdVhNrXP+3bHooc9Gcm+9YTWvzCdTNS7GvuG7UT9ht8yHHsiAPckWPj+9oT3+cP/w3+NlIOvsz7EVdcVPd1c89b+nxIKbb+wPxbA9prin2SYnfiEm7XfQsJ2jiREgQIAAAQIECIwsAcHPyKq31RIgQIBAGQLfuLg1nkhuOZTVY/yYQpz+qXFZDWecChKYc8tv45nTvhHVxUseRsCj+CXp5p//Skx8x78Mi9V2zPptLH40Cd0iu//eh8XCVjuJ2hiz/SnRsP5+q+0xlG9090Sc/qu2XO3nM5Q+lRL89HZ1xoyTvxSL/3TnUPIN6bk2PvHzMWn/9wzpOZ2MAAECBAgQIECAQF8Cgp++VLxGgAABAgQSgU+dsTAWLEq+oc7osc2mtfHfHx6V0WiGqRSBl675ZbxwxvcrZTllrWPKp06K9Q58b1nHZN25/YVfJXv6fDXrYXMxXsvWX0luu/e+tTrXziRr+/6VrfHoUyMldCufuyKCn+7ueOKbX6zo0KdY2eWh9n99NSbuvW/5hXYEAQIECBAgQIAAgQwFBD8ZYhqKAAECBCpHoHjhxREnL4zeQnbBz167NMRR+w/zje0rp4S5WMnsa38VM0//bi7mOliTXJuJtI96AABAAElEQVR/Id/+wtVJ6POVwVpaLsZt2ebr0bTRwWtlrsXbu33/yrZ4+Mlsb6m5VhYziCfNffBT6I2nvvuNiru92+pKXqitja1O+d8Yu9Muq+vidQIECBAgQIAAAQKDLiD4GXRiJyBAgACBPAq0dxTiP09bnOnUD92nKf71zfWZjjnUg/37NxcN9SmH1fnOPHFMjB2VTRg477ab45lTRnboUCzu8r+Q/9I3h3xj9M6XfxcLHvxMVI+U++ut5r+k3qQA43f636ifNLQb0xfD9bP+rz3+/Ig9fVZTmhUv5z34mXnRT2L2JReuWM+IaCR7mW1/xnnRtOGUEbFciyRAgAABAgQIEBh+AoKf4VcTMyJAgACBYSAwe2EhTjoz2+DnqIOaY68d64bB6vo/hZEe/Hzh30fFdlNr+w/4jyMXP/xgPPH5T0f0uNKhSFJVWx9bfff0GL3d6wdsW8oAXQsfjIX3HR1REDos96pqjHG7nBt143YshS+TPlfe1hG/uXNZJmNV+iB5Dn7m3f67eOabX670EvW5vsZNNo9tzzg3ahpc6dsnkBcJECBAgAABAgQGVUDwM6i8BidAgACBvAo881JP/M95SzOd/iffNyretO3AQ4NMJ1XmYCM9+DnigObYZ+eBhXedc16KRz9xZPQsXFimfmV3rx0/Lrb70YVRv86kQV1ob/vsmH/Ph6LQNWdQz5O3watqJsWEt1wa1Q3rDfrU757WHWde1Tro56mUE+Q1+Gl/YWZM+8RHo7e9rVJKUfY6JvzL/rHZ/xuZwVfZWA4gQIAAAQIECBDIVEDwkymnwQgQIECgUgSeeKE7vnFhtl9MnvShlthxs5pcE4304OfAtzXGB/dq6H8Nu7vi0ROOi/YnpvV/jAEcWTtpnWiaunnUTZqcXN0xLqrr/76W3s6O6EqCqK6XZ0Xbs09Hz5y5AzhL/w9t3m772O67Z0cke2QMyqPQHQv/ckx0Lb5vUIZf06DVdRtGzZgto7ZpcnKV0/ioqvn7lQCFnmVR6F4Q3W2zomfxk9Hb/eKahhqU9+vH7hpjd/1J8RKsQRm/OOis+b3x5XNbo6Mr2eBniB/NTdWxwTrVMWl8VYwZVRNNDVVRldxzrqunEIvbemPuot54YU5XLFqcze0cs1peLoOf7u7464n/GcumP54VQ0nj1E+ZGi077Bijttw6GjaYEvXjJyZhZn0UegvR07Y0Oue+HMuSQKrtqSdjyYP3Rc/8eSWNO5BOm37pGzHx7fsMZAjHEiBAgAABAgQIEChbQPBTNpkDCBAgQGAkCDz2XHd86+Jsg58vHT4qtp4yeF+oDkVdRnrw89Yd6+O4g5r6Tf38BWfHy5df3O/jyz2wuqk5xrz5bTF+97fG6NfvHPUTJpY0ROf8ubHkoftjwd1/isV/vCN6O9pLOi6LTut9+PCYcvixWQz1qjFaZ5yVBFvnvOr1wXuhJRon75NcxbRH1E3YJQnaSvPv7ZgbXQvui445dyT/bk02Qsr26sPXWm/zph+PUZsf91pd+v1eT5L1fOXCJfHci0MX+myR/M5949Z18fotamPDidVRVUKmM29JIR55ujv+8nhXPPxERxKEVfd7zVkcmMfg52+XXRCzLjwvi+WvcYz6yZNj4n4HxoQ931XenjqFQiyd8XjMvfm3MfemGyKSYGgwHjWjk/1+zvt5EkJNGIzhjUmAAAECBAgQIECgTwHBT58sXiRAgACBkS7w8DM9cdql2X4J9I1jRscm663dLxAHWteRHvzskHx5/LlDR/WLccm0R2LaCcdGdXFX+0F+NEzdJNZ776Ex8R37Dnh/iZ5l7THv1hvjpat+EZ0znx3kmScZR6E6tjvzx9Gy9faZnqt78V9jwT0fScYc/NChtnHraNz0I9E0ed+Imv4HhcsBetqifdaNsWzmJdHd+mSmJn0PVh3jd7s0asdk61881y//0BH/d8fg7+tTm9yNce83NMa+b6yLyeMH9jt3wdJC3HRvZ9z8l87o6Bj8z05fNclb8FO8xdujxyT/rQ3yHmbFPXTW/8gRMfFte0dUD6zOPW1tMevqn8fLP780ejuz/4yO2/tdscUXvtZXeb1GgAABAgQIECBAYFAEBD+DwmpQAgQIEMi7wCNJ8POdjIOfrx3VEput71Zvef5sbLZRTXztiJayl9Db1RmPfuyI6Hj+2bKPLeeA4l++b3jkx2LinslthbK+SqG3N+bddnPMPP+c6J4zu5xpld23+IXu6866ILnl28D2U1px4t6uWHDXh6O7/fEVLw1Go7puShJYfToa1ntn9v6F3uh46aZonXF69HS8MBjTXzFmbcu2SfhzSfJlekb+ycgz5/TGl36yOAn2SrjkZsVMymwk9217xy5N8d496mPsqGzPs7S9N668vStuvTe5+m0w19DHknMV/CRX0Uz/0omx5C/39LGSbF6qSq6gmXLUx2LSfu8ecOCz6ow6kttdPvPdk2Ppg/ev+taAn29x6ukx7g27DngcAxAgQIAAAQIECBAoRUDwU4qSPgQIECAw4gSmPd8dp1yU7a3evvDvo2K7qbW5thzpV/ysv25tfOfY8q/4efEXl8SL5501aLXvTb7jnnzIh2LDw4+Jmn/s2zNYJ+vpWBYvXPjjmHPVFYN1iuXjbnjc8bH+ew/L5Bztz10aS588NZOx+hqkNylAyyZHxagtklvUVQ9gD6i+Bl/1tZ72JPw5J9pm/nTVdzJ93rLlfyX7QX0okzGLF7l9/WetMWNmdybj9TVI8b/N497dOOjh+pN/64mz/6895szv6Wsag/JanoKfhff9OWZ84TOD4lActOVNu8dmJ/53ybet7NdEkpD7ufN+FHN++fN+Hb66g5YH2mdfmFwFmO8/AFnd+rxOgAABAgQIECAwvAQEP8OrHmZDgAABAsNEYMaLPfG1C7K91dsJH2yJXbbM9xc+Iz34GTemKs741JiyPqWdC+bHw0ceEtGa/e2DihOpGTs+Nks2Dx+7485lzWugnRfef088c/KXo2fJkoEO1ffxzS2x489+EXVjx/X9fomv9nYuiHl/PCi57dTiEo8or1tV3aQY+/pvR934of1L/s75d8eih78Q0T23vAmX2rtmXHILrd8kF/0MzL94uj8/1hU/+lVbqWcuu19x762P7tcUDdldoPSac2jrKMSPft0eDz/Z9Zr9snozN8FPcrXPI5/4aHTMeCKrpa80zvpHHB0bHnZE9lfTrXSWfz6ZedFPYvYlF/7zhQxaG/+/L8Skf0l+H3kQIECAAAECBAgQGGQBwc8gAxueAAECBPIp8NzLxdsSZfuF9nEHN8dbXzdE30wOEvtID35Gt1THWSeMLkv3uXN+EHN+9Yuyjim1c+Mmm8RWJ38/6tedXOohmfbreGlWTP/vzyR7/zyX6bivDDbp/R+KjY/55CtP+/Wz9YkfRNvzyW3jBuFR27RNjN359KhuWjv+PctejMX3fjK6l80YhNVFNG98dIza6lMDGrsn2Rbns+csHbQrZD7wjsY48C0NkVz0NqSP4rrO/2173PFA56CfNy/Bz4K774ynvvy5zD2KVzRu/vmvJHuW/UvmY7/mgEmQNePUr8XCW296zW7lvFm77nqxUxJoZ3Yby3JOri8BAgQIECBAgMCIEhD8jKhyWywBAgQIlCpQ3ND7Uz/I9gqBw/dvjnfuIvgptQbDsV9TQ3X85LOlBz+d8+bEI//+/ih0Z//lcONWW8e23/ph1Iwu7wqkrF27Fi2M6V/4VCybkX34UJ1cwvG6i66O+vET+jXt3s55MfcP+0dVVfZXW9W27BBjdzk7uSJm7fr3di2MRfd9LLqXPtovo9c6qFBojnX2vD6q6/vnXxz79w90xQXXDc7VPmv7d2qSC8S51w9++JOX4GfaZ46L1r8+/FofqbLf6y1Ux+b/8/WYuMc7yj42iwN62trir0d/OLrmZrev2cYnfj4m7f+eLKZnDAIECBAgQIAAAQKrFRD8rJbGGwQIECAwkgW6k+0bPvqtRZkSvGePxjhkz0He/yPTGb96sJF+xU9zU3X8+P+VHvw8f8HZ8fLlF78acoCvNEzdJLb93tlRO2bsAEfK5vCuRQvisROOja6/vZDNgKlR1vvIETHlP/4z9UrpzdYZZ0Xbs+eUfkCJPWsbt46xbzovCX2Gh3/xdnaL/nJUdLdnH741b/qJGLX5sSXKrNytNwlGTjorudpnQfb74Ry6T1P865vrVz7hWnhWXOP3rmyLh58YvNu+5SH4aX1qekz72Eczr8BwCEnm3XpjPPPtr2W2troNN4odL7h8yG5Zl9nEDUSAAAECBAgQIJArAcFPrsplsgQIECAwlAJHn7okOrqS+/lk9HjT9vXxyX9rymi0tTPMSA9+WpLg5+wSg5+ejmXx4IfeE4WM98CpGTc+tjv9vGiYvP7a+RCs5qztSejz2KeOyny91S3JXj+XXxM19WWGpr0dMef25NZQ3fNXM+P+vVxVt26Mf9PFUdO4Qf8GGKSjetpmxvy7P5LsZbQg2zPUToh1335jRHWZ/sks/vJET5z+i2z3Sisubs+d6+PoA4bP79L2zkJ8+YK2mD23O1v7f4yWh+Dn6dO/E/Ov/XWm61/n4ENik49/JtMxyx4suaxrybRH4vH/97Go6klSvoweW3zztBi321szGs0wBAgQIECAAAECBF4tIPh5tYlXCBAgQIDAcoHP/bg1Zs3J7ou8qRtUxzePLP1qkeFYhpEe/IxNynfmp0u7yuPlm6+P50/7ZqZlLO51sdW3fxjj3vDGTMfNarCF9/wxZnzps1kNt2KcTf+r/P09ls26PpY8+l8rxsii0ZsUYPyuP4n6CW/KYrjMx+ice2csevDjmY87ZvvvRMP6+5U97imXtca0p7P7HVqcwMbrV8fXjhgdtTVlT2dQD3h2dm985fzFUfyMZP0Y7sFPT2dHPPCBgyLasgv5GjffYnnAXV23dq7qKgb38267OV6+9lexbPr0rEsaLbu/Obb5+vcyH9eABAgQIECAAAECBF4REPy8IuEnAQIECBBYReC0K5Lb9zyZ3e17GpL9Yc5N9ofJ/mvBVSY+iE9HevAzcVx1/OCTpYV3jyV/Id72yEOZVmPd930wph776UzHzHqwZ844LeZdc3Wmw7bstHNs850zyxpz0b3/GZ0L/1zWMWvq3DzlozFq6xPX1G2tvr/08VOj/YVLM51D3bi3xrhdzy5rzNkLC3HSmYvLOmZNnaurCnHKcWNiw4nVa+q6Vt7/xW0dcc2d2e8nNdyDn3l33BrPfONLmZkX9/XZ/pzzk1sMbp3ZmKUO1P63mUnYc3XMvem6zK9eTM+huMadfv6rqF9nUvplbQIECBAgQIAAAQKZCQh+MqM0EAECBAhUmsBPb+yIW/+S7Zd4Z5w4JsaNym/0M9KDnymTq+KUo8es8aPeOfflePhDB6+xXzkdatddL3Y4/7LkFmPD5xZXfc2/uBn6w0d+MHrmz+vr7X69VryIYqefX5NcaTOxpON7O16OeXe8s6S+pXaqadgoJrzllxE1zaUeslb6FbpbY/6f/i16O1/K7PzFq1jW3evWqK4vzb944qtu74xf396e2RyKAx389qZ439vXzhUgpSykM7m46aSzF8aCRdn+jh/uwc+Mb381Ft56UylEJfWZcODBsdmnPldS30w69fYmt0m8M+Ykgc+Sv9ydyZClDDL5P46MjT5ydCld9SFAgAABAgQIECBQtoDgp2wyBxAgQIDASBH47d2dcdnN2X5xeeKhLbHzFsPsHkVlFHSkBz9bTKmNrxw+ao1is66+Iv529g/X2K+cDpt+4asxce99yzlkrfV9+cZr4vnvfSvT8290/Gdi8kGHlDRm+/OXx9InTimpb6md+nu7s1LHz7Jf+99+E0unZXcFRnFuLVv/TzRNKc2/2P+ks1tj9rzsbvM2fkwhvvfxcVFXWxx9+D5ue6grzr+mLdMJDuvgp6cn7n3f/pnd5q2qtj52uPjKqJ+4bqaGfQ3WuXBBzLnhNzH3N7+Orrmz++oyqK/VTlondvpZcnVkTX7/P8GgAhmcAAECBAgQIEBgQAKCnwHxOZgAAQIEKlngsee741sXtWa6xH3f1Bj//q7yN0nPdBIDGOzwkxcO4Oi1c2hvb7Ihd1U2t4Z6wzZ18ZlD1nzFx/QvnhBL7r0nswU3TN0kdvjJJZmtI7OJrW6g5C/oHzn6sOh4YebqepT9esubdo9tvvH9ko5beP/x0TX/DyX1LaVTbePWMf6tV+THv9AbC/743uhe9nQpyyupT92EvWPczqWFmbPm98bnzlpS0rildvqP/ZrjXbvWldp9rfXr6Y04IbnF3cLFye+djB7DOfhZ8vhfY/qn/jOjlUZMOOCg2OyEL2Q23qsGKhRiybRHYvZvfhUL//D7iJ7sbuf6qnOV8MLmXz81xu++Rwk9dSFAgAABAgQIECBQnoDgpzwvvQkQIEBgBAm0LivEcd/Ndo+K4sbkJx9V2h4xI4h6UJd66e864oa7srll3167NMRR+ze+5nyLm4I/+G/7RaG78zX7lfPmxif9d0za91/LOWSt9335+qvj+R+cltk8qhvqYserbo6a+jXc6qu3I+b8PvkitZBNzYsLaNnulGja4MDM1jIUA7W/cHUsffwrmZ2qUGiOSfvcHsn93tY4ZtZXS45uqY4fJntrDferfV6BueZPHfGLW7P7/A3n4Odvl/8sZl3w41eWPuCf25x1QbRssc2Ax1l1gOLv5Xm33hgvX3NVLJsxY9W319rzlt3fHNt8/Xtr7fxOTIAAAQIECBAgULkCgp/Kra2VESBAgEAGAiecsSTmLUr+hDurR7I5+Y9PGhvNDdnuAZHV9CpxnO9f2RYPTM/mr7rfs0dTHLLna3/xveih++PJz34yM8qq0aOX72+zxsAjszNmM1Dxi9YHDj0gojW7L8C3/v7ZMfp1O77mBLsW3B8L7zviNfuU9WbN+Fh3z5tLCjzKGnewO/e0x5zbkn2OCtldeTNu14uibtxOa5z5aVck+zw9mc1/c8WT/etbG+PQvfNzpeTitkIc/4NFUdwbKYvHcA5+nvjq52Lxn+7MYpmx/MrGcy/LZKxXBmmf+WzMTvbumXvDtRHt2d669ZVz9Pdn3YYbxaSD3x/rv+f9/R3CcQQIECBAgAABAgRWKyD4WS2NNwgQIECAQMSZV7fH3Y9md+VG0fSED7bELlu6p/9Qfb4+86OlMWdBTyanO+qg5tjr/7N3H2BSVXcfx387O9srLLv0KiIKCFgwKir2ijVGI2pib7G32N7YjWILlsRujC2ixo69BRUBpSkIgiBF2sKydXb6e4Zko45bZmfO7M7d/d7n0Zl776mfMzs8z/3POWdk88tN2f4FfMn4IzTw3EuttL+tC/nuzpu1MfLA1dLR69Sz1es3xzdbWt3Sx1W7JLYl4Zot6L83c/pMUP7Qy2NJmnJpar6+QZ7Vk621K3/wJcoZcGKz5ZmVtHTmXdWqq7MXML/t7AL17GpnucZmG2/x5q3P1uqrxXb2OErlwM/sYw9WYGOFFbnuE36nvr87I/GyzL5DGz77WOWvvqjqWV8kXp7FEkJhl7rsNlal449S8ajtnbN8pEUDikIAAQQQQAABBBBoGwECP23jTC0IIIAAAg4VeGemX0+8aXej7l22zdBZh7a8T4xDyVKq2V4z6eCUWyrMFj92HhpfcUKetunvbraP317/R1VONUtiWToG3zpJxaN3sFRa2xazafonWny1vaBV0e57asurb2q2E1VzL5d33ZRm07TmZtF2Dyuz65jWZEmZtL4Nn6hy1lnW2pNZepCKRv652fJs7+/Tp3uabjmtsNk6U/Hmu1/49fcpdv7tSNXAj7+yQnOOtrcE5ZDb71PhtqPjHk7fxnKtf/MVrXv9JQXXl8ddTjIyursUq+Tgw9X9oMOU2a17MqqgTAQQQAABBBBAAAEEfiZA4OdnHJwggAACCCDwc4Hl60O66gF7SyVFSs/Kcum+CwpktizhSLLAopUB3fB4rbVa7jy3UKVFzS/fNOek38i/aqWVOl1ZOdruX29Kbmd+WII+r2Yfvr+1/Y4y+w7Qto80vxRUxSdHKOBZYsVfrnyVjvvILPPmTH9Z3u/Inbeluuz8QrO20+b7dd+LdgIekYqctsxbA866TWFdfK+dPeJSNfBTNXeWFl1yTkOXE3qNzITZ/rV3lZ7V/B5qv6jETDGrmjfH7N3zoiqmvqe0oJlylkJH3rYjVWZm95Tsuodjv8dTiJOmIIAAAggggAACCLRCgMBPK7BIigACCCDQ+QQiyxb94S+Vqqqx2/ezj8jVzsMc+jDZLkVSS3tjmk/PvGtnXwe3O02PXl6otGbiPiG/TzMPGSeXpWePBTuM0VY3351Uo2QXvuCSs1Q7d46VaiJbpox53cymcjcx6yrk19p3d5DL0gBkdNldxdvfa6Xt7VVI5czT5ds0zVL1bpXuPd0sT9WEv6ll8odevTLV3r5Ol03I14iBzlsaM/IVsPnfDgu/G0jVwM+6Ka9o+V3NzwCL9YOX2be/Ceo+E2tyBevqVP7+m1r/yr9Uv8xSoDfm2ltImJetbvscrDIzwyd3wBYtJOY2AggggAACCCCAAALJESDwkxxXSkUAAQQQ6EACD7zm0dTZdvf52XZIhi79Dcu9JftjcvcLHn2xwM7Y9e/l0o0nFzTbZI+Z6fO1mfFj67C254WtBsVRzvKH7tW6yc3P0mlNsSOeeEFZPXo2miVYt0IbP7W39FTugLOUN9jeUmmNNjrJF2sXTVLd8oet1dJ17JtKz+7VZHm290V74NJC5WY1E21tsiXtf+OO5+o0e5FZbzLBI1UDPyueeFBrn3w8wd79J3vBzrtqq+smtlhW3bKlWvvaC6p4502FPPZmlrVYcQwJsk2Qp/SwI9Vtz/2Vnsu/7zGQkQQBBBBAAAEEEEAgiQIEfpKIS9EIIIAAAh1DYPo3Ad3zvL3lwiIqkRkJd59XpC75znyg6YSRjczWOvvOatV47Gwyv+vITJ05PqfZrlfO/kLfXnZus2lac3PgldepZNy+rcmScmnXvfOGlk+80Vq7tpx4r9lnZrtGy/NXzNCmL05p9F48FwuH326CTPvFkzVl8tT/8Lqq519hrT3F2z+qjC5N7zl17d9rtGRF0Ep9JUUu3X1u88FWKxUlqZBnP/Dq9U8Sn/2UqoGfJXferIo3X7OiVzL+cA0897LGywoEtOHTj7TulRfN7MFZjadpp6thM/uwy+57qfshR6hg2LZmNhz/prfTUFAtAggggAACCCCAQJQAgZ8oEE4RQAABBBCIFqj3hU0AoVL+gN0HOgfsnK0Je2dFV8e5JYGla4L6v4ftrdF34gG52neH5pfn2/DRu1p60/9Z6oE09L5HlL/l1tbKa4+CqufP1cILzrRW9cCrb1DJ7ns3Wp53zbuq+uqiRu/Fc7HLmGflLtwmnqwpk8e/aY42zTzBWnuKtr1LmWWN+0cqufC+apVX2Am2bj3QrSsn5Flre1sX9P6Xfj32RuKzUlI18PPtdZer8pN/W2HtftyJ6vv7n39P+MrXa+2Ul1T++isKbtxgpR5bhbhLu6v0kMNUuv94ZXYtsVUs5SCAAAIIIIAAAgggYE2AwI81SgpCAAEEEOjIAn950aOZ8+0sGdbglJUV+TV7vvKz7QaUGsrv7K8vfOzTSx/b2d8nYnn9qfka2CO9WdbIEkQrJt3RbJrW3Nz22VfMQ8VurcmScmm961Zr3vFHWWtX3/MvVfeDj2i0PM+K51Wz8PpG78VzsWS39+XKcrZ/yLNaGz7ZP57uN5onf+i1yulzZKP3IhdPnVgtr9dO4GfsqEydcUjzs+yabEgK3Ji9JKg7nkk8+JyqgR+b+3f1POk09f7tSZKZqlk550ute9Us5zb1Q2v7pdn6OBTsOEbdzOyekjFjpfTm/z2wVSflIIAAAggggAACCCAQjwCBn3jUyIMAAggg0OkEpi8M6p7JiT/Ai4Y7aly2Dh/LrJ9oFxvnVz5cpRVrIlusJ364zUSfhy4pkruF53w/PPekfnj4/sQr/G8J271uHnxmZForrz0KCtZ7NOvQva1V3eu0c9Tr6AmNludZ9oRqFt/e6L14Lpbu9YVZl7H5WV7xlNumeYJ1Wv/Br6xVmb/lZcrpf3yj5UX+2k68sbLRe/FcdPqsyMU/BHXdo4n/u5GqgZ+vzj1Z9Qu/iWdof5GnzPxNZ3Yv1bqXX5JvxbJf3G/PC2kFBeq238EqMwGfnN5927Mp1I0AAggggAACCCCAQMwCBH5ipiIhAggggEBnFvAHpHPuqpbH0i/ZGyzzc8ysn/MKlOXwZ8sN/UmV1x82hHT5X6utNSfWJadWPfOYVj/2kJV6Q2Yi2Ji3PrVSVrsWEgpp5gHm1/GWjp4nn67ex/6+0dLqvntUtd/d3ei91l90q3SfL1ufLdVyhENa/94oa63K2+JC5Q40MzMaOQJma5+TbrEX+Dl89xwdtbtzA58r1od05QOJfw+lbODn7BNVv3hxI5+EjnEpe6uhJthzpNlnbR+lZ2V3jE7RCwQQQAABBBBAAIFOI0Dgp9MMNR1FAAEEEEhU4Il3vHrn88Q36o5uxyFjs3XMOGb9RLskcv7ch169OtXeWMU6M2vlkw9rzROPJtL0/+WNbBq+4xsf/+/cyW+m77+LtSWbevzuFPWZcEqjHHXfPWwCP5Mavdfai+Fwhsr2NTN+OsCx9u2RcrnszH7LG3Secged2qiK12+WervVXuAn1r+7RhuTAhdXbwzpsvs7cODn9BNUv2xJCkjba4Ir063iPfdV2fijlD/E2ft72VOhJAQQQAABBBBAAAEnChD4ceKo0WYEEEAAgXYRsD2LpKET6elh/fnMQvXo4mq4xGsCAkGzvcj5925SZZW9vZNi2d8n0uRVzz6u1Y8+mEDrf8y6ecbPm59Iafb68WPpbfguGNTMA3ezVmGvU85Ur2NObLS8uqWPqXbJXY3ea+3FkBmA7vvNNtkc7h8Omhk/o1vb/SbT521xsZnx87tG7zPj5+csHX3Gz7yzfy/v4kU/77RDzzJ791HpwYer1Czp5i4scmgvaDYCCCCAAAIIIIAAAj8KEPj50YJ3CCCAAAIItChw01O1+mapWffN8rHtlhm69Jhcy6V2zuI+XxDQvS/UWut8YYF07/lFMT3+/2HyU/rhofus1T36lfeUnu3cze0jEMHqKs066gBrJr3POFc9j/pto+V5vn9SNd/e1ui9eC6W7jnNbODu7L/LkL9KGz6yt9Re/paXmz1+Gt9jiT1+fv4p6+h7/My/4DTVzf/655120Fko7FLxrruY2T1Hqni7MSbGy48vHDR8NBUBBBBAAAEEEECgBQECPy0AcRsBBBBAAIGfCsxeEtQdzyS+WfdPy2x4f8Ex+dp+y/SGU17jEIg8eP7TYzVauspsNmLp2GO7TJ16UGzBl3VTXtHyu/5sqWZpxBPPK6tHL2vltUdBHrNR+9enHGet6n4XX6Gy/cc3Wp5n1cuqWXBNo/fiudh1lykm7tM7nqwpkydQs0wV0w611p78rW80G9w3Xd6pE6vltbQX2thRmTrjkNj+9qx10GJBtv69SNU9fhZedaGqZ3xuUaxtikov7qJuB41X2UGHKausZ9tUSi0IIIAAAggggAACCLSxAIGfNganOgQQQAABZwtEAgt/fKBWP6y3P+unMF+6+bRCFeU5fGmpdhziuUuDmviU3cDcZRPyNWJgbAG5DVM/0NLrr7ImMOT2+1S4rb1luqw1rBUFbfpiuhZfcUErcjSfdOB1t6hk5z0aTeRb94Eq557f6L14LhZv/7gyumwXT9aUyePbOE2VX55urT1FI+9RZmnj/pFKLryvWuUVZr1FC8fWg9y68rg8CyW1TxHvfenX42/UJVx5qgZ+Fv/5Wm16/+2E+9dWBeQNH2lm9xyhLmPHyZWR2VbVUg8CCCCAAAIIIIAAAu0iQOCnXdipFAEEEEDAyQJTv/LrgZcSf5jXmMHwwW5ddkye47d1aaxvyb4WNlG5qx6t1orVdh46R9pbZJZ5m3RekVwxxuKqF8zTwvPPsNbVfhdcZn6Vfri18tqjoNUvT9aq++zsuxNp/9B7HlL+VsMa7Yq/cp42zWh8GbJGM7RwMX/odcrpc0QLqVL7tmf5s6pZdLO1RnYZ84zZA6Vx/0gl1/69RktW2JlxV1Is3f0H5+638vT7Xk35tD5h+1QN/Hz/4D1a//wzCfcvmQW4snLUZb/91f3gI5U7aHAyq6JsBBBAAAEEEEAAAQRSSoDAT0oNB41BAAEEEHCCQMgEGK54yMz6WWd/1k+k/8funaODd+bXyK39LHw4x69HXrUbkNt3p2yduG9WzE3xbSzX3GObXgYr5oL+m7DE/Dp94LmXtjZbSqVfcufNqnjzNWtt2va515Vplmpq7Ah5y7Xh33s1diuuazl9Jih/6OVx5U2VTDULbpBn1WRrzSnZ/SO5Mhv3j1Ry38seTZvns1bfXy8pVH52jJFXa7XaKWjiP+s091t/woWlauDHdlA3YaifFJDVf4BKDz1SpXsfZJZrdPY+XT/pFm8RQAABBBBAAAEEEIhZgMBPzFQkRAABBBBA4EeBGYuCmvSc3SXFGkp3pYV1zUkFGtwrtuXFGvJ15tequrAuf6BGNbX2ZvtEPG85s0B9urViw+9wSF8euqdC3sQf9kbqzx48WMPvfyLy1rHHXLO/j8/s82PjcOXkaruX3jGbsDcRCDD+697dxdy2EwB0FwxXl52ettH0diuj4rOjFKj91lL9+Srd5xNTVhP+5s7kD716ZWris1waGnzJcfkaOch534Xm9wE6+85q1dQl/p2UqoGfTdM/0eKrUycwHU5PU/HYceo+/tcqHDGq6e+Jhg8XrwgggAACCCCAAAIIdGABAj8deHDpGgIIIIBA8gQiD/WufbxG3620s6RRdEsL8l360+/z1b246Qes0Xk663lkLCa96NHM+fZmGUQstxrg1tXHt35/ka/OPVn1C7+xMhwhM/yjn3tDGUVmzSsHHr7y9Zp73GHWWp67zTBtc/dDzZa3afrv5K+a1WyaWG+GzACU7mlmuGQ40z/kXWdmQO0Ta3dbTJdZtIOKdny02XSfLwjo3hdqm03TmpsH7JytCXvHPuuuNWUnM+3qjSFddn+1lSpSNfDjXbNa8048ykofEykkvbSbyg4+XKUHHKrMrt0SKYq8CCCAAAIIIIAAAgh0GAECPx1mKOkIAggggEBbCyz+IajrHk3OrJ9IX8pK0vWn3+WpMJfgT3Nj++4Xfv19ip0ZHj+t55wjc/WrbTJ+eimm97aXNut3yVUq2+/gmOpOtURrX/+XVvxlorVmdT3oUA264I/Nlmd7abP8bW5WTq9Dmq0zVW96Vr6omm+utda8nD7HmqXvrmy2vDUVIV16n52AR6SiHl3TNfHs/GbrTMWbb0736am3PVaalqqBH5kZdjMP31fy2Olna7EKRu+obmY5zJKdd5PSnTcrrLX9JT0CCCCAAAIIIIAAAq0RIPDTGi3SIoAAAgggECXwwGseTZ1td6bJT6sY0DvdzDrJV1br4w8/LabDvl+4IqBbnqxRMGg3OFYaedh8Zr7SW7HKWwPyuikva/ldtzacJvxasONO2uqmuxIupz0KWHDJOaqda2f2TaT9/S6+QmX7j2+2K56VL5lgx/81m6Y1NzNKxql49KTWZEmZtJVfnClfxafW2pO/9Y3K6d38Hlablzi7wyxx5kl8ibOGht94eoH6l8Xxx9hQQDu83viPWi383s4+cCkb+DGuCy8/X9WzZrSdcK5ZbvDAg1V20BHK6duv7eqlJgQQQAABBBBAAAEEHCZA4MdhA0ZzEUAAAQRSS6CyNqxL76+Rx2vvIWd0D7ce6NbFv8kj+BMFs2J9SJGHq3UW9tCIKlq/PyhXe28XX7StbtlSzT99QnSRcZ+Hwi6NfGqyssp6xl1Ge2T0rFqhr086xmrVwx55tsWHvYGa71Qx7XCL9bpUsusUuXKc5R+sXa6Nn9mdqdR151eVnte/Rds7J9dp1kJ/i+liTbDvmGyduJ9zlnvbUBXWBfdUSmE7AelUDvyseOJBrX3y8ViHMu50WYOHqPuhR6lkz32VnpUddzlkRAABBBBAAAEEEECgswgQ+OksI00/EUAAAQSSJvDxPL8eetn+UmM/bfCgPum69Jhc5ec461fvP+2Dzfcry0Nmpk+1qpKw0l6XorDuPLtY7nhXDgqHNfu3hyiwscJal8uOPk79TvuDtfLaoqBl992h8pdfsFaVu6ybRv3j5Rg2bA+r/IP9FA6utVZ3br9TlTfkPGvltUVBNQtvk2fFk9aqcmX0Vskeb5jyWg5mvDPTpyfetLf8V1aWS/ecl6+crJbrttbhBAqa/KFXr0ytT6CEn2dN5cBPlZnRt8jM7EvGkebOVJe99lLpIUeqYKthMfztJ6MVlIkAAggggAACCCCAgDMFCPw4c9xoNQIIIIBACglEljaa+Gyt5i22s6xPU13r1c2tPx6fqy75znj42VQ/Er2+dE1Qtz1Tp5ra5MyyOvXQXO2xbXyzfRr69t0dN2jjW1MaThN+deXkatt/vCB3YVHCZbVFAb6N5frqxCMV8tn7m+h64HgNuvCKmJpf8/X18qx+Pqa0sSXKN0EPM+snwxn+IW+5yj8+SGlp9oIPOT1/o/xhV8fEta4yrIvvqYopbayJfr1ntg7bNfVn/XjNRKcL7jVL3Vn8fkrlwI8Cfn151IEKeez9+CGtoEA9jz1Bpfsdooyi4lg/IqRDAAEEEEAAAQQQQACBnwgQ+PkJBm8RQAABBBCIV2BjdVhXPFSTlGXHftqmkiKXLjomT/0ctt/FT/uQyPs53wV1zwt18iZpab1epW7dcnqeXAnG1jZ8+pGWXhtbkCJWj9KjjlH/M86PNXm7pvvuL7dq4+tmdo7FY/CNE1U8ZteYSvSt/0iVc86NKW2siXL7nqS8rS6MNXm7pqv55mZ5Vj5rtQ1Fo+5XZrexMZd55SPVWrHaXnA218x2vOPsvJSf9fjaZz798z17s50i4Ckd+DHt+/amq1T50QcxfzZaSugym9oNf/x5ZZaUtpS0/e+bGZ6bj7QE/9Fo/57QAgQQQAABBBBAAIEOJkDgp4MNKN1BAAEEEGg/gRmLgpr0XBLWHovqUkZ6WCcelKdxIxOblRJVbEqfRh6tvTXdp6feqjXL/SRvubvLj8/T8AHuhC2CPp/mHH2Q1V/Bh8xzxeF/e0K5Awcn3L5kFlDz7QLN/8Mpcv33eaiVusyG7js8/7rkjvEzH/Jp/fvjTNU2/x7d6rLTZLkLtrDSpWQVEqiarw3TfiuXzQFIL1bpHu/JTHmKudmvfurVc+/bm3EUqXjP7bN08oGpu79LtSekS+43+46ZV5tHqgd+Nnz8npbeeI3NLqvrfgdp0CWxzTCzWnErCyt/701tePt1Dbj4Ssftw9bKrpIcAQQQQAABBBBAwGECBH4cNmA0FwEEEEAgtQUee8ur92fYfdjZVI93HZmpkw7IkflxdIc+IksnPTqlTp/OtbdZfGNgu5jl3c4yy7zZOpbcebMq3nzNVnGby8neaisNv+shEwBJPDhltWH/LSzk92n+OaeoftkSq8V3PfgwDTr/8laVWbPgBnlWTW5VnpYSuwtGqcuYR03wMTX9FfKrYvrxCtQsaKkrrbqf0+dY5Q+9slV5IrMgz797k/VA7RUn5mmbfqnp/7dXPfpkjq9VTrEkTvXAT9Dn1SwT6JbH7kynIbffr8JtR8VC1C5pPCtXaME5J20O8EeW4+xzxjkqO/Bw9iJql9GgUgQQQAABBBBAAIFoAQI/0SKcI4AAAgggkICAPyDd8I8aLV0VTKCU2LNG9v057dBsDe6VHnsmB6Vctjake1/0aO0GA5vEIzfbpYln56sw195yPdUL5mnh+WdYb3XZ0RPU77TkbKaeaGOX3XeHyl9+IdFifpF/6L0PK3/INr+43twFf+U8bZoxobkkcd3L7X+a8ra0u4xcXA1pJFPNwtvkWfFkI3cSu9RlzLNmf6nW+UdqvHNynWYttBuw7VIY1k2nFarALP2WSseXi4O661mbM8x+7F2qB34iLf1u0m3a+NpLPzbawrvMHr017G9/V3quvYC8hWZtLiJYV6cFF5xqgtzLflZkwejtmf3zMxFOEEAAAQQQQAABBNpLgMBPe8lTLwIIIIBAhxWI/NL9mkeqVJWcZ4C/cAuHQtpzxxwds2eW8rPtBS5+UVEbXgiYuNnLn/j0yr/rFAonv0/n/jpPY4ZankVg9n6YZ34N7l28yLrcwCuuVcme+1kvN5EC1731qpbfcUsiRTSaN3uroRo+6ZE4fkUfVsXnZvZL9bxGy03kYuHwicrqsX8iRVjP61n1imoW2F8aK6NwtNlb6XHT3tb/HX61LKBbnzTLM1o+hprlGP94XJ7SUyT2s74yrKsfSd4eb04I/NR9t1jzzzzR8khLxXvtp8GX/ymOv3/rTfmxwGBQ31x7qWo+n/bjtZ+8Y/bPTzB4iwACCCCAAAIIINBuAgR+2o2eihFAAAEEOrLAopUB3fT3mjYJWjQ4FuS7dOze2dpteIacvM/03KVBPfl2vVavT+4snwa33UZn6vSDcxpOrb5ueP8tLf3zdVbL3FxYeoYG3zRRxduNsV92HCVumv6JFl1zqd19ff7bjoFX36CS3feOo1WSd/Wbqvr6srjyNpspLVNFo+9TZtedmk3WVjd95VNVOfs8U539v5nC4XeaINc+cXUlss3TVQ9XacUamxs+/acpkaUZzxyf2+7fdXXesK5/ok6r1tq3b0B3QuAn0tZvLvuDamZ/2dBsa6+9TjtbvY4+3lp5CRUUDmnJ7Teo4p23Wixm8+yfC83ePz16tpiWBAgggAACCCCAAAII2BYg8GNblPIQQAABBBD4r8C0+X7d+3yN0lxt+7P0XmVuHbpLpnYeliFX63+k327jF1nWbfKH9Zr7rd2loZrrUM9St244OS95+yQFApp72nHyrVrZXDPiuufKdGvQdbepePtfxZXfVqaNn32s766/RgraH7fMvv217YNm6bL0OJcyDAe08d9HKehbaqu7/ysnHM42gbe/KLNk5/9da483vvKPVTnnIilsf28Zd/ZgddnV7JOUFqe/AZm+MKh7Jidn+mMkaHvqQTnt9j3n8YV129N1WmwC/ck8nBL42TRrhhZffn5SKPpfdo1K9zkwKWXHXKj5Pl9y100xBX0ayozM/ul9+jnqfhB7/zSY8IoAAggggAACCCDQNgIEftrGmVoQQAABBDqpwBvTfHrmXbsbXsdKWVaSrvG7ZGm3ERkpsyRSdNsj8wAWrQjodeNkey+Q6Lqiz3OyXLr+1Dz16JLcwFz5e29q2a3XR1dv5Tycnqb+F/xRZfuPt1JeqwoxS9mtff1Fff+Xu8yD91CrssaaeOCV16lk3L6xJm80nXf1FDPr5/JG7yV6MRx2q2Cba5XT+9BEi4ojf9js5/OCahbeaPImx79w+O1mtkJiSwpunvXzSLVWrE5OG0cPzdA5h+UmL3jbxMhU1oZ1+3O1WtYG+7k5JfAj852w4OIzVfuV/eUVQ+ZHDAMuuFxlBx7WxIgk93KwtkaLb75G1TM+j6ui/O2218ALmP0TFx6ZEEAAAQQQQAABBOISIPATFxuZEEAAAQQQiF3gnx969drU+tgzWE4ZWQLuV8MytbtZGql/d1ccO3VYbpAprsYT0mdfB/TB7PqkLAPVYovTwrrsuAKNGBj/TIYW62hIYPZgmveHk5Oy109DFV0PPkz9zzxf6VnZDZeS+hqs9+j7e+/QxrffSFo9OUO21rB7HjKzTRIMzJmlmSqmn5CUvX4aOp/T51jlb3mhmZmUnCUDG+r532uwTtULJ6r+hxf+d8n2m817++z4WOL+pmHzvw/oln/Y3+unoc+9url17q9z1Kdbgp+VhgJbeF26Jqi/TK7ThsrkBLOiq3dM4Mc0vHr+XC284MzoLlg7Lzt6gvqdbMqPdxZgHC2pXbJIi2+8Wv4EZ24y+ycOfLIggAACCCCAAAIIxC1A4CduOjIigAACCCAQm0DkF+9Pv+fVm5+1X/CnoaWRB6Rjt3Vr5OAM9S01QaA2XAou8gv5LxcF9KVZym3eEp+CwTasvAHgv6+nmL1Bxo3MiLqavNOqebO16OKzk1eBKTmrT1/1O+8yFY3aPqn1bPpimpZPuk2+1WuSWs9Wf3lABVuPsFKHf9NsbZp5opWymirEnT1I+cOuUkaXHZtKYuW6b8Nnqpl/k4Le5VbKa6qQ4h2fUkaRHf9IHXe/4NEXC+wvR9fQ/gx3WEfukasDd8pM2gzHoInzvPaZVy9+6GnT/ducFPiJjMfim67Spo8+aBga6695w0dowEVXK8d85yXzCPl9Wj35Sf3w5ONKM8u82TqY/WNLknIQQAABBBBAAAEEmhMg8NOcDvcQQAABBBCwJBAJ/jz5rldvT2v/4E9Dl/JzXBo6wK1h5r+h/dPVs6vL2gNTs+KP1lSEtMz8Mn7RipDmLwvoh/X2Hpw19CGe19/uk6ODfpUZT9aE8nx31y3aOOXVhMqIJXPRrrup9wmnKXfQ4FiSx5ymdslCrfj7g6qZ9lnMeeJN2PWQwzXIBLFsHjVf3yjP6udsFtloWZml+ylv0JlyF9j1D1QtVM13D8hf/m6j9dq8mNP7t8rf+gqbRaqiJqxL/1ojrze5s2Qi+3b9eo8s7biV21pgO/L9PXtJUM++V68f1rX995jTAj++8vVmb7NjpNok/nuXnqGyo49R76OPV3pBodXPqswszQ0fvatVTzyclP3ZIo1l9o/dIaM0BBBAAAEEEEAAgV8KEPj5pQlXEEAAAQQQSIpA5OHhix/79NLH7bPnT0udcrnCKit2q6eZCdS9a7q6F7uUZ1auiuyFk5MZVpZ5zTaTZMwzMfmDMjN2wqrzhlVtZvJU1YU3P9hdvymktRUBrdmgpD/gbak/jd0/bLcc81C47YM+kbYEa6o155TjFapY31jTrF8r2HEndTvwUHXZaVe5MuLrc9Dn06bPp6r8tZdVbTZub4vDXdZNIx54Wul5+VarCweqtfHToxXy/WC13KYKyygZp9zeRyiz21jzlDfO2WUhn3zlU1W38gX5N/67qaqsXndl9FbXXScrzW3XP9LID2b59ejrdVbb21RhkQDQXqMztOsIsw+TCXLHc3j90rQFfr09o17Lk7RHUSztclrgJ9Knta+9qBWTbo+lewmliQRQuu5/kEr3P8QEXLc0SxPGP5PUt2G9yt9/S+WvvizfmlUJtSuWzFmDh2jEJLOcpTvO74dYKiENAggggAACCCCAQKcVIPDTaYeejiOAAAIItJfAlM99evqd1Az+tJdJW9R7+O45Omr3+AIgttq3adZMLfrjeTIxtrY7cnJUPOZXKhi5vfK22kY5/QY0uRdQ0Fsvz/Klql04X1WzvlDll9OS+6v9KIXIBu5b3XavikZuF3XHzqlv43RVzDxNkSBnmx3phcoq2c0sAbeDWTptG7nzBjS9F1DQo0DtUvkr58tfMUPe9VOlcHWbNTVkBqDrjo9sbmsyKo2o32X2xpm10ERU2uiIjPWQ/hkabmY2btk3Xf3K0pWf3XhwwGcm86wqj8xSDOprM0tx3nd+BdquqU2KODHwIzPtc+HVF6l6xudN9sv2jchylwU77KSCYduaGY9DlNOzlwmquBuvxrQvEuipW7pY1Qu+UvUXM1Tzzddt9t3sysrR1vc/ppy+/RpvH1cRQAABBBBAAAEEEEhQgMBPgoBkRwABBBBAIB6B6d8E9Ld/1ZiZM40/gIynTPI0LXDUuGwdPjar6QRteGfF43/T2qefaMMaf1mVu0ux3EUlcuVmb74Zqqs3gYaNClZW/DJxG17pfsJJ6muWqUvmUbv4ftUt+1syq2ix7LT0MqXnlCjNlbs5bThUZ/bs2aCwf12LeZOZIHfgOcrb4oxkVqFqT0jXPFKtDZuSWk2zheeaGUCFOWnKyg7LZWaIeH1pZlWygCrbLsbWbPuibzoy8GM64du4QfPPPlGBje3zvRIKu5RR0kUZhcX/+a4zkcdQMKBQVaVpU7mZ/df2y/Y1jO3AK69Tybh9G055RQABBBBAAAEEEEDAugCBH+ukFIgAAggggEBsAt+tDurO52pS9mFjbL1I8VRpYf3ugDzts30KLaVj1spbeM3FbfpL+BQfpc3Ny//Vzhp63USzVFN8y3LF3MdwSJtmXyD/hg9jztIZEmZ020fFI83SXMn2N5hLzd5f15rgTyhM4DuWz5ZTAz+RvlXNna2Fl5+jNLM0KMd/BMqOmaB+p5wDBwIIIIAAAggggAACSRUg8JNUXgpHAAEEEECgeYHIhueTXqzT4uXt98vj5lvo3LsZ7rDOOrJAOw5JT7lORPb7WXDRGapftizl2tYeDcreYrC2vv1+6/v6NNWXyH4/mz4/RQHPN00l6VTX3TnbqHinh5Oyr09TkJ/N9+t+893H0bKAkwM/kd6tm/Kylt91a8sd7QQpinbfU1tedUObBFg7ASddRAABBBBAAAEEEGhGgMBPMzjcQgABBBBAoC0EgiHp6fe8evvz+raorlPU0aUwrAt/U6CBPVIv6NMwAL7ytZp/wWkKrCtvuNQpXzO6ddfWkx5UZrfSNu1/yLNWFdN/r5B/VZvWm2qVpWf1NXtAPSZXVlmbN+21z3z653vsd9YSvNMDP5H+LX/0r1r37D9a6mqHvp8/ajtteeOdSs9s373mOjQynUMAAQQQQAABBBD4nwCBn/9R8AYBBBBAAIH2FfhycVAPv1an6hoTCeKIW2BwP7cuOCpXRXmpv4yUZ+UKLbzkzHbbAyNuZEsZ07uWaOgdf1VO7z6WSmxdMcHa5Sb4c4rCwbWty9hBUrsye6h4h0eUntu33Xr07Adevf4JQe/mBqAjBH4UDmvpvRO14dWXmutqh72XN3yEhtx4l/lb+8++Xh22o3QMAQQQQAABBBBAIGUECPykzFDQEAQQQAABBKTK2rAeft2j2Yv8cLRSIGz2zjlkt1wdvUeW0pO8TUwrm9Zscs+K5Vr4x/MVWN+5gg+RmT5DbpuknD7tF3SIDEyw9ntVfnmWgt6VzY5TR7sZmelTtN1fzfJ6/dq1a5GdX/5J8KfZMegQgZ9ID83+WkvvvcMEf/7VbH872s38bSMzfSYqPTuno3WN/iCAAAIIIIAAAgiksACBnxQeHJqGAAIIINA5BSIPQqd97dc/3qln9k+MH4GiAumMQ/M1YmDqLu3WXFd869do4RUXybt8WXPJOsy97AEDNOTmu83ybm2/vFhjiCHPGlXO/oMCtYsau93hrrlzhqpoh3vM8m7dU6ZvL3/i1fMfMPOnsQHpMIGfSOfMzJ/lj/2t0yz7VjR2Dw3643Us79bYB5trCCCAAAIIIIAAAkkVIPCTVF4KRwABBBBAIH6BGk9Iz7zv1Udf1CvN5aApLPF3Oa6cY0dl6vh9spWXnfpLuzXXwWBNtRbffI2qZ05vLpnj7xXsuJMGX3VTyi15FA5Uq3LOFfJXfOx44+Y6kFEyTkUjblGaO6+5ZO1y79/z/HrktVoFg87+Wy4pdiknK6yVayNh/MSPDhX4+S/H2tf/pe8nTZTLDlHiyEkoofSoY9X/tD9I/PudBF2KRAABBBBAAAEEEGhJgMBPS0LcRwABBBBAoJ0Flq4J6kkz+2fR94F2bklqVd+9m1u/2z/bsbN8GtUMBrXiiQe19pmOtwl6yDzL7znh9+p7/Kmp+yA0HFTtkgdUt+xvjQ6Pky+GzADkb3G28gadJhNJTtmufLsqqLufr1FVdco2sdmGFeZL//f7Qn0426fXptqZwdQRAz8RxKq5s7TkYyzNOgAAG0FJREFUhqsVrKxo1tRpN11ZGep3wRXqtvcBTms67UUAAQQQQAABBBDoQAIEfjrQYNIVBBBAAIGOKxD5UfSMhUG9YJZC+qG8cweAsjJdOnL3LO0/JtNRe/m05tO5aeZnWnr7zQpu3NCabCmbNr20mwZefLWKtxuTsm38acN8Gz5T9dd/Usi35qeXHfve5e6lgm2vU2bXnRzRh8heZ399pU5fL3HWd10k6HPF8QXq082lf37oJfATw6fNt7FcS++4UdUzOsZMx+yBgzXoiuuUO2BgDL0nCQIIIIAAAggggAACyRMg8JM8W0pGAAEEEEDAuoDZHkHTFvj1r3/7tHq9sx6KJorhdqdpvzFZOmTnDBXkpO6MhUT72ZA/UFWp7x+4WxXvvNVwyZGvXfc7SP3POF/pBWYjJgcdIX+lahfeqfo1zt6IPrvXUcofcqFZ2q3QQfqbt4LRWzN8+uf79QoEUn89sMgMxEuPzVX34v8sU0fgpxUft3BIkaXfVj30V4U8da3ImDpJIzMae/xmgvqceJpcGZmp0zBaggACCCCAAAIIINBpBQj8dNqhp+MIIIAAAk4WiASAZi0J6o3P6rWwgy8Bl2uCPHuMztTBO2WqKO8/D1WdPHatbfumWTO14v475f1+WWuztmv6yC/f+559gYpGbteu7Ui0ct/G6aqdP1GB+oWJFtWm+d352yh/q0uU0WWHNq3XdmXrNoX197c8mvut33bR1sobPTRDZ47PUW7Wj99PBH5az+srX2uC3ZNU+dEHrc/cjjnyho9Qv3MuUt4WW7VjK6gaAQQQQAABBBBAAIGfCxD4+bkHZwgggAACCDhOYNnakN770qfPvvLL6w05rv1NNbi0S7r22zFT40ZlKDvzxweqTaXv0NfN3j/r3npVPzz9qALrylO6qxnduqvniSerbL+DU3cvn9YKmr1/PKteUd2SBxXyr2pt7jZNn57VVzmDzlBOr0NSei+f1qJ8uTi4efbPD+tSZ6ZjZNnJCftma9zoDEV/Q9kK/LjSTODrquJWcZ357HGtSt9U4r8d+3RTt5J6vfqrOVr56N9Ua15T+cjq01e9fn+6Snbby/ytRX8CUrnltA0BBBBAAAEEEECgMwgQ+OkMo0wfEUAAAQQ6hYDX/CA+sgzcp195NX+JOUnhDdybGpCsDJfGDHdr3MgMbdnH/YuHqU3l6yzXQ36f1r/9utY8/4z8q1amVLcz+/ZXj18fq7J9D5LcGSnVNmuNCfnl+eFV1X//DwU8S6wVa6Mgd/ZgZQ840QR8IgG3jukfMjMdPzEB7pen+rR2Q/sFgMKhkMaOztYxe2arS37jD/xtBX4if0qPXV7Uqo+I0wM/mztrprVumj1Tayc/peqZqbX/T1b/Aep+9ASV7X2AlJ7eqrEhMQIIIIAAAggggAACbSVA4KetpKkHAQQQQACBNhSoqgtrxjcBzVzk08KlfvmDjT+cbMMmNVlVvlnKbfRQt3YcmqkRA9Ll5jlak1b/u2H2xNg04zOtf/NVbfrs30oLts8eKGG3W8U7j1XpgeNVvP1Ojgw2/s+0NW+Mv2/jZ/KsfFnede+aH/u3TxAiHDaz4brvo+zehyuza+fxb1jq8t2Z9ZprvuPSXG2055cZ9zEjsnX4rlnqW9p8nc+879Ubn9a35lPVaNqcLJcevLR1+2N1iMDPTzTqli7WuimvqPxds99ZTfVP7rTd23B6mop/Zb7rxh+l4tFm+UQH/rCi7bSoCQEEEEAAAQQQQCAVBAj8pMIo0AYEEEAAAQSSKOA3z6QXrAhqzuKAFq/ya9mqgELh9gsE5ee5NKhXuob1d2vYILf6mQeorJIT/wfAX7lJFZ9+pIqpH6pm1iyFA774C4shZ5o7U3nbb6euu+6prrvsLndh62YjxFCFo5KE/JvkXfuhvOvfl3/jNCmc+MP+ZgHSss2+PTsrq/veyirbw0zu6dz+5VVhs8ylWepygU8rVidnqcvSrunadbhZdtIs6VZSENt35z/e9ertaYl/FkqKXLr73NYFfpr9/Dj4ZtDnU+UX08x33QeqmvapgtXJDQJFAtuFI0arePdx6jp2nDKKujhYj6YjgAACCCCAAAIIdDYBAj+dbcTpLwIIIIBApxfwmUDQd6sDWmYekq5YH9SKdUH9UB62vj+QyxVW95IM9ShJU6+SdPUvc2mL3m6VFqexhFuSPoVBb72qv5pr/puluvlfqfrbRYn/Qj6/QAVbDlXuNtuowDwELRg+UumZWUnqgcOLDXrkq5wjf8Vs+Svnmdd5JhC0KbFOpRWbQM8I89DZ/NdltDKLR5ml3PBvDLWiJqw5SwL6ZnlA364Mau16f1yzgdzuNA3uY4LTA9waNSRj83dXbOGeH1v18BsefWT2Xkv06FXq1q1n5CVaTMfLb2Zf1SxeqOo5s1Sz4CvVLVggf/naxPqZm6/8wUM2f9cVjhilgmGjlJ6bm1iZ5EYAAQQQQAABBBBAoJ0ECPy0EzzVIoAAAgggkGoCNfVhrd8U0vpKqarGPFTzhFRtfrDu8YYUCIQVDKWZJePCcpnpOW6zylF6elgZ5gFpbrZLeeY5dJ55LcxLU7eiNHUpcKnIvHe19mlpqqE4vT1mTSzfxnJ5Viw3s1JWy7d+jQJVVZv/C/vqFfSbvaDMkZ5hNqfPzDazdwrlLipSZrfuZkZJT+X066/MLiVsXB735yCskHeDgnVLzZ5Aa8xkoLUK+ysVmSUUCnoVNnsGRY40syePKz3LzN4pVpqZwZOW3V3unB7mofNAE+Mx/oRKNzu19n/1vrBWloe0ZmNI5ea7rcoj1XqC8vnTzPeZ+S4zX1DZmea7yyw32dV8X0Vm9vTulqaeXV0Jf3fd/YJHX5hZSIkeW5ng09XHE/iJxTFYV2e+65aa77o1m/8LVFea7zrz91Zv/tYC5m8tFNy8J096Vo5ceXnKKDZB1a7dlNWjt9kbq9fm7z2mn8YiTRoEEEAAAQQQQAABJwgQ+HHCKNFGBBBAAAEEEEAAAQQQcIzAdU/UarGZeZTosdOwTP3hiJxEiyE/AggggAACCCCAAAIIdDIBAj+dbMDpLgIIIIAAAggggAACCCRX4NxJVdpk9h9K9Nhvp2ydsC9L+yXqSH4EEEAAAQQQQAABBDqbAIGfzjbi9BcBBBBAAAEEEEAAAQSSJuA1q4qdcktFXPsLRTfquH1zdOBOZj06DgQQQAABBBBAAAEEEECgFQIEflqBRVIEEEAAAQQQQAABBBBAoDmB71YH9adHappLEvO9i36br9FbpMecnoQIIIAAAggggAACCCCAQESAwA+fAwQQQAABBBBAAAEEEEDAksBbM3x68i2PldJuO7tAPbu6rJRFIQgggAACCCCAAAIIINB5BAj8dJ6xpqcIIIAAAggggAACCCCQZIG/vOjRzPm+hGvJSA/r4T8Wy5WWcFEUgAACCCCAAAIIIIAAAp1MgMBPJxtwuosAAggggAACCCCAQKoLBILStAV+VdeGHbXHTTAknX1Xteo85k2Cx8De6br+pPwESyE7AggggAACCCCAAAIIdEYBAj+dcdTpMwIIIIAAAggggAACKShQXhXWe1/69NFsn6prQnJnSH85t1CFuc6Y9jJvaVC3PWVnf5+9dsjWSQdkpeAo0SQEEEAAAQQQQAABBBBIdQECP6k+QrQPAQQQQAABBBBAAIEOLBA2ffvKBEzemenVrEVmibTwz4M8B+ycrQl7OyMAct9LHk37KvFl3iLDfdYRudplmIl8cSCAAAIIIIAAAggggAACrRQg8NNKMJIjgAACCCCAAAIIIIBA4gK19WF9PMdvAj4+ra8wa7s1cbjSwpp4TpHKin8eEGoiebtdrjTL0p0/qVLBoJ123n1eoUoK7ZTVbihUjAACCCCAAAIIIIAAAu0iQOCnXdipFAEEEEAAAQQQQACBzimwbF1I78zw6lMzMybgj81gxGC3Lj02T6kcBnn6fa+mfFofW4daSNWz1K3bzshrIRW3EUAAAQQQQAABBBBAAIHGBQj8NO7CVQQQQAABBBBAAAEEELAkEDATeqYt8Os9M7tn8cpAXKWeMj5X40am5tJnG6vDuuTeSvktzfbZ71fZOmEfZyxvF9dgkgkBBBBAAAEEEEAAAQSSKkDgJ6m8FI4AAggggAACCCCAQOcVKK8K690vfGZJN5+qa0IJQbjdabrh1Hz16eZKqJxkZL77BY++WGBnb59I+648MU9b93Mno6mUiQACCCCAAAIIIIAAAp1AgMBPJxhkuogAAggggAACCCCAQFsLzPkuqNufqZbC9hZoK+2SrutPzlV+TuoEf6bO8+uBl+us8RYVSPecV6Q0e2zW2kZBCCCAAAIIIIAAAggg4AwBAj/OGCdaiQACCCCAAAIIIICAowS8Zv+e8+6pVl1dYjN9ojs9sHe6rpyQp+zM9o+MfG/2K7r2seqY9yqK7ktj5/vulK0T92WZt8ZsuIYAAggggAACCCCAAAKxCRD4ic2JVAgggAACCCCAAAIIINBKgRc+9umljz2tzNVy8iH93brkN7nKyWq/4M+6TWHd+ESlKqrstuHPZxWod0nqzGhqeTRIgQACCCCAAAIIIIAAAqkmQOAn1UaE9iCAAAIIIIAAAggg0EEEauvDuui+GtV57M76ifD07ZGmi48pUEmB3cBLLPQry0O67ekq60GfrUxA6+oT8mJpAmkQQAABBBBAAAEEEEAAgSYFCPw0ScMNBBBAAAEEEEAAAQQQSFTgtc98+ud79mf9RNpVkO/SWYflasTA9ESbGXP+6d8E9ODLHnn99oNZF/82X6O2aLu+xNxpEiKAAAIIIIAAAggggICjBAj8OGq4aCwCCCCAAAIIIIAAAs4SCASlyx+s0boN5k2Sjr12yNZvxmUqLzt5s3+q6sJ66l2PPp1rNi9KwtGne5puPq1QyetBEhpNkQgggAACCCCAAAIIIJCSAgR+UnJYaBQCCCCAAAIIIIAAAh1HYN7SoG57qiapHcrPc2n8zlnae/tMZWXYq6rGLFP31oyApnzulddrf5ZPQ0svPDZf2w1mtk+DB68IIIAAAggggAACCCAQvwCBn/jtyIkAAggggAACCCCAAAIxCjzwmkdTZ/tiTB1/stxsl3YfnamxIzLUr8wV1wwaf0CavzyoT7/yasbXPvmDyZ2HM+S/e/skt5b4TcmJAAIIIIAAAggggAACzhIg8OOs8aK1CCCAAAIIIIAAAgg4UqDOG9aVZsm3DZXJmzUTDVNS5NLQAW5t0dOtPmVp6laUroIcKTMjTeGw5POHVeuVKqpDWlsR0sr1IX23OqBvVwQUSM6KbtFNlMIh3XhGkfqbIBUHAggggAACCCCAAAIIIGBDgMCPDUXKQAABBBBAAAEEEEAAgRYFvl0V1I1/r1YoxNyWBqwDds7WhL2zGk55RQABBBBAAAEEEEAAAQQSFiDwkzAhBSCAAAIIIIAAAggggECsAm9O9+mptz2xJu/Q6Xp1c+vGU/OU4e7Q3aRzCCCAAAIIIIAAAggg0MYCBH7aGJzqEEAAAQQQQAABBBDozAJmhTU99LpH/56V/P1+UtnZnSFdd3KB+pWyxFsqjxNtQwABBBBAAAEEEEDAiQIEfpw4arQZAQQQQAABBBBAAAEHCwTNNj8T/1mrr5cEHNyLxJp++mG52m2Eif5wIIAAAggggAACCCCAAAKWBQj8WAalOAQQQAABBBBAAAEEEGhZwOuX/vxUrRav7HzBn/Fjs/Wbcezr0/KnhBQIIIAAAggggAACCCAQjwCBn3jUyIMAAggggAACCCCAAAIJC3i8Yd36bK2WrAgmXJZTChg7KlOnH5KjNKc0mHYigAACCCCAAAIIIICA4wQI/DhuyGgwAggggAACCCCAAAIdR6DeF9adk+u0YGnHn/mzy7YZOmN8rlxEfTrOB5ieIIAAAggggAACCCCQggIEflJwUGgSAggggAACCCCAAAKdSSBgJvw8/IZHn8zxddhu77tTtk7YJ0tpBH067BjTMQQQQAABBBBAAAEEUkWAwE+qjATtQAABBBBAAAEEEECgEwuETd+nTPPpmXdqpTRXx5EIh3T8AXnab8dMlnfrOKNKTxBAAAEEEEAAAQQQSGkBAj8pPTw0DgEEEEAAAQQQQACBziWwcGVA9/2rRhWVzp8aU1QY1jmH52vrfu7ONYj0FgEEEEAAAQQQQAABBNpVgMBPu/JTOQIIIIAAAggggAACCEQL1NaH9cTbHn061x99yzHnY4Zl6vcHZKkgpwPNXnKMPg1FAAEEEEAAAQQQQKBzCxD46dzjT+8RQAABBBBAAAEEEEhZgXlLg3piikdrNppNgBxylBS7dML+udp+y3SHtJhmIoAAAggggAACCCCAQEcTIPDT0UaU/iCAAAIIIIAAAggg0IEEgiHpnZk+vTzVq5o6c5KiR76Z2XPILlnaf0ym3MR8UnSUaBYCCCCAAAIIIIAAAp1DgMBP5xhneokAAggggAACCCCAgKMFvGbVt/e/9GnK9LqU2v+npMil/XbM0t7bZyorw9HENB4BBBBAAAEEEEAAAQQ6iACBnw4ykHQDAQQQQAABBBBAAIHOIBCZATRzYUAfzPbqq299SnO1/R466elhjdwyS3uMytSoLdLlSusM8vQRAQQQQAABBBBAAAEEnCJA4McpI0U7EUAAAQQQQAABBBBA4GcCFTVhTV/g15cmAPTN0oBC4eRFYAryXRo2wK1Rg93abku3crKSV9fPOskJAggggAACCCCAAAIIINBKAQI/rQQjOQIIIIAAAggggAACCKSeQGQpuCU/BPTNipCWrQlo5bqQ1m8wF9NaPyMoP9elHiUu9evh1sAeLg3pk66e5pxQT+qNOy1CAAEEEEAAAQQQQACBXwoQ+PmlCVcQQAABBBBAAAEEEECgAwgEglJ5VUgV1SFV1Uq1nrB8gbCC5nqaieKkp0tZmWnKMf8V5ErFZlZP14I0ZZtzDgQQQAABBBBAAAEEEEDAqQIEfpw6crQbAQQQQAABBBBAAAEEEEAAAQQQQAABBBBAAAEEEIgSIPATBcIpAggggAACCCCAAAIIIIAAAggggAACCCCAAAIIIOBUAQI/Th052o0AAggggAACCCCAAAIIIIAAAggggAACCCCAAAIIRAkQ+IkC4RQBBBBAAAEEEEAAAQQQQAABBBBAAAEEEEAAAQQQcKoAgR+njhztRgABBBBAAAEEEEAAAQQQQAABBBBAAAEEEEAAAQSiBAj8RIFwigACCCCAAAIIIIAAAggggAACCCCAAAIIIIAAAgg4VYDAj1NHjnYjgAACCCCAAAIIIIAAAggggAACCCCAAAIIIIAAAlECBH6iQDhFAAEEEEAAAQQQQAABBBBAAAEEEEAAAQQQQAABBJwqQODHqSNHuxFAAAEEEEAAAQQQQAABBBBAAAEEEEAAAQQQQACBKAECP1EgnCKAAAIIIIAAAggggAACCCCAAAIIIIAAAggggAACThUg8OPUkaPdCCCAAAIIIIAAAggggAACCCCAAAIIIIAAAggggECUAIGfKBBOEUAAAQQQQAABBBBAAAEEEEAAAQQQQAABBBBAAAGnChD4cerI0W4EEEAAAQQQQAABBBBAAAEEEEAAAQQQQAABBBBAIEqAwE8UCKcIIIAAAggggAACCCCAAAIIIIAAAggggAACCCCAgFMFCPw4deRoNwIIIIAAAggggAACCCCAAAIIIIAAAggggAACCCAQJUDgJwqEUwQQQAABBBBAAAEEEEAAAQQQQAABBBBAAAEEEEDAqQIEfpw6crQbAQQQQAABBBBAAAEEEEAAAQQQQAABBBBAAAEEEIgSIPATBcIpAggggAACCCCAAAIIIIAAAggggAACCCCAAAIIIOBUAQI/Th052o0AAggggAACCCCAAAIIIIAAAggggAACCCCAAAIIRAkQ+IkC4RQBBBBAAAEEEEAAAQQQQAABBBBAAAEEEEAAAQQQcKoAgR+njhztRgABBBBAAAEEEEAAAQQQQAABBBBAAAEEEEAAAQSiBAj8RIFwigACCCCAAAIIIIAAAggggAACCCCAAAIIIIAAAgg4VYDAj1NHjnYjgAACCCCAAAIIIIAAAggggAACCCCAAAIIIIAAAlECBH6iQDhFAAEEEEAAAQQQQAABBBBAAAEEEEAAAQQQQAABBJwqQODHqSNHuxFAAAEEEEAAAQQQQAABBBBAAAEEEEAAAQQQQACBKAECP1EgnCKAAAIIIIAAAggggAACCCCAAAIIIIAAAggggAACThUg8OPUkaPdCCCAAAIIIIAAAggggAACCCCAAAIIIIAAAggggECUAIGfKBBOEUAAAQQQQAABBBBAAAEEEEAAAQQQQAABBBBAAAGnChD4cerI0W4EEEAAAQQQQAABBBBAAAEEEEAAAQQQQAABBBBAIEqAwE8UCKcIIIAAAggggAACCCCAAAIIIIAAAggggAACCCCAgFMFCPw4deRoNwIIIIAAAggggAACCCCAAAIIIIAAAggggAACCCAQJUDgJwqEUwQQQAABBBBAAAEEEEAAAQQQQAABBBBAAAEEEEDAqQIEfpw6crQbAQQQQAABBBBAAAEEEEAAAQQQQAABBBBAAAEEEIgSIPATBcIpAggggAACCCCAAAIIIIAAAggggAACCCCAAAIIIOBUAQI/Th052o0AAggggAACCCCAAAIIIIAAAggggAACCCCAAAIIRAkQ+IkC4RQBBBBAAAEEEEAAAQQQQAABBBBAAAEEEEAAAQQQcKoAgR+njhztRgABBBBAAAEEEEAAAQQQQAABBBBAAAEEEEAAAQSiBAj8RIFwigACCCCAAAIIIIAAAggggAACCCCAAAIIIIAAAgg4VYDAj1NHjnYjgAACCCCAAAIIIIAAAggggAACCCCAAAIIIIAAAlECBH6iQDhFAAEEEEAAAQQQQAABBBBAAAEEEEAAAQQQQAABBJwqQODHqSNHuxFAAAEEEEAAAQQQQAABBBBAAAEEEEAAAQQQQACBKAECP1EgnCKAAAIIIIAAAggggAACCCCAAAIIIIAAAggggAACThUg8OPUkaPdCCCAAAIIIIAAAggggAACCCCAAAIIIIAAAggggECUAIGfKBBOEUAAAQQQQAABBBBAAAEEEEAAAQQQQAABBBBAAAGnChD4cerI0W4EEEAAAQQQQAABBBBAAAEEEEAAAQQQQAABBBBAIEqAwE8UCKcIIIAAAggggAACCCCAAAIIIIAAAggggAACCCCAgFMFCPw4deRoNwIIIIAAAggggAACCCCAAAIIIIAAAggggAACCCAQJfD/AAAA//+5rbnWAABAAElEQVTs3Qd4FGX+wPFfek8gQEJHsXOWsxds56nnnd75PxV7BbEr2LGLHRUFRLEg9l5RLKecp96denf2gh3pkAAJSUhv//edOMPsZjfZZHd2Z2a/8zxkp8/7ft7NG573N+/7prSrRVgQQAABBBBAAAEEEEAAAQQQQAABBBBAAAEEEEAAAQQ8L5BC4MfzZUgGEEAAAQQQQAABBBBAAAEEEEAAAQQQQAABBBBAAAFDgMAPXwQEEEAAAQQQQAABBBBAAAEEEEAAAQQQQAABBBBAwCcCBH58UpBkAwEEEEAAAQQQQAABBBBAAAEEEEAAAQQQQAABBBAg8MN3AAEEEEAAAQQQQAABBBBAAAEEEEAAAQQQQAABBBDwiQCBH58UJNlAAAEEEEAAAQQQQAABBBBAAAEEEEAAAQQQQAABBAj88B1AAAEEEEAAAQQQQAABBBBAAAEEEEAAAQQQQAABBHwiQODHJwVJNhBAAAEEEEAAAQQQQAABBBBAAAEEEEAAAQQQQAABAj98BxBAAAEEEEAAAQQQQAABBBBAAAEEEEAAAQQQQAABnwgQ+PFJQZINBBBAAAEEEEAAAQQQQAABBBBAAAEEEEAAAQQQQIDAD98BXwq0tbVJU3OLNDc3S3OT+mxpldbWFmlV+/Wx9vZ29c+XWSdTCCCAAAIIIIAAAggggAACCCDgQ4GUFJEU9SM1NVXS9L+0dMlIT5OMTPWZkSGZGenGMR9mnSwhgAACCPRQgMBPD8E43Z0COqDTUN8o9Q2N0tjYaAR93JlSUoUAAggggAACCCCAAAIIIIAAAgg4I6CDP1lZWZKTnSXZOVlGgMiZJ3FXBBBAAAE3CxD4cXPpkLYuBVpbW6W2rkHq6upUwKcp4Fz1EoxkZqq3XTIz1VsvHW/ApKWlqbdhUo23X/QbMvofCwIIIIAAAggggAACCCCAAAIIIOAFgY7RS9qNkUxaW9vUyCatxggnzWrEk6amJvWvWYIHN8nJzpTc3FzJy81WbSJpXsgmaUQAAQQQiIEAgZ8YIHKL+ArU1TdITU2d1NXXBzw4JztbctTbLNlZmertlsyAY2wggAACCCCAAAIIIIAAAggggAACfhdobGySBvWv3hgVpSEgu7k5OVJQkCu5OdkB+9lAAAEEEPCfAIEf/5Wpb3NUs75WqqvXBwzjlpebo95ayVFvr2TTg8e3JU/GEEAAAQQQQAABBBBAAAEEEECgpwK6h1CdGimltq7e+Gder4eDKyzMl4L8PHMXnwgggAACPhMg8OOzAvVjdnTAZ11VjbS0tBrZ0xMXFhTkS35erjF0mx/zTJ4QQAABBBBAAAEEEEAAAQQQQACBWAnooeHW19apEVTWG8PD6fumq/aVPkUFBIBihcx9EEAAARcJEPhxUWGQlEABPaRb5boaY5xafSRLzdlTVFggeXk5gSeyhQACCCCAAAIIIIAAAggggAACCCAQkUBtbb1UVddIo5oTSC96fuS+fQoYAi4iPU5CAAEEvCFA4Mcb5ZRUqdSTE1ZUVhtvouiM6y7IfYoKCfgk1beAzCKAAAIIIIAAAggggAACCCCAgJMCOgC0rqraGlJfj6xS3LdQja6S5uRjuTcCCCCAQBwECPzEAZlHRC6gux2vrVgnbW3tkqIu69u3SPXyyY/8BpyJAAIIIIAAAggggAACCCCAAAIIIBCxQJWaT7myskra1RWpqSnSr7iPMbx+xDfgRAQQQAAB1wkQ+HFdkSRvgtasXSd6Ph+95OXmGG+ZpKenJy8IOUcAAQQQQAABBBBAAAEEEEAAAQTiINDS0mKMvlJbV288rSA/T/r36xOHJ/MIBBBAAAEnBAj8OKHKPXsk0NzcIqvXVFhjy/ZXb5YUFOT16B6cjAACCCCAAAIIIIAAAggggAACCCAQnUBNTa2sUSOx6EXPtTygf7FkqCH4WRBAAAEEvCVA4Mdb5eW71NbXN0i5Cvrood30ZIID1Nskmeo/FiwIIIAAAggggAACCCCAAAIIIIAAAvEXaGpqltVqVJampiZj6LcSFfzJycmOf0J4IgIIIIBArwUI/PSajgujFdDz+axeU2ncJi83V71F0kdSUvTMPiwIIIAAAggggAACCCCAAAIIIIAAAokSaG9vV20266S2rs5IwoD+fZn3J1GFwXMRQACBXggQ+OkFGpdEL6Dn8tFz+uilqCBfiouLor8pd0AAAQQQQAABBBBAAAEEEEAAAQQQiJlARUWVVNWsN+6n5/zRc/+wIIAAAgi4X4DAj/vLyHcptAd9ivsUSlFRge/ySIYQQAABBBBAAAEEEEAAAQQQQAABPwhUVdVIxbpqIysEf/xQouQBAQSSQYDATzKUsovyaB/erbhvkRQV5rsodSQFAQQQQAABBBBAAAEEEEAAAQQQQCBYoKp6vVRUVhm7GfYtWIdtBBBAwH0CBH7cVya+TVF9fYOsKl9r5I+ePr4tZjKGAAIIIIAAAggggAACCCCAAAI+FLD3/BlY0k9ycrJ9mEuyhAACCPhDgMCPP8rR9blobm6RFavKpa2tnTl9XF9aJBABBBBAAAEEEEAAAQQQQAABBBDoLGDO+ZOamiKDB5ZIRkZ655PYgwACCCCQcAECPwkvguRIwIqV5dLY1Cx5ublSMqBvcmSaXCKAAAIIIIAAAggggAACCCCAAAI+EyhfXSm1dXWSlZkhgweV+Cx3ZAcBBBDwhwCBH3+Uo6tzsWbtOqlZXyuZmZnqbZD+kpKS4ur0kjgEEEAAAQQQQAABBBBAAAEEEEAAgdAC7e3talSXNdLU1CQF+XnSv1+f0CeyFwEEEEAgYQIEfhJGnxwPXl9bJ6vXVBqZHaLeAslUb4OwIIAAAggggAACCCCAAAIIIIAAAgh4V6BJjeqyXI3uopcB/ftKfl6udzNDyhFAAAEfChD48WGhuiVLra2tsmxFmTGvT//iPlJQkOeWpJEOBBBAAAEEEEAAAQQQQAABBBBAAIEoBGpqamVNxTrR8/0MHVwqaWlpUdyNSxFAAAEEYilA4CeWmtwrQED39NE9fvJyc9S8PsUBx9hAAAEEEEAAAQQQQAABBBBAAAEEEPC2QPnqCjXfT73R40f3/GFBAAEEEHCHAIEfd5SD71JRV98gZeVrRc/mM3RIqaSnp/suj2QIAQQQQAABBBBAAAEEEEAAAQQQSGaBlpYWWba8TNoVQmlJP8nNyU5mDvKOAAIIuEaAwI9risJfCVm+crUxyV9x3yIpKsz3V+bIDQIIIIAAAggggAACCCCAAAIIIICAIVBVvV4qKqvUvM6ZMmTQAFQQQAABBFwgQODHBYXgtyTUrFdjvK5dJ5kZ6TJEjfHKggACCCCAAAIIIIAAAggggAACCCDgX4Hlao7npuYW6d9PzfGczxzP/i1pcoYAAl4RIPDjlZLyUDqXLl8lLS2tUtK/WPLycjyUcpKKAAIIIIAAAggggAACCCCAAALdCXz8fYt88E2TLPilxTh11MbpssfWmbLT5gzz3p2dX4/X1tZL+ZoKNdR/mgwbMtCv2SRfCCCAgGcECPx4pqi8kVCzt09WZoYMHlTijUSTSgQQQAABBBBAAAEEEEAAAQQQ6FZgVWWbPDCvXn5Y3BHwCb5gixHpMv7POVLaJzX4ENtJILBiZbk0NjXT6ycJyposIoCA+wUI/Li/jDyVQrNrL7194lNsI0eONB60cOHC+DyQpyCAAAIIIIAAAggggAACCCStwA2P1cr3YYI+JooO/lx5AkN9mR72z+ffa5K5/6y37+q0fuheOXLEPpmd9nthh9nrh6H/vVBapBEBBPwuQODH7yUcx/zV1TdIWflayVDdeofSrTcu8gR+4sLMQxBAAAEEEEAAAQQQQACBpBf4+IcWmf5sbUQOE47MY9i3IKkFKmB2swqcRbJcpgJno1QAzYvLMjX8f7Ma/r+0pJ/k5mR7MQukGQEEEPCFAIEfXxSjOzJRVl4hdfX1Uty3SIoK892RKJ+ngsCPzwuY7CGAAAIIIIAAAggggAACLhGY8WK9/G9BU0Sp2eU3mXLuX5nz144VSW8p83wv95qqql4vFZVVKuijhvwrKTazxCcCCCCAQJwFCPzEGdyvj2ttbZUly1YZ2Rs+dJCkpTGebzzKmsBPPJR5BgIIIIAAAggggAACCCCAwBlTq6W2vj0iiLycFLn3wsKIzk2GkyIZ4i3YwatDvrW2tqn2oZVGdoYPHajah9KCs8Y2AggggEAcBAj8xAE5GR5RXVMrayvWSV5ujpQM4I2OeJU5gZ94SfMcBBBAAAEEEEAAAQQQQCC5BU64oapHAI9dWdSj8/1wsg7w6KW7eXwizev+Q5+QPw291zo9b+Q5xnruyNOsfW5cKV9dIbV19dKvuI8UFjDfkxvLiDQhgID/BQj8+L+M45LDVWWrpb6hSUr6F0tenvu6c69YWSaffvGVYbFyVZnxOWhgqQwqLTHWd9x+27g4xfohBH5iLcr9EEAAAQQQQAABBBBAAAEEQgkQ+Aml0rGvNz16wt8t8MgZoy6VzQs/CNyptnQQyK0BoNraeilfUyE52ZkysHRAp7SzAwEEEEDAeQECP84b+/4JrW2qG+/Sjm68Gw0fLCkpKa7J8yeffWkFfLpL1A7bbSNeCwAR+OmuVDmOAAIIIIAAAggggAACCCAQCwECP6EVnQz66Cdu0m+hnL3ZSSEf7tbgT3t7uyxassJI8/BhajqAVKYDCFmA7EQAAQQcFCDw4yBustx6w5sc2epNjn6uyLbZw8fs3RNporwW/CHwE2nJch4CCCCAAAIIIIAAAggggEA0AgR+OustWNwiNz9W2/lAjPf8cZsFckDe6SHv2mfHOZLRd6eQxxK5c1XZWjUyTINrR4ZJpA3PRgABBOIhQOAnHso+f8aateukZn2tFPctkqLC/ITnVgd9Xvvb/E7p0EO76UUHd8yAkDn8m/1kfd4hB+1v3+XadQI/ri0aEoYAAggggAACCCCAAAII+EqAwE/n4gxlcuheOXLEPpmdT47BnrqF90vtwpmd7jRg/y877Uv0jqrq9VJRWSUF+XnSv1+fRCeH5yOAAAJJJ0DgJ+mKPPYZXr6iTJqaW2TwwAGSleXMf256kup5b863Ajv6Oh3I0cGewYM6Aj/B9wo1HJxXev4Q+AkuTbYRQAABBBBAAAEEEEAAAQScEAgV5OjqOY9dWdTVYc8fCzXE22Un5MmoEemO5q258mNZ98nYgGe4cci3xsYmWbFqtWRmpMuQwaHbYwIywQYCCCCAQEwFCPzElDP5btam5vdZrOb30bP6bDRiSMIBgoM4PQngBAeMDv7D/mGDRQnP6K8JIPDjlpIgHQgggAACCCCAAAIIIICAvwUI/ASW7w1qiLfv1VBv5uJkTx/zGeZncM+fzL57SNGO95qHXfO5aPFyaVepGaHm+Ullnh/XlAsJQQCB5BAg8JMc5exYLhvUGxwr1RscWZkZKkhS4thzIr3xAw8/YZ3a0yHbgoeI6+n11oPjuELgJ47YPAoBBBBAAAEEEEAAAQQQSGIBAj+BhR8c+IlHbx8zBcG9ftwa+Fmxslwam5rVSCwDJNsFI8SYfnwigAACySBA4CcZStnBPOq5ffQcP24YszW4t09veuzE4h4Ocne6NYGfTiTsQAABBBBAAAEEEEAAAQQQcECAwE8garBHvIe2Wz1/24AEuXGeH3NOaD3Hj243YkEAAQQQiJ8AgZ/4WfvySRUVVVJVs16K+xZJUWF+QvNoD9r0trdOcK+f3gSP4olA4Cee2jwLAQQQQAABBBBAAAEEEEhegeBAR3cS8Q6EdJeeWB8P9oh3fr0Q+KmqXi8VlVVSVJAvxcX+nvMp1t8v7ocAAghEK0DgJ1rBJL++rLxC6urrpXRAseTm5iRUwz7MW0/m9glOdKzuE3xfJ7YJ/Dihyj0RQAABBBBAAAEEEEAAAQSCBYIDHcHHg7fjHQgJfr7T28EePcnvvA8b5aMFLbKsvGOOoCED0mXXrdLlL6OzIk62FwI/dXX1Ura6QnJzcqS0pDjivHEiAggggED0AgR+ojdM6juY47UOVuO1ZiV4vNZYBWzmvTlfzVtUZpRrb3sOxetLQeAnXtI8BwEEEEAAAQQQQAABBBBIboHgQEd3Gj0JhHR3LzceD/aIJL+rq9plxgt1smhFR8AnOF/DBqbLuYflyKDi1OBDnba9EPhpVPNCr3DRvNCdENmBAAII+FiAwI+PCzceWVu6fJW0tLTKsCGlkp6eHo9Hhn2GE4GfaHoOhU1oDA8Q+IkhJrdCAAEEEEAAAQQQQAABBBAIKxAc6Ah74q8HIgmEdHcPNx8P9ogkv1c/tF5+Wd7aZbaGlqbLzeO7nw/HC4GflpYWWbq8TLUXpal2o4Fd5puDCCCAAAKxFSDwE1vPpLvb4qUrpK2tXUYMGySpqd2/keIkUKx66sQqgORkXs17E/gxJfhEAAEEEEAAAQQQQAABBBBwUiA40NHdsyIJhHR3Dz8df/2jJnlqfn1EWTpi32w5dM+uh33zQuCnra1NFi9dqdqLUlS70eCI8s5JCCCAAAKxESDwExvHpL3LoiXLpb1dZKPhgyUlJSWhDrEI/KxYWSav/W2+lY+D/7C/DB5Uam27bYXAj9tKhPQggAACCCCAAAIIIIAAAt4U6C6QcPrt1VLXoBoAIlhys1PkvosKA878+MA9ArZ3euuDgG2/b0TS28c0iKTXT3flZd4rkZ/tqsFo0ZIVqr1ItxsNSWRSeDYCCCCQdAIEfpKuyGOb4V8WLzduuPGIxP8BDw7a9GaYtk8++1I+/eIrC2n8ycdZ625cIfDjxlIhTQgggAACCCCAAAIIIICA9wSqPjlDmio3BGP67DhHMvruZGXkzufr5NPvmq3trlZ22DJDzj8i1zql6otP5ceLz7G287fbQba8baa1nQwr46ZUS1NzZIEzHSh59IqiLlm8EPjRGXBTu1GXoBxEAAEEfCZA4MdnBRrv7LjtD7i914+26EmPneCgT28CR/H2J/ATb3GehwACCCCAAAIIIIAAAgj4UyA48JM38hzJHXmaldmPvm2Ru1+otba7Wjn78DzZbasN8wAvfWy2lD02x7qEwI9FEXIlksBPyAtduNNt7UYuJCJJCCCAgCMCBH4cYU2em7ppqDetHtzrR++LJPgTHPTR17m9t49OI4EfrcCCAAIIIIAAAggggAACCCAQrUDdwvulduGGXjjBgR99/2seXi8Ll7V2+aiRQ9Nk8sn5AecEB35KTxgrw044NeAcv2/Eeqg3L3gx1JsXSok0IoCAXwUI/Pi1ZOOUr8VLV0hbW7uapG+QmqwvNU5P7foxoYI44Xrv6ECRHtpt5aqygJuGOz/gJBdsEPhxQSGQBAQQQAABBBBAAAEEEEDABwLNlR/Luk/GBuQkOPizfE2bPDCvTn4OE/zZRAV9xh+SK0P6b2gfCB7mTT9gMzXMW5Ea7i2Zltc/apKn5tdHlOUj9s2WQ/fMiuhcN5/U1tYmi5euVO1FKardaLCbk0raEEAAAd8JEPjxXZHGN0NLl6+SlpZWGTakVNLTN3Tjjm8qOj8tVPDHPGvQwFJjNTjYYx7Xn/qcQaUlsuP229p3u26dwI/rioQEIYAAAggggAACCCCAAAKeFQieNyaz7x5StOO9nfLz3+9a5MNvmmTBohbj2KiN0mX332TKLlt2bhf4Ts3ts17N8WNfdnprw1xC9v1eWv/4wD0CkhtJniLp9TO0NF1uHp8XcG+vbrS0tMjS5WWqvShNtRsN9Go2SDcCCCDgSQECP54sNvckesXKcmlsapbBAwdIVlamexKmUtJV8CdUQnWwR/f0sfcA0vsOOWj/UKe7Yh+BH1cUA4lAAAEEEEAAAQQQQAABBHwhEDzcm85UcK+fnmQ0eIg3fa1fhnnrTeBndVW7zHihThat6AiYBVsOG5gu5x6WI4OKN/SYCj7HS9uNjU2yYtVqycrMkMGDSryUdNKKAAIIeF6AwI/nizCxGSgrr5C6+nopHVAsubk5iU1MiKfr4I9edDCnq8U+tNu8N+cHDP3m5uAPgZ+uSpVjCCCAAAIIIIAAAggggAACPRUIDv6UvTBQ0vM3l0HHj+3R8Gyhgj46LZH0jOlpmhNxfm8CP2Y6533YKB8taJFl5R0BoCED0mXXrdLlL6O9P7ybmUf9WVdXL2WrKyQ3J0dKS4rth1hHAAEEEHBYgMCPw8B+v31FRZVU1ayX4r5FUlQYOHmj2/JuBoHMdOmAjl4GD+r4NPfrT68Efwj82EuNdQQQQAABBBBAAAEEEEAAgVgIVH1yhjRVfiDVn20ilW9vmBM3kt46ek6flY/P6TS8m06Xn+b2iSbw09MyWly5SF79+gX5fpV+qbVdNi/dWg7+zWEyst8mPb1VXM+vql4vFZVVUlSQL8XFRXF9Ng9DAAEEkl2AwE+yfwOizH/N+lpZs3adFOTnSf9+faK8m7su90Lwh8CPu74zpAYBBBBAAAEEEEAAAQQQ8INAc+XHsuzxh2Ttq5+FzI4OAOmlcNsdrOM62KOX4Pl8zBMiCRqZ53rhM16BnyWVi2Xq3ydLY0tDAEtaarpc+PurVfBn04D9btrQ7UW63Ui3F+l2IxYEEEAAgfgJEPiJn7Uvn9Sgxmtd6ePxWt0e/CHw48tfKzKFAAIIIIAAAggggAACCCRcQPfc+fHic2KSDr8FfTTKd8rGHuRyqjfTPf+6U75c9r+Q5TBq0G/lvH0uCXnMDTvNeaEHqXmhs102L7QbfEgDAggg4KQAgR8ndZPg3m1tbbJ46UpJUXndaMQQX+bYzcEfAj++/MqRKQQQQAABBBBAAAEEEEDANQLh5uqJJIH52+3Q47mBIrmvG84JDvw4Fdya8MJYaWwO7O1j5j8tNU3uPvIxc9N1n4sWL1cD04mMGDZIUlNTXZc+EoQAAgj4WYDAj59LN055W76iTJqaW2SweoMjy6dvcLg1+EPgJ05fch6DAAIIIIAAAggggAACCCSxQE+DP34O+Jhfg1AmTvT68Wrgp1GNELNCjRCTmZEuQwZ3nlvZdOQTAQQQQMAZAQI/zrgm1V3NMVuL+xZJUWG+b/PuxuAPgR/fft3IGAIIIIAAAggggAACCCDgOgE9/Fv1l59K7Zefy7drv5Nhy+qMNC4dmitb9dvSWB90/FgpUj19kmEJnudH5znWPX+8OtRbVfV6qais8uWc0Mnw3SaPCCDgfQECP94vw4TnoLa2XsrXVEhOdrYMLO2X8PQ4mQB78GeH7baRHbff1snHdXtvAj/dEnECAggggAACCCCAAAIIIICAAwJnPH1swF3vPfrJgO1k2IjFPEg7vfVBl1RLKhfL1L9PlsaWwOHe0lLT5cLfXy0j+23a5fWJOriqbK3UNzRISf9iycvLSVQyeC4CCCCQtAIEfpK26GOX8VY1z88SNc+PXjYaPlhSUvSMP/5ddPBnUGlJwoM+WpjAj3+/Z+QMAQQQQAABBBBAAAEEEHCzAIGfjtIJNeRbT8qtu8CPvtfiykXy6tcvyPervlJb7bJ56dZy8G8OU0GfTXryqLid297eLouWrDCeN1zN75PG/D5xs+dBCCCAgClA4MeU4DMqgVVlq9WbHE28yRGVYs8vJvDTczOuQAABBBBAAAEEEEAAAQQQiF6AwM8Gw2iCP5EEfjY8yRtrG0aGyVQjwwzwRqJJJQIIIOAzAQI/PivQRGWnuqZW1lask7zcHCkZUJyoZCTdcwn8JF2Rk2EEEEAAAQQQQAABBBBAwBUCBH46F4MOAOml7LE5nQ+G2ePHwE/56gqprauXfsV9pLAgL0zO2Y0AAggg4KQAgR8ndZPo3q2trbJk2Sojx8OHqm68aalJlHuyigACCCCAAAIIIIAAAggggEByCRD4Sa7yjjS3ra1qOoBlHdMBDB86ULUPpUV6KechgAACCMRQgMBPDDGT/VZl5RVSV18vxX2LpKgwP9k5yD8CCCCAAAIIIIAAAggggAACvhUg8OPboo0qY1XV66Wiskpyc3KktIQRYaLC5GIEEEAgCgECP1HgcWmgQF19g5SVr5WM9DQZOmRg4EG2EEAAAQQQQAABBBBAAAEEEEAAAQR8LbBs+SppbmlVQZ9+KviT7eu8kjkEEEDAzQIEftxcOh5M2/IVZdLU3CIl/YslLy/HgzkgyQgggAACCCCAAAIIIIAAAggggAACPRWora2X8jUVkpmRLkMGl/b0cs5HAAEEEIihAIGfGGJyK5Ga9bWyZu06ycrMkMGDSiBBAAEEEEAAAQQQQAABBBBAAAEEEEgCgRUry6WxqVn69+sjBfl5SZBjsogAAgi4V4DAj3vLxrMpW6q69baobr30+vFsEZJwBBBAAAEEEEAAAQQQQAABBBBAIGIBs7dPuhr+fxjD/0fsxokIIICAUwIEfpySTeL7mr1+6NqbxF8Cso4AAggggAACCCCAAAIIIIAAAkkjYA79T2+fpClyMooAAi4XIPDj8gLyavKWr1wtTU1NUty3SIoK872aDdKNAAIIIIAAAggggAACCCCAAAIIINCFQFX1eqmorJLMzEwZMmhAF2dyCAEEEEAgXgIEfuIlnWTPqatvkLLytZKi8j10SKmkp6cnmQDZRQABBBBAAAEEEEAAAQQQQAABBPwt0NLSIsuWl0m7ymZpST/Jzcn2d4bJHQIIIOARAQI/HikoLyZz9ZpKWV9bJ3m5OVIyoNiLWSDNCCCAAAIIIIAAAggggAACCCCAAAJhBMpXV0htXb3k5+XKgP59w5zFbgQQQACBeAsQ+Im3eBI9r7W1VZatKJO2tnbpX9xHCgrykij3ZBUBBBBAAAEEEEAAAQQQQAABBBDwr0BNTa2sqVgnqakpMnRwqaSlpfk3s+QMAQQQ8JgAgR+PFZjXkqt7/OieP3oZMqhEjfea4bUskF4EEEAAAQQQQAABBBBAAAEEEEAAAZtAU1OzLF9ZbuzRPX10jx8WBBBAAAH3CBD4cU9Z+DYla9auk5r1tcYkf4MH9peUFD3zDwsCCCCAAAIIIIAAAggggAACCCCAgNcE2tvbZcWqNdLU1CQF+XnSv18fr2WB9CKAAAK+FyDw4/sidkcGV6i3QBrV2yB5ublqvh/GfHVHqZAKBBBAAAEEEEAAAQQQQAABBBBAoGcC5asr1bw+dZKlRnUZrEZ3YUEAAQQQcJ8AgR/3lYkvU9Tc3KLeBik35vspKsiX4uIiX+aTTCGAAAIIIIAAAggggAACCCCAAAJ+FaioqJKqmvXGvD6DB5ZIRka6X7NKvhBAAAFPCxD48XTxeSvx9fUNsqp8rZHo4j6FUlRU4K0MkFoEEEAAAQQQQAABBBBAAAEEEEAgSQWqqmqkYl21kfuBJf0kJyc7SSXINgIIIOB+AQI/7i8jX6VwfW2drF5TaeSpuG+RFBXm+yp/ZAYBBBBAAAEEEEAAAQQQQAABBBDwm0BV9XqpqKwysjWgf1/Jz8v1WxbJDwIIIOArAQI/vipOb2SmZn2trFm7zkgsPX+8UWakEgEEEEAAAQQQQAABBBBAAAEEklPA3tOnf78+UpCfl5wQ5BoBBBDwkACBHw8Vlp+Sag/+MOePn0qWvCCAAAIIIIAAAggggAACCCCAgF8EzDl9dH4I+vilVMkHAggkgwCBn2QoZZfm0T7sW15urgzo30dSUlJcmlqShQACCCCAAAIIIIAAAggggAACCCSHQHt7uxqqf53U1tUZGWZ4t+Qod3KJAAL+ESDw45+y9GRO6usbpHxNhbS1tUtmZqYMUF2GMzMzPJkXEo0AAggggAACCCCAAAIIIIAAAgh4XaCpqVlWqyH6m5qaJDU1RUr6F0tOTrbXs0X6EUAAgaQSIPCTVMXtzsw2N7eot0gqpFH9x0Iv/YvVeLEFjBfrztIiVQgggAACCCCAAAIIIIAAAggg4FeBmho1L3NFx7zMWerF3AEq6JORke7X7JIvBBBAwLcCBH58W7Tey9ga9TaJnvtHL3m5OVLct1DS0/nPhfdKkhQjgAACCCCAAAIIIIAAAggggICXBFpaWqSisloN7VZvJLsgP8+Y08dLeSCtCCCAAAIbBAj8bLBgzQUCet6fterNEj30m57tp2/fIikqzHdBykgCAggggAACCCCAAAIIIIAAAggg4D+Bqur1UllZJe0qa3pot35qJJb8vFz/ZZQcIYAAAkkkQOAniQrbK1ltbW013jLRQSC9ZKouxX2KCiUvL8crWSCdCCCAAAIIIIAAAggggAACCCCAgKsFamvrZV1VtTSpIfj1ooM9evSVtLQ0V6ebxCGAAAIIdC9A4Kd7I85IkEBdfYNUrqsxJhPUSdBjyxYVFhAASlB58FgEEEAAAQQQQAABBBBAAAEEEPC+gA74VFXXWHMtZ2ZmSt8+BZKbk+39zJEDBBBAAAFDgMAPXwTXC+h5f9ZV1UhLS6uR1oz0NCkoyDfeRElLS3V9+kkgAggggAACCCCAAAIIIIAAAgggkEiB1tY20SOr1NSsl+Zf21fSVftKn6IC0fP5sCCAAAII+EuAwI+/ytPXudEBoGo17qzZBVlnNi83x/iXm5stKSl6ViAWBBBAAAEEEEAAAQQQQAABBBBAAIH29napq2uQ2rp6458poofUL1TzKRPwMUX4RAABBPwnQODHf2Xq+xzpIeBqauqkrr4+IK852dmSk5Ml2VmZkqX+sSCAAAIIIIAAAggggAACCCCAAALJJNDY2CQN6l99faPUNzQEZD03J0eNoJLLkG4BKmwggAAC/hQg8OPPck2KXLW2tqo3VhrU2yt16j8zTQF51n1/MtWcQHqc2gz1JoseHk5PTqiHhktNTTV6B9FDKICMDQQQQAABBBBAAAEEEEAAAQQQcLGA7sGj/7W1tYkeuk23i+hh25qbW4z5kZuamqU9KP052ZmSm5urRkvJNtpFgg6ziQACCCDgUwECPz4t2GTLVqv6T0+D8TZLozQ2NgYMB5dsFuQXAQQQQAABBBBAAAEEEEAAAQSSU0AP45aVlSU52WpEFDUqSpp6+ZUFAQQQQCD5BAj8JF+ZJ0WO9dsvei6g5uZmaW5Sn+oNmNbWFtEBIn2s4y2ZpKAgkwgggAACCCCAAAIIIIAAAggg4AMBPbWxHr1Ej2SiAzppaR0jnGRkqs8MNeqJCvroYywIIIAAAggQ+OE7gAACCCCAAAIIIIAAAggggAACCCCAAAIIIIAAAgj4RIDAj08KkmwggAACCCCAAAIIIIAAAggggAACCCCAAAIIIIAAAgR++A4ggAACCCCAAAIIIIAAAggggAACCCCAAAIIIIAAAj4RIPDjk4IkGwgggAACCCCAAAIIIIAAAggggAACCCCAAAIIIIAAgR++AwgggAACCCCAAAIIIIAAAggggAACCCCAAAIIIICATwQI/PikIMkGAggggAACCCCAAAIIIIAAAggggAACCCCAAAIIIEDgh+8AAggggAACCCCAAAIIIIAAAggggAACCCCAAAIIIOATAQI/PilIsoEAAggggAACCCCAAAIIIIAAAggggAACCCCAAAIIEPjhO4AAAggggAACCCCAAAIIIIAAAggggAACCCCAAAII+ESAwI9PCpJsIIAAAggggAACCCCAAAIIIIAAAggggAACCCCAAAIEfvgOIIAAAggggAACCCCAAAIIIIAAAggggAACCCCAAAI+ESDw45OCJBsIIIAAAggggAACCCCAAAIIIIAAAggggAACCCCAAIEfvgMIIIAAAggggAACCCCAAAIIIIAAAggggAACCCCAgE8ECPz4pCDJBgIIIIAAAggggAACCCCAAAIIIIAAAggggAACCCBA4IfvAAIIIIAAAggggAACCCCAAAIIIIAAAggggAACCCDgEwECPz4pSLKBAAIIIIAAAggggAACCCCAAAIIIIAAAggggAACCBD44TuAAAIIIIAAAggggAACCCCAAAIIIIAAAggggAACCPhEgMCPTwqSbCCAAAIIIIAAAggggAACCCCAAAIIIIAAAggggAACBH74DiCAAAIIIIAAAggggAACCCCAAAIIIIAAAggggAACPhEg8OOTgiQbCCCAAAIIIIAAAggggAACCCCAAAIIIIAAAggggACBH74DCCCAAAIIIIAAAggggAACCCCAAAIIIIAAAggggIBPBAj8+KQgyQYCCCCAAAIIIIAAAggggAACCCCAAAIIIIAAAgggQOCH7wACCCCAAAIIIIAAAggggAACCCCAAAIIIIAAAggg4BMBAj8+KUiygQACCCCAAAIIIIAAAggggAACCCCAAAIIIIAAAggQ+OE7gAACCCCAAAIIIIAAAggggAACCCCAAAIIIIAAAgj4RIDAj08KkmwggAACCCCAAAIIIIAAAggggAACCCCAAAIIIIAAAgR++A4ggAACCCCAAAIIIIAAAggggAACCCCAAAIIIIAAAj4RIPDjk4IkGwgggAACCCCAAAIIIIAAAggggAACCCCAAAIIIIAAgR++AwgggAACCCCAAAIIIIAAAggggAACCCCAAAIIIICATwQI/PikIMkGAggggAACCCCAAAIIIIAAAggggAACCCCAAAIIIEDgh+8AAggggAACCCCAAAIIIIAAAggggAACCCCAAAIIIOATAQI/PilIsoEAAggggAACCCCAAAIIIIAAAggggAACCCCAAAIIEPjhO4AAAggggAACCCCAAAIIIIAAAggggAACCCCAAAII+ESAwI9PCpJsIIAAAggggAACCCCAAAIIIIAAAggggAACCCCAAAIEfvgOIIAAAggggAACCCCAAAIIIIAAAggggAACCCCAAAI+ESDw45OCJBsIIIAAAggggAACCCCAAAIIIIAAAggggAACCCCAAIEfvgMIIIAAAggggAACCCCAAAIIIIAAAggggAACCCCAgE8ECPz4pCDJBgIIIIAAAggggAACCCCAAAIIIIAAAggggAACCCBA4IfvAAIIIIAAAggggAACCCCAAAIIIIAAAggggAACCCDgEwECPz4pSLKBAAIIIIAAAggggAACCCCAAAIIIIAAAggggAACCBD44TuAAAIIIIAAAggggAACCCCAAAIIIIAAAggggAACCPhEgMCPTwqSbCCAAAIIIIAAAggggAACCCCAAAIIIIAAAggggAACBH74DiCAAAIIIIAAAggggAACCCCAAAIIIIAAAggggAACPhEg8OOTgiQbCCCAAAIIIIAAAggggAACCCCAAAIIIIAAAggggACBH74DCCCAAAIIIIAAAggggAACCCCAAAIIIIAAAggggIBPBAj8+KQgyQYCCCCAAAIIIIAAAggggAACCCCAAAIIIIAAAgggQOCH7wACCCCAAAIIIIAAAggggAACCCCAAAIIIIAAAggg4BMBAj8+KUiygQACCCCAAAIIIIAAAggggAACCCCAAAIIIIAAAggQ+OE7gAACCCCAAAIIIIAAAggggAACCCCAAAIIIIAAAgj4RIDAj08KkmwggAACCCCAAAIIIIAAAggggAACCCCAAAIIIIAAAgR++A4ggAACCCCAAAIIIIAAAggggAACCCCAAAIIIIAAAj4RIPDjk4IkGwgggAACCCCAAAIIIIAAAggggAACCCCAAAIIIIAAgR++AwgggAACCCCAAAIIIIAAAggggAACCCCAAAIIIICATwQI/PikIMkGAggggAACCCCAAAIIIIAAAggggAACCCCAAAIIIEDgh+8AAggggAACCCCAAAIIIIAAAggggAACCCCAAAIIIOATAQI/PilIsoEAAggggAACCCCAAAIIIIAAAggggAACCCCAAAIIEPjhO4AAAggggAACCCCAAAIIIIAAAggggAACCCCAAAII+ESAwI9PCpJsIIAAAggggAACCCCAAAIIIIAAAggggAACCCCAAAIEfvgOIIAAAggktUBbe7u0tbaJ/mxX/1gQQMC7AikpKZKq/6WlGp+JzAl1SyL1eTYC/hBwU53mD1FygQACCCCAAAIIJI8AgZ/kKWtyigACCCAQJNDS0iqtbW1Be9lEAAE/CKSlpkp6elpCskLdkhB2HoqArwUSWaf5GpbMIYAAAggggAACPhUg8OPTgiVbCCCAAAJdCzS3tEhbGz18ulbiKALeFkhNTZGM9PS4ZoK6Ja7cPAyBpBJIRJ2WVMBkFgEEEEAAAQQQ8JEAgR8fFSZZQQABBBCITIC38SNz4iwE/CAQz7fkqVv88I0hDwi4WyCedZq7JUgdAggggAACCCCAQFcCBH660uEYAggggIDvBPS8G83NLb7LFxlCAIHwAhkZ6Y7P+UPdEt6fIwggEFuBeNRpsU0xd0MAAQQQQAABBBCItwCBn3iL8zwEEEAAgYQK8EZ+Qvl5OAIJEYjHG/LULQkpWh6KQFIKxKNOS0pYMo0AAggggAACCPhIgMCPjwqTrCCAAAIIdC/QpHr7tKtePywIIJA8AikpKZKpev04uVC3OKnLvRFAwC4QjzrN/jzWEUAAAQQQQAABBLwnQODHe2VGihFAAAEEohBobGqO4mouRQABrwpkZWY4mnTqFkd5uTkCCAQJOF2nBT2OTQQQQAABBBBAAAGPCRD48ViBkVwEEEAAgegEaJyNzo+rEfCqgNONpNQtXv1mkG4EvCngdJ3mTRVSjQACCCCAAAIIIGAKEPgxJfhEAAEEEEgKARpnk6KYySQCnQScbiSlbulEzg4EEHBQwOk6zcGkc2sEEEAAAQQQQACBOAgQ+IkDMo9AAAEEEHCPAI2z7ikLUoJAPAWcbiSlbolnafIsBBBwuk5DGAEEEEAAAQQQQMDbAgR+vF1+pB4BBBBAoIcCNM72EIzTEfCJgNONpNQtPvmikA0EPCLgdJ3mEQaSiQACCCCAAAIIIBBGgMBPGBh2I4AAAgj4U4DGWX+WK7lCoDsBpxtJqVu6KwGOI4BALAWcrtNimVbuhQACCCCAAAIIIBB/AQI/8TfniQgggAACCRSgcTaB+DwagQQKON1ISt2SwMLl0QgkoYDTdVoSkpJlBBBAAAEEEEDAVwIEfnxVnGQGAQQQQKA7ARpnuxPiOAL+FHC6kZS6xZ/fG3KFgFsFnK7T3Jpv0oUAAggggAACCCAQmQCBn8icOAsBBBBAwCcCNM76pCDJBgI9FHC6kZS6pYcFwukIIBCVgNN1WlSJ42IEEEAAAQQQQACBhAsQ+El4EZAABBBAAIF4CtA4G09tnoWAewScbiSlbnFPWZMSBJJBwOk6LRkMySMCCCCAAAIIIOBnAQI/fi5d8oYAAggg0EmAxtlOJOxAICkEnG4kpW5Jiq8RmUTANQJO12muySgJQQABBBBAAAEEEOiVAIGfXrFxEQIIIICAVwVonPVqyZFuBKITcLqRlLoluvLhagQQ6JmA03Vaz1LD2QgggAACCCCAAAJuEyDw47YSIT0IIIAAAo4K0DjrKC83R8C1Ak43klK3uLboSRgCvhRwuk7zJRqZQgABBBBAAAEEkkiAwE8SFTZZRQABBBAQoXGWbwECySngdCMpdUtyfq/INQKJEnC6TktUvnguAggggAACCCCAQGwECPzExpG7IIAAAgh4RIDGWY8UFMlEIMYCTjeSUrfEuMC4HQIIdCngdJ3W5cM5iAACCCCAAAIIIOB6AQI/ri8iEogAAgggEEsBGmdjqcm9EPCOgNONpNQt3vkukFIE/CDgdJ3mByPygAACCCCAAAIIJLMAgZ9kLn3yjgACCCShAI2zSVjoZBkBJeB0Iyl1C18zBBCIp4DTdVo888KzEEAAAQQQQAABBGIvQOAn9qbcEQEEEEDAxQJeaJxta2uTL774Un5euFDWrFkjq1evkb59+8jGG28sI0YMlxHDN5KCgjwXK/c+aT/++JOsWLHCuMFuu+0qWVlZvb9ZL69samqSxYuXyKLFi+Tnn3+RiooKGTZsqIwcubFsNGKEDBo0SFJTU3t5d+9e9tlnn0t1dbWkZ6TL6D328FxGnG4kdVvd8tnnqryqqo1y2nXXXSQ7O9tYX7lypfzww4/G+oABA2TUqK1cUZYff/yJ1NbW9igtaWlpsueeo3t0jRMnNzc3ywcffGjcunRgqWy5xRbWY8xycEtarYR1sWKvh0eNGiUDBvTv4mx3HPpl0SJZouptveyww46+/Rtp13a6TrM/i3UEEEAAAQQQQAAB7wkQ+PFemZFiBBBAAIEoBNzWOGvPig44PPPsczJv3mtSVVVlP9RpfcyRY+SkE46X9PT0Tse8vGP6jLvkjTfeNLIw+4H7ZOjQoXHNjm58vvGmm6S+viHscwcPHiTXXnuNDB82LOw5fjxw1tnnykIVjNTLm2+85rksOt1I6ra65byJ58sP3/9glNP9982S4cOHG+uvvf6G3HXXTGN99Og95Korr3BFWY4dd6oK+q7scVrc8F3UwfkTTjzJSPu+++4rky692MqHvRzckFYrYV2s3DXzHnnttY7f8csmXSr77LN3F2e749BDDz8izzzzrJGYadPuCAi+uSOFsU+F03Va7FPMHRFAAAEEEEAAAQTiKUDgJ57aPAsBBBBAIOECbmucNUFWrVolN9x4s/z000/mrm4/N910U6OBMd7BkW4TFsUJiQz8PDjnIXnuuecjSn1OTrZMmjRJdt1l54jO98NJBH66LkW31S32gAOBn67LLtqjBH6iFYz+egI/0RtyBwQQQAABBBBAAAF/CRD48Vd5khsEEEAAgW4E3NY4q5NbU1Mjp44/PaCXz36/30/22XtvNazbMCktLZWGhgZZtGixfPzJJ/LEE09audS9T2Y/cL9vhh5LVOBHD6136aTLLNf99/+9/OXPh8iQwUMkNy9X1q1bJz+qoNyTTz0t3337nXXeXTOmy2abbWpt+3mFwE/Xpeu2usXLgZ/zJ06Qoj5FXYOro+lp6bLTTjt2e57TJ3QV+Jmhelct/OUXyc7MkltuucnppMTk/vT4iQmj4zehx4/jxDwAAQQQQAABBBDwtACBH08XH4lHAAEEEOipgNsaZ3X6b5lym7z77rtGVnRPkksvvUR223VXYzvUj29V4OHayddZgaKrr7pS9thj91Cnem5fogI/N908Rd5//33D65hjjpaTTjwhpF1ra6tMuvwK+erLr4zjwcM6hbzIJzsJ/HRdkG6rW8IFfubP/7vcPvUOIzM6wHzJRRd2nbE4HbUP9fbE449Kv3794vTk6B/TVeAn+rvH/w4EfuJv3psnEvjpjRrXIIAAAggggAACySNA4Cd5ypqcIoAAAggoAbc1zn799Tdy0cWXWGVz8803yva//a21HW7lnX+8K7feeptxePMtNpcZ0+4Md6qxXwcsysvLpaiwyOjB0uXJIQ7qXkm1dXVSWlIiKSkpIc4Iv6t2fa1UVVernksloic472rpSeCnvb3dyFNubn7UE3mPVz2uli5bZiTt0UcekhKVz3DLwoW/yFlnn2Mc1o3TupG6qyXadDY2NsqaNWskIyPDaAzvztCeFn3t+tpa6VdcbN8dsK7TV1lZKfrcAQMGhJ03Klzgp6amVl1bL/37u3sCeKcbSd1Wt4QL/Hz3/fcyceIFxndg3LhTZMwRRwR8H4I3dN2xevVqo+dhuN99XT80NDSq70C/HtcP5vOcCPxE+7vX0tKi6pjVRr4yMzPNpHb6jGXgRz9Te+s6qCe/6z2pZztlIGiH2wI/+vtVrf6G6Po2Ozs7KLUdmwz1FpKFnQgggAACCCCAAAJJLEDgJ4kLn6wjgAACySjgtsZZe6DjgAP2lwsvOD+iYtGNsSeedIqsXbtWdtxhe7n8ssskLz8v4Fp9zt/+9pbMfeVVWbx4sXVMN55ts802csrJJxqNudaBoJXly5fLI48+Ll988YXVu0ifsuVWW8qBBxwgfzzoD2EbeZuamoznPv/8CwHXbr/9b9VzT5IlS5ZaE3FPnXqbFBYWGk+3e8x+4D4JNX/RP959T008/rr8/PNPUl/fYFyn87Tdb7eTserevQlAXHDhxbJgwQLjXt1NZq4bk6+88ioVIMmQwqJCueD8iSEdoknnP//1L/nbm2/JL4sWGWVsJOzXH9pw7CmndBpi7nNVTnerSdn1cuWVV8iLL71klL/e1vNBHXjgAcbwdXpbLz///LO88NLL8s7f3+nY8evPESNGyLGq19Pee+8VkC974Gfeq3Plkccel3+rdK5YsdK4sqioSLbbbjs56qgxssnIkQH3dMMGgZ/hRjHU1dbJYUeMMdavu+5a2WXnjnmqvv7mG5k+bYax/9prr5blK1bIq6/Ok//972Njn+6NuMMOO8oRRxwmW225pej65amnn5EPPvhQFi5caJyjf/zxjwep7+fYHgdjYxn4ieZ3Twdenn7m2U750r8Xu+++m/G7ERwE6irwo3t0/qyGicxQgaN77r7Lcnrp5bnyuqrHslQgY+Zd0+X1N96Ud975h3z99dfWOTqof8xRRxnPtXbaVnpbz9puEXI1msDPunVVcvGvLzOM3nO0nHzSiSGfYbqY+Q8+aW1Fhbw89xV5S/0Nq6qqsg7reuaww/4qh/7lzwFBoK4CP7rOnv3gHPnvf/5r3CdHDd954/XXyRRVNmVlZca+66+fLAMHDrSeY1/RwdKpt3f0kjvwDwd0Gyy1X+vkutN1mpNp594IIIAAAggggAACzgsQ+HHemCcggAACCLhIwE2BH93AOObIo6zgRaS9fUxOowdPUR/Jyur8JroOCF1+xVUBAR/zOvvnRRdeIHo+m+Bl7suvyKz77gveHbCtA04XquuLQ/Qm0UNJ6SGlwi3Dhg61etjYh3XqKvCjG6ynz5wp76nAT7hFN05fcvHFYRtKw12nG7AfeaSj546eN+mySZM6BVbCXRu8P5p06l43ehi/zz77PPi2nbYvueRi2e93+1r7//XvD+SGG240tkeNGmUFsswT9tvvd8rmImPzjTf/JtOndzTym8eDP4MDkfbAj26Q/uH7H4IvMbZ1Gdxxx1TZeKONQh5P1E6nG0ndVLdo43A9fvSx444/0QgoPvLwHCv4+5///k+uueZafVj+ohrVX1EB41CLbnifPu0OmfPQI9bwiMHn6eDwnVNvDwgcBp8TvB2LwE80v3s6PUuWLlXz8NwaEMgKTqeuu3RgdcSIjkCaPt5V4MdeDm++8Zp1uwdmPygvvPCisT1mzBHy3HPPW8eCV05UQ0/qYGzw0tt6Nvg+wdvRBH66srA/55xzJ8hPKiCmF7uL3g4ezlTvC150IO7OO6dKbk6OcShc4EcHfe67/wF5WQXa9KLrpxtvuEFGjdpK7GVwsnpp4OijjjTOCf5h9+jp3+nge8Vy2+k6LZZp5V4IIIAAAggggAAC8Rcg8BN/c56IAAIIIJBAATc1zi5ZskROO/1MS+Ppp56QPn36WNu9XWlra5PLL79SdA8QveiGrmOOOUY23WQTWafenP77/PnyyaefWbefphpxt9xiC2v7iy++lEsnXWZt77bbrrLPPvuoXjkF8uOPP6meOs9Ywaqdd95Jrr9usnWuXgkOGo0de4rx7PLV5fLss89ZPUTMiyIN/Eybfpe8+eabxmU6T0cffbRsoQIQ62vWyz///e+AgNCcB2eLDuBEuuieNWeeeXbA6brxWveG2EEFuDZTPWYiHXYpmnS+onpY3HPPLCMduoH9qDFjZNPNNjUa0JepHljPPbfBr3RgqcyZ/YCVLnvgx8yIdipU9ylbVSY33XiDkZcFC76VCy7sCADp83QZ7v/736ueB1ny/j//FdAD6Nxzz5GD//RH43b2wI/eoe+99957y3bbbmsMJ/eM6iWhA4560Wl75KE5xrpbfjjdSOqmukWb2wMO9983S4YP3xCoaGxskvb2toAeE/bAj1lmOri7i5pvTPdweVr93uvvkX3R34Ex6js6sLRUdI+h119/wzqsew11NVeZdeKvK7EI/ETzOIdr9gAAQABJREFUu6cD8aedfoZVP+nv8LGqjhkyZIisXLVSXp33mhXs1HXL/ffdaw2L2FWww14O9gCHPehgWvzhDwfKNltvLZXr1sl7771vBUb08WeeflJ0nWAu0dSz5j3CfdoDHd31gAy+R1cW9nPDBX70sG6nqqE3zV4+2vrII8dIyYAS+fSzz+Ttt+dbx3T9c/lllxq3DRf4sTvr7+uUKbfI5pttZlyzcOGGYTv1c/TfjeBF96o66uhjjL95umfpY48+LKmpqcGnJWTb6TotIZnioQgggAACCCCAAAIxEyDwEzNKboQAAggg4AUBNzXO6l4dl11+hcGmG/R0w14sllfnzZO77+4IHujGy1tvudl6q1/fX78B/cijj8nTqpeLXkaqYbnumjHNCCA0NzfL8SecZDWshXoLWg8Bd8mll1mN/FdfdaXsscfuxr3sDWm6kW369GkyfNgw45j+UVdfL9dcO1m++vIra18kgR8dcDr3vAnGNfq+9866JyBP+sDLc+fKvffeb5yjg1XXXnO1sR7pD91wfdVVV1tBreDrdtpxR9l5p51UQ/jOMmhQ6KBSNOnU5XLy2HFW4/p9984K6FWg06N7BI0dN96ynzXrbqtnTXDg5/DDD5NxKuimGyl1mek06/WJF1wo3337nZG9o9Qb7nooJvvcLfPU8FMzZ95tHNe9Gx5QQ+7pJTjwc/fMGbKJCiaayzrVWH2KSr85/N6Ds+83Gs3N44n+dLqR1E11i7a2BxyCAz+hyiI48HPwwQfLueecZZ2qh8Q66eSx1rb+PZz9wP3GvCvmTl2vPPXU08bm8ccfJ8cfd6x5qNtPe+BH9+bIyc3p8hodkDxg//2tc6L53dM3sQdSttl2G7lBBbSzsrKs++u68TY13Nf7779v7Dvz9NPl0P/7i7HeVbDDXg5dBX5uueUm+a0aKtFcGhoaVID2Yqv30cSJ58lBf/iDcTjaetZ8RrjPRAZ+7N8h7aEDiPZ5fX755Rc586yOOdZ0+p984jGj12mowI8e3k0PN6oX/X29/fbbOg1Daa/X7poxvVNPT3u9euyxx8iJJxxv3M8NP5yu09yQR9KAAAIIIIAAAggg0HsBAj+9t+NKBBBAAAEPCripcVYPhaaH6tFLqJ4zJu/Pav6Mf/3r3+amEbixNn5dGb3HHlaDlQ4mmUOFXXnF5bKnmmcheNHzc4w/7XTr7fYpKji03XbbquHBNvQG0Y2vs+6ZGfLt5vlqXpjbb59q3HZr9Yb67bdNMdbtjafjxo1VcyEcHvxoCW64iyTwc9PNU6wG10svvUR+t+8+ne6rAycTzr/Aeiv/oTmzwwZoOl38645ly5YZwaOPP/kk3CnG/tGj95DTxp/aKfgUTTrL1YTueo6epcuWqmGIRokehi/UYh8O7w41nJYeskgv9gZK/Wb6ww89KBkZGQG30L0aDvnzocY+HWzUb68Hz1di7/mgAz+33nqL9O3bNyDwc/7ECaJ7JwQv9rTp67ZVc0m5ZXG6kdRNdYs2twccehr40QHjB1VQJz09PaD47Pc888wzjHlW7CcsXrxETj/jTGNX8FCB9vNCrdsDP6GOB+87QTXAH6ca4s0lmt89fY+/Hna4FbS0D4Fn3l9/6vlrjj6mI5ilf8d03aWXaAM/+/1+P7nkoguNe9l/2IP4x6kg2gkqmKaXaOtZ+zNCrScy8DNp0uVWb9V77p6pXkzYuFMS75w23Zi/TJfBBRdMVPPc7SDBgZ8PP/zImkdO13VTptwsG6m/acGL7sl1990dc6PpYPn4U8cFnKKH3vzoo/8Y+5ItmB0AwQYCCCCAAAIIIICA5wQI/HiuyEgwAggggEA0Am5qnH3nH++qRvXbjOzsussuMnnyNSGzpicqnzLl1pDHzJ1nn32m/PmQQ4wJ1w8+pOMtdN3YpYePs/fmMM/Xn/bGQ3NIr+eef14efPAh47QJE86TPx7U8Ya5/Tq9roeTO1xNEK97d+g3qV96seOtavucE10NXaffZF+wYIFx20gCP+PV0D9LVVBGLy8+/5zkqsm5Qy1PPPmUPPbY48ahG2+83mgQDHVed/t0A+9nn38u//v4Y/nk40+sHlD263S+b50yxQq46WNOplPPX/Lt998ZE8+bPaZuu3WKbLPN1kay7IGfcD2e7D0Fxqjhk8adcrJxbfAP/Sw99Jt9eDv7m/F3q0nqN1E9xYKXZ9U8JXPmdHx/ejrUV/C9Yr1N4GfDUG+hbO09fg466CCZOOHcTqdNvu4G+fDDD439en6VrbbcMuCctRUVctxxJxj77MNwBZwUZsMe+NF1V3DQKfgyPfzXoWouInOJ5nfPHtDZVA3rOPOu6eZtO31efOkkq8fiyy+9YPRGiTbwEy6Qai+To48+yuidpxMUbT3bKVNBOxIV+NHB+8MOP8L4u9JVOejh1/S59h5Z9sCPfhnh66+/tnI1W/VaHKqC2KGW6upqOfKojgCi/t7pHkRmvad7MR59TEewTQ/9OU3NXeamxek6zU15JS0IIIAAAggggAACPRcg8NNzM65AAAEEEPCwgJsCP19+9ZVccskkQ1MPt3aPakwPtfQk8LNo8WI544yO4ZnsPXFC3fdjFdC4Ug1tppf/+79D5YzTT5Mbb7pZ/qnmedGL2QvI2Ajxwz5Hgzn/hL3x1T6sUfDlU++405irQe/vLvCjg0x/OnhDA2/wvcJtm8GwcMcj3a8bGJeqSd8/+/wLI83mhOT6et1QaPaaiWU6l69YIZ+qeZgWLVosy1XAS89BZM55YU+3vVeNPfAT6s11fd077/xDbr3tduMW56n5e/706/w99nuGW7cHfl568XkV8MvpdOrcV16VWbPuNfZfc/VVsvvuu3U6J1E7nG4kdVPdoo3tvXN62uPH3rvEXl7X33CT/FvNp6WXxx97RPr3728/bHxHjzq6o0dMNIEfe50Q8IAwG9H+7n373Xdy/vmde9yEeZy1W/eI3HjjjaPu8XPzTTfK9tv/1rqvufLd99/LxIkdPf/sgdpo61nz/uE+ExX4sQ8n2NPvjz3wE5yv7uoie28x+wsD9jnX7EPtBd8/UdtO12mJyhfPRQABBBBAAAEEEIiNAIGf2DhyFwQQQAABjwi4qXFWN+6PU/O1mEu4xnQ9EXvlukrzNOtznhqixpy/wAxy2Ht07L777nLN1Vda5wev2OfEMBvZrr/hRtWw+4FxarheHeZ97EPg6Plohg8fJn/80yHGYXsvIPN8+6d97gV7I699qDDzLe01a9YY8w7Zr49kfcyYI4w5biI5N9JzdAPzq6/Mk1n3dcx7o6+75JKLZb/f7SuxSGdNTa1Mmz7dalzvLl3hAj/2+Ufs93j4kUetuZ3sczPZzwm3bg/8hAvqEfgJpxf//dEEfsarYQwPP+yvnRJtD/yE6tFn7zlj1imdbhJmh73Hj71OCHN6wO5of/fee+99ufmWKQH3jGTjuuuulV123jnqwM8MNcfa5ptt1umR33//g0yYeL6x3wz86EB0tPVspwcF7UhU4OeTTz+VK664ykiN+TJCUNLCbnYV+NEB+gfuv1cKCwtDXm9/CWI/27B79pcbXnjuWcnLzwt5faJ2EvhJlDzPRQABBBBAAAEEvCFA4Mcb5UQqEUAAAQRiJOCmwI9uwDv+hJNk7dq1Ru4um3Sp7LPP3hHn9Dk1afWDavJqvZiBH/uQQ3pibD1heLjF3thlTuRuD7zcfvutsvVvfhPu8oAeBebb/8cdf6KVn9dfezXk/ED6hrrXie59ohd7I6/9+Wbgp7GxUU2ifphxrg4oTZwwwVjv7sfQoUNkk0026e40ef6FF+X111+XyspKI4iz+27d91KZqeaE0IE3vRx11JFyysknSbTp1JPHX3b5lQFDFOm5VjbdZFPVq2Aj2XTTTWSb32wtjz3xhLz88lz9aGP+HXMeHXuPH/P7YJxk+/HiCy/J/bNnG3vCDS9lOz1glcBPAEenDTfVLTpx0QR+Tjv1VDXklncCP9H+7unedZdf0REk10N6/fXQjnmwOhVy0I7f/GaU0evJXu/uu+++MunSi60z7eVgD5g+MPtBeUHVPXrpSeBHnx9tPavv0dUSq8DPPmoutsvUnGyhllC9ln748Uc577yJxun2AEyo64P32QM/ut7UPVanT59hzXcXXC726/Wcd8eqIQrNXpVzX35RysrL5bTTzjBO6+pa+33ivU7gJ97iPA8BBBBAAAEEEPCWAIEfb5UXqUUAAQQQiFLAbY2zjz3+hDzxxJNGrkaoiafvUm9+Z2ZmRpTLUIEf+9vg9snHQ93w9dffkBl3zTQOmUM76SDIbNUgqZdLLr5I9tvvd8Z6qB/2ydBffeVlycjIUG9rXymfqEZUvTz88BwZWFoa6tKARunuAj/6BvaGznmvzu12/o+QDw2z86mnn5FHVE8YvUTawPfW2/PlDjVcnV4OPfQvcuYZpxvr0aTTPp+HDnBNnnytmEEd4+a//rAb68CeDvDpJZLAz4cffaTue71x/gknHC/HHdsxt4Wxw/bj62++UXO5fCSlqvx22XknGThwoBD4sQGFWHVb3WIPOPR0qDevBX50cUTzu7dy5Uo5ZeypRql2FzAPUfRx7fGjn2+vA3pTz4bKg31fNIEfe++r0aP3kKuuvMJ+a2vd/vfDDIjV1NTImCOPNs7ZZttt5LYpt1jn21f0yxLPPf+iCrr1k1FbbSWjRm0l9sCPOfeZvVz19V31crT3hrzmmqtkyZKl8tBDDxuPvenGG2SHHbY31t30g8CPm0qDtCCAAAIIIIAAAu4TIPDjvjIhRQgggAACDgq4rXF2VVmZnHzyWCvHes6Vc84+K2xPGfNE/Yay7h3z1ltvG7vsPTxOV3P8LFZz/ejFbAAzNmw/dIDoXPVmtTlfjTkHgm7sn3xdR2Cgq4Y3e5BCB6zuu/ce4+6PPPqYPPXU08b6EUccLqeO25A38/H2eSv0vkgCP5ddfoX15vYVV1wme+25p3m7gM9Z996nTN6SIUOGyvHHHyu77bprwPFQG/aeT/r4/WpIoOHDhoU61dpnnxPizDPPsCaZjyadD855SJ577nnjGePGnSJjjjjCep65Evxmur1BMpLAj54r6MwzzzZup8vt3ll3S0pKinl76/PW26fKO39/x9i+Y+rtRsMqgR+LJ+SK2+qWZAv8RPO7p3+vDj7kL1a5PvrIQ1JSUmJtmyt6qEc9/JcOPAwZMkT1ELzICG7Hu8dPtPWsmZ9wn9EEfuzD/eneU9PumNrpMcuXL5dxp55m7TcDP3qHPSBk9iS1Tvx1xR54P+WUk+WoI8cEBH6mTbtDttxiC+Psl1TvyPvuu99Y10O+6SCo/gxelqh53MwePgccsL8sXrJEflBD7elzn3ry8W7/JgffLx7bBH7iocwzEEAAAQQQQAAB7woQ+PFu2ZFyBBBAAIFeCLitcVZn4W9/e0vunDbdyo0OuJx7ztlhgw86UHHPrFmyYsVK6xp74Gfuy69Yc9BsvsXmcqsa8iY7O9s6V6+8PX++TJ3a0WNFb899+SXJysqU+vp6OfmUcdaQN5dfPkn23msvfYq11K6vlQsuutgKLp2shjk7Wg13phc9XNoxxx5vnWvvkaJ3rq2okGuumWwFnPS+SAI/7/zjXTWs2W36dKMhTs8p1KdPYOPdDz/8IOdNON84R/949NGHpWTAAGs73IoOgo07dXyAZ6h86+tbWlqMBkZziCa9z/6caNJ5730PqCHcXta3lIMOOkgNaXeusW7+0OmcqnoZzZ//d3OX0Sto1112NrYjCfyYDdcLFy40rjHnJ7JuqFYWqaDhGSp4qBfd6KnnctHBIQI/BknYH26rW5It8BPN754u1GnT75I333zTKN9dd9lFrlbzo6WlpQWUt71uHTx4kDw4+wHjdyPegZ9o69mATIXYiCbwExxEC375oKGhQS66+NKAvwH2wE9wPTjhvHMCgtN6WL8zzzrbqq/N3mz2Hj/2wI9Oz/kXXmQEcXRWu5p7auIFF8p3334XIHL00UfJySedGLDPLRsEftxSEqQDAQQQQAABBBBwpwCBH3eWC6lCAAEEEHBIwG2Ns2Y27Q1t5j4dtNlh++2lX79iqaiolB9/+FG+WfCNCs40mKcYn3poovPOO1d0Q6RedEOXbrhfumyZsa33n3baeNlk5Caybt06efe996y5JfQJ1157dUDPmOCJznXD11577SkFBQXy808/y7333y9lq8qMe+sg1Q3XTVZBoyxjW/949LHH5cknn7K29VwNG280Qj27yghamPMomCdEEvjRQY8LL7pEFixYYFymAxKnn36abLXlFsZ9//Pf/8rcuXMtG/3G9oUXbAgCmc8K96mDRlddfa0V8NLnabfNN99CRowYbjQA64DIN2oINDPv+pyTVIPgMcrHXKJJp57zSM99ZC5nnXWmMcxaXl6eLFCNkfNVsO6f//yXedj4vOjCC2T//X9vrEcS+NEnfvXV13LxJZca1+gfepi/PfccLQX5+Sp/C1RQ8V7LwT7kF4EfiyzkitvqlmQL/ETzu6cLVNdPp4wda9Uhm266qYxVvUmGqd5/C3/5xRj60AwM6fPtv3vxDvzo50dTz+rru1rsf49GjhwpgwZ1/G3p6ppxY0+x/gbdMuU2effdd43T9ZCjY8YcLvo+evi0t95+2wrCmPezB370cG8nnnSyVQ6jR4+WIw4/TA03WSrLli2XBx96yArO6ADd5MnXGLcJF/jRB+09HfX2lWr4uT3VMHTBS/BLGPp4JD1Ag+8Tr20CP/GS5jkIIIAAAggggIA3BQj8eLPcSDUCCCCAQC8F3NY4a8+G/Y11+/5w63oC69PGnyqj9+jcgPXjjz/JtZOvM4YkCne93n/VVVd0ul43oOoh01555dWuLpWtt95abrh+cqfeRLpXiR6K6Jlnng15vW4IrKurtRr2nn3mKSksLDTO1cPXvfFGx1v3sx+4T4YOHWrdQw8PdO2111kBLetA0IpO1403XG/0YAo61OWmbrzVw9yZw991ebI6GKq3jL6mt+nUvYkmnn9ht8/XjZ060KUXe8+gSAM/+jr73FJ6O9SiG1yvVMPqmUPBEfgJpbRhn9vqlmQL/OiS6O3vnlmKH/3nPzJlyq1W3WTuD/4MHsYyEYGfaOrZ4PwEb9sDP8HHwm3feedUFYjf0jis//6ce96EcKcaPQk3U4G1jz/5xDjHHvjROyIpB/33b6b6e1FQkGfco6vAjz7BXufpOdQemjOnU6/Ruto6OeyIMcb99I9wQ9VZJyR4hcBPgguAxyOAAAIIIIAAAi4XIPDj8gIieQgggAACsRVwW+NscO4q1FBo773/TzXk0N+sodTs5+ieLptvvplsv91v5ZA/HyyZmZn2wwHrdWrYtgcffEhee+21gP16Q/cmOvH442WnnXbsdMzc8dlnn8s998zqFGjRjWYHHHCAnKKGeMvJyTFP7/SpG+/+/e8PjLezde8j/cxtVFBGz8dw8y1TrDl75r06V9LT043rZ959j8yb15HeOQ/Ott4gN2/e1NQkT6jeRK+88kqnxlmdruOOO07+fMjBAT2QzGsj+dTDCD319DPy9dffqH9fd7pENzZuqRo3//p/h1pzSHQ6Se3obTp1+esGzLffnt/ptjvvvJOcoXo5lZaWqrI/1Diu8/ziC88bwZkPP1LzM03umJ/pvHPPET1fVFeLzuNdM+/u9D3T9xw/frwc9IcDA+a1sAcSghtqzee8qsrublWGegnuSWaek6hPpxtJ3Va32IetenD2/cacNF3Z2+e6OvP00+XQ/9sw5415nX1uK3vA1jyue2uMOfJoY3PfffeVSZdebB7q9nPsuFOt4bv0nCp9+/bt9ppQJ/T2d8+8l56/555Z96m669/mLutzmApEn3jSCaq3yGgrIKoP6muOO75jODDdA0/3BjIXeznYf2/sgYq7775L9cgcaV5ifdoDKOGGHOtNPWs9IMyK7vXXXeA/+NIZ0+9Uf5s2t3brOXPuuHOa1TvHPKB7qE48f4IxP53ZM9TuYp5XXl4uM2bMtIJD5n79ebjqAXTcMcdIbl6utds+79GMGdNk8802s47plebmZjnrrHOsv2d//ONBMkH1lA1e7L2VdE/aP6nz3Lo4Xae5Nd+kCwEEEEAAAQQQQCAyAQI/kTlxFgIIIICATwTc1jjbFatuRF2zZo1qVKyQjIwMNeTYiE5vKHd1vXlM9+ApU41o+m14PSRbaUmpDBjQ3zzc7aeek2GJmui6urrGGHZu8OAhYXvT6F4rejEDOeFuPn786VYDXKhGv3DX2ffr+YKWLe0Yzq60tETlaUCnOTns5/d0Xb9Rv2LFClmm3PQcSbphVg9319OlN+nUZb9KDadXua7SmDxeTyQfPN9IT9MR7nw9r5OeyLy2tlaGDB5sTGqfmpoa7nTP7ne6kdRLdYtnC7GHCe/N7575CP37r38HdR2Qm5srOuhbrIJRZg8487xEfMazno02f/oFBD2nWGpKqmy66SZdvqwQ6lk6r7oOXqN6ZPZXf7d0HaX/Hjq1XHHFlfLJp58Zt3/u2WetHkVOPS+a+zpdp0WTNq5FAAEEEEAAAQQQSLwAgZ/ElwEpQAABBBCIowCNs85ivzpvnurxMctoJD337LND9ij68quv1DBpk4yEjBo1Su6YepuzieLuCCgBpxtJqVv4msVLgHrWGelVZWVy8sljjZvruekuuehCZx4Uo7s6XafFKJncBgEEEEAAAQQQQCBBAgR+EgTPYxFAAAEEEiNA46yz7p+qN6UvV29M60UPizRz5oyAYdeqq6vl3AkTpUy9Sa+Xk046UY45+ihjnR8IOCngdCMpdYuTpce97QLUs3aN6NZ1j1jdi6umplZuvPFG+fyLL4wb3jH1dhk1aqvobu7w1U7XaQ4nn9sjgAACCCCAAAIIOCxA4MdhYG6PAAIIIOAuARpnnS0PPTn2meecYwV29NO23/63xjB1C779Vn74/gcrAf369ZP7750lefkdk3NbB1hBwAEBpxtJqVscKDRuGVKAejYkS692nnTKWGmob5Cqqirr+h132F4FgW6wtt264nSd5tZ8ky4EEEAAAQQQQACByAQI/ETmxFkIIIAAAj4RoHHW+YL85ZdfZNJlVwQ0pAU/Vc9XdPVVV3Q74XzwdWwj0FsBpxtJqVt6WzJc1xsB6tneqHW+5pxzJ8hPP/1kHdBzOd01fZoUFhZa+9y64nSd5tZ8ky4EEEAAAQQQQACByAQI/ETmxFkIIIAAAj4RoHE2PgXZ1NQkf3/nH/LZZ5/LqrJVRhCor5oYfWDpQNlrr9Gy6y67SHp6enwSw1MQUAJON5JSt/A1i7cA9Wz04i/PnSvz579j3GiXXXaWAw88QP2dKo3+xnG4g9N1WhyywCMQQAABBBBAAAEEHBQg8OMgLrdGAAEEEHCfAI2z7isTUoRAPAScbiSlbolHKfIMBBAwBZyu08zn8IkAAggggAACCCDgTQECP94sN1KNAAIIINBLARpnewnHZQh4XMDpRlLqFo9/QUg+Ah4TcLpO8xgHyUUAAQQQQAABBBAIEiDwEwTCJgIIIICAvwVonPV3+ZI7BMIJON1ISt0STp79CCDghIDTdZoTaeaeCCCAAAIIIIAAAvETIPATP2uehAACCCDgAgEaZ11QCCQBgQQION1ISt2SgELlkQgksYDTdVoS05J1BBBAAAEEEEDAFwIEfnxRjGQCAQQQQCBSARpnI5XiPAT8JeB0Iyl1i7++L+QGAbcLOF2nuT3/pA8BBBBAAAEEEECgawECP137cBQBBBBAwGcCNM76rEDJDgIRCjjdSErdEmFBcBoCCMREwOk6LSaJ5CYIIIAAAggggAACCRMg8JMweh6MAAIIIJAIARpnE6HOMxFIvIDTjaTULYkvY1KAQDIJOF2nJZMleUUAAQQQQAABBPwoQODHj6VKnhBAAAEEwgrQOBuWhgMI+FrA6UZS6hZff33IHAKuE3C6TnNdhkkQAggggAACCCCAQI8ECPz0iIuTEUAAAQS8LkDjrNdLkPQj0DsBpxtJqVt6Vy5chQACvRNwuk7rXaq4CgEEEEAAAQQQQMAtAgR+3FISpAMBBBBAIC4CNM7GhZmHIOA6AacbSalbXFfkJAgBXws4Xaf5Go/MIYAAAggggAACSSBA4CcJCpksIoAAAghsEKBxdoMFawgkk4DTjaTULcn0bSKvCCRewOk6LfE5JAUIIIAAAggggAAC0QgQ+IlGj2sRQAABBDwnQOOs54qMBCMQEwGnG0mpW2JSTNwEAQQiFHC6ToswGZyGAAIIIIAAAggg4FIBAj8uLRiShQACCCDgjACNs864clcE3C7gdCMpdYvbvwGkDwF/CThdp/lLi9wggAACCCCAAALJJ0DgJ/nKnBwjgAACSS1A42xSFz+ZT2IBpxtJqVuS+MtF1hFIgIDTdVoCssQjEUAAAQQQQAABBGIoQOAnhpjcCgEEEEDA/QJNzS3S3t7u/oSSQgQQiJlASkqKZGakx+x+oW5E3RJKhX0IIOCEQDzqNCfSzT0RQAABBBBAAAEE4idA4Cd+1jwJAQQQQMAFAi0trdLa1uaClJAEBBCIl0Baaqqkp6c5+jjqFkd5uTkCCNgE4lGn2R7HKgIIIIAAAggggIAHBQj8eLDQSDICCCCAQO8F2lRvn2bV64cFAQSSRyBD9fZJVb1+nFyoW5zU5d4IIGAXiEedZn8e6wgggAACCCCAAALeEyDw470yI8UIIIAAAlEK8GZ+lIBcjoCHBOL5Zjx1i4e+GCQVAY8KxLNO8ygRyUYAAQQQQAABBBBQAgR++BoggAACCCSlQHNLi7S1MddPUhY+mU4agdTUFMlId3Zun2BM6pZgEbYRQCBWAomo02KVdu6DAAIIIIAAAgggEF8BAj/x9eZpCCCAAAIuEuDtfBcVBklBIMYCiXwrnrolxoXJ7RBAQBJZp8GPAAIIIIAAAggg4D0BAj/eKzNSjAACCCAQQwE9L0dba5voz3b1jwUBBLwrkKLm8dFz+aSmpTo+p093StQt3QlxHAEEuhNwU53WXVo5jgACCCCAAAIIIOAuAQI/7ioPUoMAAggggAACCCCAAAIIIIAAAggggAACCCCAAAII9FqAwE+v6bgQAQQQQAABBBBAAAEEEEAAAQQQQAABBBBAAAEEEHCXAIEfd5UHqUEAAQQQQAABBBBAAAEEEEAAAQQQQAABBBBAAAEEei1A4KfXdFyIAAIIIIAAAggggAACCCCAAAIIIIAAAggggAACCLhLgMCPu8qD1CCAAAIIIIAAAggggAACCCCAAAIIIIAAAggggAACvRYg8NNrOi5EAAEEEEAAAQQQQAABBBBAAAEEEEAAAQQQQAABBNwlQODHXeVBahBAAAEEEEAAAQQQQAABBBBAAAEEEEAAAQQQQACBXgsQ+Ok1HRcigAACCCCAAAIIIIAAAggggAACCCCAAAIIIIAAAu4SIPDjrvIgNQgggAACCCCAAAIIIIAAAggggAACCCCAAAIIIIBArwUI/PSajgsRQAABBBBAAAEEEEAAAQQQQAABBBBAAAEEEEAAAXcJEPhxV3mQGgQQQAABBBBAAAEEEEAAAQQQQAABBBBAAAEEEECg1wIEfnpNx4UIIIAAAggggAACCCCAAAIIIIAAAggggAACCCCAgLsECPy4qzxIDQIIIIAAAggggAACCCCAAAIIIIAAAggggAACCCDQawECP72m40IEEEAAAQQQQAABBBBAAAEEEEAAAQQQQAABBBBAwF0CBH7cVR6kBgEEEEAAAQQQQAABBBBAAAEEEEAAAQQQQAABBBDotQCBn17TcSECCCCAAAIIIIAAAggggAACCCCAAAIIIIAAAggg4C4BAj/uKg9SgwACCCCAAAIIIIAAAggggAACCCCAAAIIIIAAAgj0WoDAT6/puBABBBBAAAEEEEAAAQQQQAABBBBAAAEEEEAAAQQQcJcAgR93lQepQQABBBBAAAEEEEAAAQQQQAABBBBAAAEEEEAAAQR6LUDgp9d0XIgAAggggAAC/9/encDbUP9/HP9UFAlJKWQJ2UmUXfZdluQfKUWyRMhSkRZEISJrSskSIspWtuyyk53s+77vS7//fL6nOeace+69c88lg9c8Ht07Z+Y7c77znHOvHvO+n+8XAQQQQAABBBBAAAEEEEAAAQQQQAABbwkQ/HjrftAbBBBAAAEEEEAAAQQQQAABBBBAAAEEEEAAAQQQQCBsAYKfsOk4EAEEEEAAAQQQQAABBBBAAAEEEEAAAQQQQAABBBDwlgDBj7fuB71BAAEEEEAAAQQQQAABBBBAAAEEEEAAAQQQQAABBMIWIPgJm44DEUAAAQQQQAABBBBAAAEEEEAAAQQQQAABBBBAAAFvCRD8eOt+0BsEEEAAAQQQQAABBBBAAAEEEEAAAQQQQAABBBBAIGwBgp+w6TgQAQQQQAABBBBAAAEEEEAAAQQQQAABBBBAAAEEEPCWAMGPt+4HvUEAAQQQQAABBBBAAAEEEEAAAQQQQAABBBBAAAEEwhYg+AmbjgMRQAABBBBAAAEEEEAAAQQQQAABBBBAAAEEEEAAAW8JEPx4637QGwQQQAABBBBAAAEEEEAAAQQQQAABBBBAAAEEEEAgbAGCn7DpOBABBBBAAAEEEEAAAQQQQAABBBBAAAEEEEAAAQQQ8JYAwY+37ge9QQABBBBAAAEEEEAAAQQQQAABBBBAAAEEEEAAAQTCFiD4CZuOAxFAAAEEEEAAAQQQQAABBBBAAAEEEEAAAQQQQAABbwkQ/HjrftAbBBBAAAEEEEAAAQQQQAABBBBAAAEEEEAAAQQQQCBsAYKfsOk4EAEEEEAAAQQQQAABBBBAAAEEEEAAAQQQQAABBBDwlgDBj7fuB71BAAEEEEAAAQQQQAABBBBAAAEEEEAAAQQQQAABBMIWIPgJm44DEUAAAQQQQAABBBBAAAEEEEAAAQQQQAABBBBAAAFvCRD8eOt+0BsEEEAAAQQQQAABBBBAAAEEEEAAAQQQQAABBBBAIGwBgp+w6TgQAQQQQAABBBBAAAEEEEAAAQQQQAABBBBAAAEEEPCWAMGPt+4HvUEAAQQQQAABBBBAAAEEEEAAAQQQQAABBBBAAAEEwhYg+AmbjgMRQAABBBBAAAEEEEAAAQQQQAABBBBAAAEEEEAAAW8JEPx4637QGwQQQAABBBBAAAEEEEAAAQQQQAABBBBAAAEEEEAgbAGCn7DpOBABBBBAAAEEEEAAAQQQQAABBBBAAAEEEEAAAQQQ8JYAwY+37ge9QQABBBBAAAEEEEAAAQQQQAABBBBAAAEEEEAAAQTCFiD4CZuOAxFAAAEEEEAAAQQQQAABBBBAAAEEEEAAAQQQQAABbwkQ/HjrftAbBBBAAAEEEEAAAQQQQAABBBBAAAEEEEAAAQQQQCBsAYKfsOk4EAEEEEAAAQQQQAABBBBAAAEEEEAAAQQQQAABBBDwlgDBj7fuB71BAAEEEEAAAQQQQAABBBBAAAEEEEAAAQQQQAABBMIWIPgJm44DEUAAAQQQQAABBBBAAAEEEEAAAQQQQAABBBBAAAFvCRD8eOt+0BsEEEAAAQQQQAABBBBAAAEEEEAAAQQQQAABBBBAIGwBgp+w6TgQAQQQQAABBBBAAAEEEEAAAQQQQAABBBBAAAEEEPCWAMGPt+4HvUEAAQQQQAABBBBAAAEEEEAAAQQQQAABBBBAAAEEwhYg+AmbjgMRQAABBBBAAAEEEEAAAQQQQAABBBBAAAEEEEAAAW8JEPx4637QGwQQQAABBBBAAAEEEEAAAQQQQAABBBBAAAEEEEAgbAGCn7DpOBABBBBAAAEEEEAAAQQQQAABBBBAAAEEEEAAAQQQ8JYAwY+37ge9QQABBBBAAAEEEEAAAQQQQAABBBBAAAEEEEAAAQTCFiD4CZuOAxFAAAEEEEAAAQRutMDxY5dkxNBt/rep/n9pJXmKeP7XrCCAAAIIIIAAAggggAACCCCAQKAAwU+gB68QQAABBBBAAAEEPCTQo+s66d11telRsTIp5fsRReSee+7yUA/pCgIIIIAAAggggAACCCCAAALeEiD48db9oDcIIIAAAggggAAC/wqcPn1Z8ub4Vc6euizpMieWiVNLS8KEcfFBAAEPCEyZuFeOHrkopcqmcFWF98PgrZIwUVwpUz65PPDAjfk5/nHodjl48Ly82fhJ+ecfkcGD/paMTyaSilUej5XY8mXHZMSQLZIq7QPyTuussTpXqIOPHb0ok37dK3//fVI6dnla7iLbDsXENgQQQAABBBBAAIEYCBD8xACLpggggAACCCCAAAL/nUC/3puka4cVksB6WDzlj/LyRLoE/92b804IIBCpwPZtZ6XoMxPM/kl/lJOcuZJE2lZ3bNpwSkoXmmzaLN9YTR5JFv1wjV92Xy+HD12I9LwNm2SSNGkDfydUKjNdVi87IkvWVTPHViz+mzz/4hPSb1D+SM/jZseE8bul6RvzJU2GRDJvSUU3h8Sozc8/7ZR3Gi00x3TukU9erZsuRsfTGAEEEEAAAQQQQACBYAGCn2ARXiOAAAII3JYC//vf/+T48eNy+PBhiRcvnqRKlUruvvvu2/Jab7WL2r17t1y4cEEefvhhefDBB62/dPb9qfPVq1dl27ZtEidOHHnkkUesvxB/4Fa7NPobS4FFC47I/v3nJKNV7ZMte+JYnu32PNz61WZVNlhfrIUh8G7Pe+y1q7p69X9S/fk/ZMWiQ6ZrOZ95ONIu1qqdQWq/9oQ0bbhIJozZbkKYLt1zh2yfIEFc6/f9tVKXInkny84tp0K21Y0jfyklefMnlc8/XSOXLlvlPdYycfwOOWaFRTWs9z169IL88fseedyq0ilZ1lfxo+/xfvvspm1Mvtzo4Ed/jl99aa7MnbHXdGvx2mquqqhicg20RQABBBBAAAEEELizBAh+7qz7zdUigAACd5SABgcLFiyQCRMmyPr16yNce7JkySRjxoxSv3590fVbfRk1apSMHDnSXMbQoUMlcWJvPyjv06ePzJgxQy5fvuyn//zzz+XJJ5+U9u3by4YNG/zbdWXy5Mn+UChgh8dfzJ8/X7p372562bVrV8mcOXO0PdZrHTRokGnXv39/SZkyZbTH/JcN6r4yX1YuOxzWWw75saiMGbVDJk/YKY8+dr9MnV025Hk2rDspZYtM8e/r0a+A1KiV1v/aqyvFCk6RE8cumu7NnF9Bkj58n6uutm62VGZM22Pa/jyptPy18ph0/HC5eT1xWllJlfr+COc5e/aKlCs+1f9w/MWX00vPvnkjtHNuuHzpH+v34mEpVvxR5+brur5i+TGpV3tOjM75at2M0uq9bDE65nZuXKrwb3LkyAV5vlpa6fTZ05651CtX/ifvtlgqY3/cavqkFTBRLa+8/qSULJVcSuSfFFUzs2/YuBJStNi1z6Ud/Mz8s1LAsb16rJOJY7eb4Cf3s0kkU8oxAfujeqHVgxt2vBhVk5D7bnTwo2+6f+95KWFVRenQlq/WzySdu4UOyEJ2kI0IIIAAAggggAACCAQJEPwEgfASAQQQQOD2ENDKnnbt2snevb6/no3qqrTyp2XLllKiRImomnl+3/fffy9jxvgegGnwoxU0Xl3Gjh0r3333XYTujR49Wj777DNZtWpVwL6HHnpIhg8fHrDtVnkxc+ZM6dGjh+muBls5c+aMtut6H/V+6qLBT9q0ac26V75ULjdDVi0JL/j5aWJpGfbDFvPg9iFruKdV1rBPwYvO7VOh5DR/oGHvdzOklN32Zn3/4N0VMuzbTebtP/0in9SpF/2QTSeOX5Kc6X82x+hcRrMXVpDhQ7ZLu5aLzLbZS5+XdOkjVry9Vf9PmTRuh2ljf+nQNa/UfTO9/TLg+8J5h+W9VkvMPElTZpYJ2Hc9X/w5/7C8VHlGjE75eqMs1twmuWJ0zO3cOEvasSYAqPpSOvlqQD5PXOplq6qmeePF/s/cwCFFTDVeZJ1LnSaBqUarUn6GbFh9zDR7rtS1EHvnjtPmZ1x/D2TPmVTe+yCn5HjqQf/p7ODnj0XXgp8MGRNK509Wy9dfrTPBz9PPJJHMj48RPW+fgfllQJ9NMrD3Wpk2v6IJzl6uOlM+75VfyldKKRVLTZXjVih7M4IfncPn1Kkr/muLbOXHodtM/3X/uKllrH/Hox8SL3nyeHJfvHsiOyXbEUAAAQQQQAABBO5QAYKfO/TGc9kIIIDA7Sywb98+ady4cUAlSZ48eUx1T/r06eXKlSuyadMmWbRokTWM1H4/RYMGDaRq1ar+17fayq0U/Lz99tuydavvL8arVKki+fLlM/dF71PFihUNvQZyr7/+umTKlEnixo3rqlLGi/csnODHGYwNGDBA0qRJ46lL+27QFtm580yEPk3/bbfs2eHbrkMtPWD9dX3w8kaDjNKty2oz7FOo4EeHPGpYd6H8blUE6dL/+yLSpcNKc15tP31ueVfzgwS/73/1es1fJ0TnFdElV95HZMLvpaJ9a2fI81GXZ6R+oydFJ6l/v4Uv+JmzrHKE+Y30Hnzy/lJz7kbNs1sh91kTpukGDdfyF4oY/NaoPEsWzz8g2Z9OKv9V8KPDgOV59pFoDQoUTCblKqaItt2d0iBX5vFmyLJqNdNJ7/7eCH40kC1uVbRdsQIgHU4tuqVn/4KyeNFhGT30b9NUq21Wbqgm8eL7QorPOq2RAV+ulU8+f1bqNcgQ4XR28OPc8dvcCvLL2J0Rgh/9nH3SObf8PHqnjPhuk3w7oqjs33dePmyzRN5p+5QUsSqJmjVcGDL4eafJEvl5pO/fI+d7xWZ97vLKkvaJBP5TvPJ/14Zx82+8TivjrYrAPM88dJ3OxmkQQAABBBBAAAEEbhcBgp/b5U5yHQgggAACRkDn8tHQZ9euXea1Vop8/PHHZviwYCJtq2GJPmTX5f777xetOLnnnlvzL2dvpeDnpZdektOnT5v5lsaNG+e/NUeOHJE6deqY1xoG6b271Zdwgh/9bP7zj2/Oilvp89j8rcUyftQ2c8uWbXhBkj0aepgznZNGL0+ncwqel2bu7IPyUTvfEGdFi6eQDp1zyYK5h+WDf0OOUqUfl/Ydoq+aupmfGx2ma/P6E6YLoUKb4L45K6hWbn7BDA+nAZjOpaKLc94TfX3k8CWpXWOWXLx0VR579H75YWQR6+fpqtSpOVvOnb8ijzwcX0b/Usyax8wCdiw3I/hp0/5pebtl9MMbOrrJqiWg914/AzoVXfB9vJlAW7ecER0usEzhyZIl50PW0IL55cVK06VgkeTyar0Mkj59Qhn70w75sstf0qRVDunXY43prlbk6Pw1nbrnldfeSC/nzl2RgrknmgApst8VdvCjwdC6NcdlzIgtElnw49Yk1FBv9vxDbs/hpt3vVkCV1TEv2ZuvLZCpE33/X+Lm+Ji0IfiJiRZtEUAAAQQQQACBO0eA4OfOuddcKQIIIHBHCEyaNMkMjaUXq0HOsGHDJH78+FFeu867MmfOHNOmRYsWUqZM1EMgnTlzRhIkSBDj+Wa00kjns4muP8Gd1WP02OiOi0nwc+nSJfM29957b/Dbxeq1W5sXXnhBLly4IFmzZpUvvvjC/5579uwRrbzS5dVXX5VatWr594VaCfc69DgNVKIKVTR40T7q5ygmi55bg5v77vOFHuEEPzF5P22rnw/9L1686IcFium5Y9LebfATk3PqPDbxrGGMggMiN+fQoamuWnOS2BUGro6xHmpfufqP9fMWx03zkG2GfLtVPnp3idnX8oNc0qJVlpDtdKM+SC+ed6LZX+mFtNL/2wKRto1sx6WLvpDw3vuslCCK5VYNfjQo1GuM7j6esuZG0c9JggQxv3fnrcAsbtx7IoRsUXCacObMmcvWfGox+z0am34G90fP9cADcf6TcEiN/lpxQg4ePC9v158vJSukki/75JUJ4/fIUKvKRsPOiTPLybw5B6Vbx5XS4v2nZMmfh+TNxpkkZ64kkseqYtJFhzD76cftMuqHv6Vc5TQyaEjB4Msyr+3gZ9exWjJl4l5p9NrcSIMfra5r0zanjBy21QxF1+fbwnLyxGVp33qxCaAKFk4mDazjdQke6s0Oft5oklXq1I1YeaTHTJ6w21xTspT3y5hfS+mmkEvRZyaY7cHBj36G7SBXG/TusUG+6rbaVAX+PLFEyHM5N/70405p+84i0eBq6doq1r8v1/5AJU6cu02I7mzPOgIIIIAAAggggAACBD98BhBAAAEEbiuBRo0a+at9PvroI8mfP3+012eHDTqcWLVq1czwYsEHLVy40Mwxo3MGaRCjy2OPPWbOX7duXTMUWfAx+vrUqVPy7bffytKlS+XkyZOmiQYJOmeLHpctW7ZQh8nFixdl1KhRMmXKFFMZo42SJEkihQoVMsc1bdrUHKchiVbG6BJd8HPw4EEZOHCgbN68WY4fP26O0XNqH9RNq6PCWWJi06pVKzlx4oR/iD0dzu3RRx+1HohdNf9pYHLsmG8uCA0xtH+69OvXzx9qxPQ6du7cKR07djTn0c/EoEGDZOXKldaD0rtFh5Z77bXXJF26dGa/ug8ePFiWLVsmBw4cMNu0H7r/zTffNMPOmY1BXzTs+fHHH0WDx3Pnzpm9+vkoXbq0mWvpyy+/NNvczvEze/ZsE1rqQV26dDFGuj5r1izzOUyUKJH07NlTfvjhB1mwYIF/Liv1evbZZ03Vmx086XG66LxBv//+u1nXqrhnnnnGrF/PL26Dny+7r5c5s/ZL0qTxZPCwQhG6sHzZMRnYZ4OsXHFEDu31eeqD3TLlHpdGTTNFeDg/dco+GdB3gyR56D4ZPLSQfN1vs8yYuleWLjxozp0x64NS3Ko4aP1+tpBzYVy8cFWGfLfVmlfnb/+8QnpMuUqppUnzTFKrui8Ybv1+Din8XLII/Q3e4JyzJ02GRDJviW/4wuB2+rr7Z+ukT/fVZtdwa3L75/6d3H7ab/ukv2Wgy4BvC0nyFIGh3v59F6Rnt7Wyctlhf3WR9jlvgUfNdT6U9Fq11W+T9srX/TfKikWHzPn0S+78vuvQaqGYBhf+k0Sy4pzjJ5yKn9o15ogGfs1bZZNVK4/JD9acSTq0WAnr/r/2xpNSvORj5p0PHbwoA/tttMKIo7J+7TEzJ47u0Ifjer/fteaMcQ63pfu++HydzJ97QIqWSC713sxgXv8574DfUD9nNV9OLy/XeUKbR1j0szLCGoZv9I9b/fPWaCP1bNo8q5QskzzCQ/hw+ln3lflmWLJiJVNECA5//mmnDBuyRTatP+6/Zh2+L7c1pF6rd7NZPwcxC6IiXGQkG/7edFpKFpgUyd7Qm53DOTqHNNTWep/+WFgpwmdb97Vrs0KGD/bNlfVswUfl6LELsm3jSdGfp9OnLpnPw+NpH5DeAwtK9XLTpFiZlNJ3UAEZ2HeT9P1ijei8QAcOnBed46d7nwJS/nmd42eaHDl0PtLgp7VVndYskuq0CeN3S9M35pv3j+rnOfVDI7X7Ehz8mI2OLwf2X5C82XxB2C/Ty0ruPFH/+1u22FTzedNhHdt9nMNxJlYRQAABBBBAAAEEEAgtQPAT2oWtCCCAAAK3oMChQ4f8oY2GOL/++qvrq9BAJ0WKFBGqeLTqo23btrJmjW+4mlAn1IftnTp18ocHdhsNDz755BP/kF32dud3nd+mYcOGzk1m/cMPP5Tly33DXQXvTJYsmei16qIBUIUKFcx6VMGPBgY9evSItC/q9cEHH0jevHnNudx8CcdGr9cOzty8h93mp59+sv6q/QETfMT0OtavXy+tW7c2p9Jwyw6W7HPr+bJkyWLmHNJgyA7F7P3O77Vr1xb9L3jR4/R+h1rU1r5mt8GPhjR6P3Xp37+/CQp1XcPAoUOHmtAqZ86csmrVKt0cYdHr/OabbwKqxHr37i1Tp041bd1UtkU4qYsNboOfJg0WmflonA+F9fQ6tJWGQr0+/yvSd9O5PL7+rrCkfPxaJd/Q77aZv+zXB8klyz5u5g8KdQIdmuqX30pGqOaJao4Pfb/Vy46Y0/UeVEiqvZg61KkjbLOrCHSHVkE89bQvxHQ21AqAfLkmmHBLKwmW/FXZX7nhfEg+e+nzki79A/5DNehq8dZC/0N//45/V9S1/zeFreG3fHPrOCuQgttGNsxWcLuYvI5t8GM/PNf7tWG1Lwi23//jz56VNxpmEA3GmjeO3MBuP2ZKacmX/9p8R43qLZQpv+w0Qc0ZK0Cwh+Sz29vfa72eUbr2zGO/NN8PWkFC3drzZO3KowHbnS8aNssmH3xybSjCcPuZJe1Yc3+rvpROvhpwbY6f3j03SI9PQ//caz/03g8bXVxyPPWgs1vXZV0/r38uOCwjh28zP7/tOuaxArrL0rvraqleK71UrZFGMljBTOvmi2WBFex27V3AmpvqAf98U1qBVzTfZP88YGWfTy0DBheMEORqZ53DH0bVea3s0eojt4v+jois4ue/DH60v/bvy6iqnrSdBuHVyvh+d89fWUVSp7lfN7MggAACCCCAAAIIIBClAMFPlDzsRAABBBC4lQTmz59vqiO0zxkyZJCvvvoq1t3Xh+fjx/v+Klcf4NerV08yZ84shw9bE1Zb8wFt3eqbEFrDH30gbw8ddvToUdPWfuCv1RWVKlUy4YVWm4wYMcLft+CH8LrP3q/n1UoTrR5ZvXq1eQ977hc9gZvgR0MtPYe9VK5cWYoUKWKGI1OzCRMmmF1aAaNVK1pN4mYJx2bFihVm+DStYtHr0OuqX7++CUbUSoeK04ocXbS6qXjx4ma9QIECsm/fvrCuwxn8mJNZX5544glTgaUVRmqtw6Tp0HJ2VVauXLlEh6NLnDixrFu3zlRt2e6dO3eWp59+2j6VjBw50l+do4GLWms4p9dq30e78fUKfuzzaTWSzpeUJk0a2bRpk6nqsfup1WBVq1a1m8qtEPzYf1WvndYH2G0/fFpy5X7ImtPmoowcsdUf6BQqnlxG/lzMf2128GNv0BClecscktZ66Lx+3QnpZQ2pdNYaEksX/ev/l2qnNev6ZfDXW6RD26XmtVbMvPvBU5IyVQJZsfSodOmwwn+cNohJ8DN/7iFTbaDH1W2cxcxVpOvOZd6cQ1K72kyzqVX7XFafrw0JF1nws3vXOSmU61qorcNplS6bwvp5+p/MnL7fH5rpA+5FVpCk1TxaHbRp00n55IPlpmpCKyW69PCFvIWLJAv54N3Zz5iuX6/gx35frWZJlOheWThnvyzfWE20mqnIs5P8AYI+sNdKm/jx75Hdu8/KN/03mflk9HidW2b4T8/ZpxI7+LE3aIXPGw0ySeIk98oCa4iyr79aZ++S4MCtTs25MnvaXrNf+9SidXZJ8fj9Mmv6ARk8aIOpQtGd340sJqXKJjdDe4Xbz1DBz84dZ6VIbt/va/2stu+U2/rZf0A2W5Uwkyfull9GbzN9iy5IMI1i8aVta+t3mzW0m15nGuuz9Ov4XVa13GZz/YvXWlWzL88xgd2CVVUkRcr4JtDV4d86fLjCfP6cb50uc2Jp92Euc/+cwznawc+a7dVDVqR9/ula6d9zjXwzvKhs2nhKLlnzXblZdNjIpi0C55yyQ9r/OvhZveq4VCrhq8IM/qw5r8UOiHRove+HF3buYh0BBBBAAAEEEEAAgUgFCH4ipWEHAggggMCtJvDzzz+bYbq03xUrVpQmTZrE6hLsIeD0JPqAXYOOpEmT+s+poYEOIbZ48WKz7eWXX5ZXXnnFrHfo0MG/vXr16vLGG2/4j9MVDYzefvtts00DJQ0PdAg4DTc0CNElVNXG9u3bA67LTfCj1S4afuiiVT0aqDiXuXPnigYSupQoUcJfHeNsE7weGxs9lz3HT44cOUTnWLIX55BptXAAADnuSURBVHl1CDYNNewl3OsIDn60mkqDJF00bLL9dT4oXcqVKyfNmjUz6/aX/fv3m0BHQxW9L3bVjbPKTEM6HdbPOReThnXvv/++fRrjrJU60S3RVfzo8dpv7bMzqNMKoHbt2pnTZ8yYUXr16uV/Kx2C7vTp0+a19vV6z++kJ7YfUOp6VJUkoSp+dP4QndNDh3aLbAioLh3WyMDea/X05oFv2QopzLoz+NHAaPafFeVB60G+vSxdctQMB6WvdbiwIT8WMbv27jkvBXL+YtZDVQM559/RRjEJfjSIyfuUr5pH+7RsbdUIAYvTa/GaqpLcekhuL5EFPw1eXyi/T9hpmg39uYQUK/6ofYj5PnPafqlbc7ZZ1zlLPu70lH//zZjjR99c72dUy5iJpSR7jmsVKnbFjx7T7N2cZug6Xb986R+Je+/dptqnfm3f8HsfdnlG3mz0pO72L1eseZ1KPfebP2TQOWLsxRn8aCg0bPRzAUOz9e210czlou0/sCpaGjbNaA5d89cJqVj8N7OuQ4+NGlfM9MVssL7MmnlAXqsxy7zUSpZvfigUq36GCn7GjNwhrZr8ad5jlDXPjF3RpRv081a+xDR/hdTaHS9avxuidjcnCuNL1QozA4YNjOoUGkLNm73PH6Dqz1nbj3PJPXffJe+9s9gf3mlY27hpNlPNpeezgx8NahMljngd48bskKkTd8lbVsCbJWviqLoQYZ+GyWnSJvBvv1nBj3bAvs4atTNIjz7P+vtkrziHhBtmDQVZ9N+hIO39fEcAAQQQQAABBBBAIDIBgp/IZNiOAAIIIHDLCTgrUN566y1TYRN8Ebt375aPP/44eLP/tVbs6Hl00aHivv76a7OuYYyGFcGLDhtmhz1a5TFkyBDTxA42NMzRUEcf0gcvWpFkz7liBzLTp08Xez4YfYBfuHDEv+7Vh/nTpk0zp4su+NE5hmrWrGna6nBmOqxZqMWeG0mrfnSemuiW2NjouW0ft8FPbK7DGfxopY/OFxS86D3Ue6n3aezYsSHvl1Yi/fKLLyTQe6dVZc7QTMMiDY2CF2dgdT0rfpxBo/M9tbJMAyrn59G5/0auO4OMmAY/OiSW/TD/k8+flXoNMkToqoZDmVKOMdsrvZBW+n/rC/CcwY89FFjwwfaDdB26bdK00mb3lAl7pNHr88z6D2OK++eOcR7b+ZPV/iqQmAQ/eg7nsFzBIc2ZM5cla+qx5q2cYZT93qGCH+fcQXa4YLd3fq9Zbbapjgke1upmBT/OvoVaD57jxBn8bD34kvXzeHfAYatWHJPZsw7K7h1n5JMuuSRhwoi/X99ruVxGWlUoumw7VNMfujmDnylzygcETtp2s1U9UqrgZF01ocL77bOb9ZHDdsh7zX2hS/DwcaaB9UU//+esuYmy5kgi77TOKrHpp/15dQ71NvGX3dKknm9Ys9caZpaPOjwVED7t2nlOThy/KKlSJ7hh8/zotW5cf0pOWsPkhVrGjtoho4f+LRrkdO+Vz5p76aR0tSrnKlRNI3UbZAwYdk9/nn8cusOan2udCXzrN80qH3X0BZX9v9okv47b4Q+yQr2XDsc3c/oe/zxgodqE2qZVci3fzerfdTODHx228c1XfCFmr68LyQs1rg0lqUNfvvrSXFO9ppVRsxZUCAgp/RfACgIIIIAAAggggAACIQQIfkKgsAkBBBBA4NYUcA65FVwtYl/Rli1bIlRz2Pvs71OmTDGrzqodHbJLqyRCLTpU2+bNm828KxqaOKt2dKiyNm3ahDpM1q5dK++++67ZZ88d07dvX7HfX0OGUFUZOpeMzimjS3TBj/M9NPix5wMyBzu+6HvZw9bpPDLOKhJHM/9quDb2CWIa/MTmOpzBT6iKJq3c0goxXTSoa9y4sd3NgO9//fWXzJgxw2zT+1asWDFTYaaVZrpE9hnR+6n3VZfrGfw4K5fMyf/9UqdOHTly5IipTBo+fLhz1w1fj03w83X/zdK5/XLTx+bv5ZSs2a5VgDg73rb1EjOklFYOTJ1d1uxyBj/Drb+Kfy7EX8VXKDnNzM3iPK5bl7VmIng9yZb9L8m99wUGDLp90YIj8n/PT9fVGFX8aPt9e89L/hy+sLBazXTSu38+3WwWZ/WGDldlVy/Z+0MFP86hoTT4eaFGWrt5wPcRQ7f6hzpbvbW6v/rpZgQ/ufMnkwKFAquSAjprvahTN4MkTxHPv9kOfnQ4sxnzy/u3R7Vy5PAl2b79tGzfclqWLT1iVdvs9g+95ry3zuBn897/k3jW8HDO5awV3GRJ5QsX37SCiA//DSLav79Shg7aaJo6K4icx7pZd9vPUMHPsaMXJdeT4/xvo8FecatqqXjJ5FKs5GPyiFVZdjMWrbDS4HbQgI2mEkj7VfPVJ6Vp88yS+MF75fChi7JuzXHp/tlqK2h7SD7unCugGkmP10q1/IUeDhjWzf75fLV+Jsmb/xH/pb3fcrGpINp+uKbMmnFAdPjDmCxP5U4iufM85D/EDn70fV6uk96/3bkya8Z+Uwmm1XsjxpZw7gpYL/+c7/8ffp9bQbJmd1eJZA+dpydyzgfmHIZy0h/lJGeu0P8PEtABXiCAAAIIIIAAAggg8K8AwQ8fBQQQQACB20Zg1qxZ0r17d3M95cuX9w+l5rzAgwcPSrdu3ZybzLrOj2LPjWIHLw0bNrTmi9ht9tvbIhxobdChyubM8f3Frg4BpsOx2VVFkVVl6Hl0HiCdV0aX5557zgwJpsO/aQATVeWNczi06IIfrSiK6VxH6pM9u++v3E3nQnwJ1+bhhx82Z4tp8BOb63AGP+pdq9a1YZ+0M/qZqFu3boirjHyTDkGn4eJ7770na9asMQ0j+4w4g7rrGfxomJQuXboInbTvjQ5JdysFP86HnxEuKpINO4/WMn8B7wx+/lhUSTJkTBjhCDv0cAY/r/yf76/pgytjnAdrFUXhp31z6sS04kfPY7+Hrm/cU8MKF+PoqlSv9IcsXXjQzGUUahi4UMHPr+N2x2gie30f5wNj20Dnp5kys4zuviHL9ZrjJ6q5ajQs+G3SHvlx2FZZtfyIfyixUBcUKviJ7J7redMlG2VO4wx+7CG50mRIJPOW+ILiUO8VvC3cfoYKfvTczsq44PfSarZa1pBhL9d54j+pDJkxdb/1+++4jPlxqxmyTUOROvUyyfNVUkkcq0rr0sWrsv/AeenVfa1/aLgXX04vbdrlDAj6gq/Dfm0HP8E/d7kyjzehngY/Oi/QMms+rtUrj9uHRfld54JyDvOmje3gJ8oDY7gzJsGPDmFYvfIfsmrJYfP7YOrsclZ4f0nsEKlth9zS+O1MMewBzRFAAAEEEEAAAQTudAGCnzv9E8D1I4AAAreRwLZt20wFjF5S4sSJzRBrbi/vnXfesSY/32Sa2w/wdegurRDSxd5mXgR90bBJQydddKg3DRI0ENDFruQxL4K+HD9+3OzXzTrvjg73Zj+0jyr40TBK2+kSXfCjw5Z99913pq0OY6YVLdEtbdu2lejmoQnXRocf0yWmwU9srsMZ/Di9bIfgeZP0sxPdUrlyZRMghfrcBB+7ceNGadmypdl8PYOfgQMHSurU14YFst/X/gzdasGP8+GrDmvkZpk+p5wZBswZ/MxdXlnSPpEgwuF26OEMfuxtkYUAepKdO85KkdwTzPmCH0BHeJMQG5zDydnHO8MknaPEHk7MeXio4GfED9ul7TuLTDN9yP7gQ/c5Dwm53rNPfn91g329t0rwU/O1J6Xbl89EuK7Ll/+RurXn+6uanA30/j5XLLmsWHbEBGu6L1Two36rNlZzHmrWIwt+dP6pnVtOSUyqkGLTz8iCH+3ktq1nZOSwbTLZmutpjzXcXfCigVnfr/OHrGALbhub17VrzJF5M/e5OoXeyybNs8gBKwiaMG6XvNMmuzz8yLV5uEKdxA5+9OczieOzbl+zHfx8/MEq+X7AhlCniLDt2xFFpUx539xg9k7n7x79XIRaLl646g8XI2ujxx07dMEcHpPgRw/Yv++CNUfTb+Z4/fk8ffqy+bwVKp5cRowpav0xyF3mvHxBAAEEEEAAAQQQQMCtAMGPWynaIYAAAgjcEgIatGigoovbh+zaNtQD/C5dusj8+b75FDR4iCw0adWqlWzY4HvoNGHCBPP+Wg2iS9myZaV58+ZmPfiLMxDQeVl0XqJPP/1UFi5caJrqEGLx41+b7N0+funSpf6KImeQ8f3338uYMb4hirTySKtrFi1aJB07djSHNmjQQKpWrWqfJlbfw7WJE8dX7RDT4Cc21xFd8HPx4kWpVs33ADhPnjzSqVMn1zY6B5TOd6RLZEPkOecBcvuZ1Puo91OX/v37S9q0ac26vofeW11ut+Dni8/XyVfdVptriyy8MTtDfAk3+HHOA7Npbw3r5833+XS+hbN6xQ5unPujW9e/5s+ZcZx5aFysTEoZOuo56dVjg/TsvMocOnvp85Iu/QMRThMq+Jk355DUrjbTtP2ibwH5v5fTRjguqg23S/DzZff18uVnf5lLfTztA9K8VQ7Jlfsh4xj33rvN9jdfWyBTJ+4y684h3eyh3mIa/Lz+8jz54/c9ElVIqHMwHTt2SVKmjC/3xbtHYtPPqIIf5z3esf2szJt9UKb+ticgCItszirnsbFd1/l79u87Z65Vr1eH2ft1/E5/GKRWL9ZKL42bZpYUlsmF81elUulpsnn9CeP4Zb+CUq5iYAjj7JMd/Oh8QUmTXgtkNqw+ZpoFBz8fdnlGChb2/XGB8zy6PqDPBpkwZrtEFfy0bv+0NGuZOfhQ83rC+N3S9I35El3Flz1MYUyDH32TxYuOSI0KvmEl9bX6zfqzkjyW/Nq163YWBBBAAAEEEEAAAQTcCBD8uFGiDQIIIIDALSOg86zof7okTJjQVOCECk+CL8geYk2329U9w4YN81cNtWvXTgoXLhx8mFy4cEF02K/Lly9LvHjxZNy4ceKcM0YrXLQKKNTi7KtWaVSpUsU81NeH+7poGFW6dOkIh/bs2dM/10x0wY9zvqFnnnnGHwIFn1T7vWPHDkmePLmZ7ya6OX7CtbHfN6bBT2yuI7rgR/tk90fDvdGjR1vDBwXO+6FtVqxYYdwfffRRKVKkiBlmzRnqRPYZcYZDBD8qKdKkwSKZOHa7GdbIrrr4+aed8k4jX+jZo18BqVErrWnr/HL16v+seULWSZw4d0maNAn8bcINfr4Z+Ld0arfMvMXAIUWkQuXHnW9n1jt99Jd803e9WQ8n+NEDnedYs726VCk/Q7ZtPCn5Cj8mYyYUN+cO/hIq+Nmz+5wUfMoXNOqQWT375g0+zLweOWyHbLWqU1KlTiBVXkh1U+f4aWM9TH87kofpITtvbbQfnkdW8VOpzHRZbVX06LJiU/WQlSN2hY62cQ6xF27w09H6HHz77+dg/soqkjpNxOrJD9uulB++9s0DtHLzC/Lay3PD7meo4EfnwVmx/JipBunYJZdeWsDi/DlwDlMX0Og6vbCmRrP+/btihRVHZb4VPM2eudcf6JSvlFqer5ZaClkhzNV//pEzp6/I2bNWxYw1f9LhwxekReOF/sqYGtbQdJ275Y4w15J20w5+gn/ugod6syt+Qs2VZV/uR+1WyZCBG0IGP+PH7pKNG05a82yl9FfH2cfZ390GP9pn/T1V780M8uhjEf9wwz5fqO/bt52VahWm+W00nBxszf+V55lr8xGFOo5tCCCAAAIIIIAAAgiEEiD4CaXCNgQQQACBW1bgypUrUq9ePTO5vV6EDnelFS+h5kLR/TpfTq9evUTDAXuxgx9nRY5Wz2gFRnAgoKHOTz/9ZA4tXry4tGnTxqw7q4DeffddKVasmH168/3MmTNmmDcNjHTRICVp0qSm33Xq1DHbdMixQYMGmQDLbLC+6Pw/GlLZS3TBj4ZQNWvWtB4UnjaH9OjRQ7JkyWIfbr6vXr3azC+kL3SIOa00uu++qIeQio2Nvo8dtOTIkcPMkaTbdHHOX6RVUxqq6RKb63AT/GiVz59//mneK9TwfKdOnTLzMdn3S4f3y5Ytm/UQ87CZ60cP1JBPh9VTQ3vR+6z+9vxRBD8+mVDBj3P4M/0L/zmLKkqCBIEVOF/33yyd2y83JylR7nEZ8mMRs+584B1ZtZBd7eIc6u2wNSxTHmu+EF10eLkJv5cOmHT+702npWSBSWa/fgl+AO3fEc3Kpg2npHShyaZV43eyy4Av15r1qM4XKvj555//SdH8U8wQUHqCKXPKS/YcD5pz2V80GKhaeqp5qRUDGqxpNYYutarPlgWz9kdbtWAax+KLs0rqRgQ/diii17dyQ7UIocG4MbukRcMF/ivQsC1xYt+wYuEGP1On7JM3X5ljzlnr9YzStWce//l15eTJS1I032Tz0D5X3kesz1IpiU0/7WOrvpROvhqQz7yX/XOjL74fVUx0vhrnMtcKYF554Q+zqVX7XNK8ZeDvemfb2Kzv23te8uf4JeQptALrkjUU31lrqLKzp3z/voVs6NioQ5sNHlpEkltVQc7FDn7KPp9aMme99jnv3dVXGRhc8aNBScJEoYeP02H6dAlV8eN8z8jW3QY/kR0f1XYN0YYP2SYftFocstnbbXJKi1ZZxK5mC9mIjQgggAACCCCAAAIIBAkQ/ASB8BIBBBBA4NYX2LlzpzRp0sT/sF2vKGPGjKZKI2XKlHLu3DnR4EL/s+fwsa9aQxENR+ylQ4cOsnix72FMqlSpTECiw25pEKCVOfYwX1rt07dvX0mRwjdsza5du6RRo0b2aUwYVaFCBVMVpEFE586drQeFJ81+e5g3u3GfPn3kt99+My+1AqVWrVrW0EEpzXBy9lBudtvogh9tt2DBAvN+uq6hhAZHxawg6urVqybs0HDJDoZ07hpnv/WYyJZwbfR8MQ1+9Jhwr8NN8HPkyBF5/fXX/Z8Zrb5Sd/VftWqVqcSyPyt6L7755hvtkln0vtthYYYMGUTnSHrsscfMZ0uNjh3zDUukjW9m8KOhlP151YAyVAWb74rC/9r8rcUyftQ2c4JlG16QZI+GDhDtB9jBw219/ula6d9zjTle51L54qt8kuOpJHLo4EWZMXVfwIPRUb+WkoJFHjFtww1+9OCunddKvx6+99SH1m+/k0MeT32/rPnruHz+yQpzfvtLVEGN3Say75XLzTCTt9v7Iwst7P2hgh/dN3vWQalT3fdwX8/RrVc+KVMuhVyxqgzm/HFQPuu0yh8MtXj/KWn5blb7lPLGqwtk+mTf8Gede+STVGkTSP78D0cITvwHhLlyo4OfmtVmy8I5+03vGjXPLg2bZJSkD98nB635Y36fvE8+bLMkoOcL/6oij6e639e+3kKZ8svOgGozZ+PI5vjRNtUr/eGfN0grapq2yGLNPXOvaKVG21ZL/X3q3qeAvFQ7rcSmn6GCn98m7ZWGdeaa7uqQY++0ySFFiz9qrn3rljPydsOFsnblUbM/nKHGzIEuvmhQoVVrV6yAJ0GCuCZYjB//Hol/fxzrjwbuMZ+nkycuyS+jfb8LPvsyvzyQMI4JchMmjCsJzHpcObj/vDR6Y54JyzTs/XP58wHhhh38RNYlO/jp3XODjB6+xT/fkf4c24s9H5C+1u1dv8wnRYqGHg7OPibU9xsV/OjcPm1aLPEP06e/E78Z+pwkefBeadb4T//91MD6qwEFJFOWRKG6xzYEEEAAAQQQQAABBCIIEPxEIGEDAggggMDtIHDw4EEzD44GMG4Wra7RuXjy588f0Fwf2jdr1izg4X1AA+tF3LhxRcOa1KlTB+xyzscSsMPxItQcQJcuXTJBjc7lE2rR97MrT1q0aCFlypQxzULN8WMf361bN5k9e7b9MuR3DS10GDl7Hp6QjRwbY2MTTvCjbx3OdbgJfvTcGrbpfYxq0YBvwIABosO92YtWI2mQou8T3XIzg5/evXvL1Km+ShDn5ya6Psdkf2yDn3PnrsjLL86RFYsORfm2wVUksQl+Ll38R9q2Xi5jRmwJ+Z76INaesL3/90WkUpWIw8GFPDBoow6/9l5zX1WZ7nqtYWbp9NnTQa2uvYws+NEW9rBV11pHXNP5hAYPK2z9frrbv9M554y98effy8izeZPaL6/L9xsd/MyxKlte/beyxe6w8z7pNn1Qbs8F4xwCLNyKHz2nVm69ZM2xZH8edFvwUq1mOund31ehE5t+hgp+NHBp8uafMmncjoC31QDQWV0T2RB5AQddxxfrrLl+Bg/cJFmyJ5E3Gz1pzqxhWNFnJgQEbBrQLFpwUCpXTSvlK6UwQxDu3HFWun662goos0uGjAkDemUHPx98mscKN1P699nDodnBj72jWMEpZgjFX6aX9Q/Z1rPbeun1+V/S7N2c0vr9bHbTGH+/3sGPzgc1fuxu6dZ5pf/eaSXZB5/k9FcdXraCtd7WfGD23GfaaQ0c6zXIKCkfD6yOivEFcQACCCCAAAIIIIDAbS9A8HPb32IuEAEEELhzBXR4LZ2DZeLEiaZaJlhCA5Q0adJIoUKFpHr16pEGHhqyaIWHVnXYQ3bZ58qUKZPoQ3Q9T6hlw4YNZiizQ4cCH2RrgFCtWjUzfFio43SbVmfMmzdPtm3bJhoG6XvocHJacaJDk+nSvn17KViwoFl3Djs3fPhwM8yd2fHvF62Y+eqrr/zVPfY+rQJ68cUXzZBk2q+YLOHa6Ptp5VXOnDlNFYz9ns65fOrWrSs1atSwd/m/x/Q6nMPSaYhXrlw5/7mCV3SeIw1nQgWGWiFTv359M6Rb8HHnz583oZn2zblomKZDD+r8P7pocJU9e3Znk5DrOtze4MGDzb6BAwf6Q0UdVlDvsy76mdTPQvCiFVvafx2ecOjQof7dzsokHYqwZMmS/n3Xa+WdJkvk55Fbzekim3tFdzZrvNhUAwRX/Og+nR/ju2+2SL9eayM8YNfh2Nq8l1MqBoUvw76/NkzSglVVrLltfNUdej57sasvdFipKTN9Yam9T7+PGblDpltVRSuWHzbDVOV+9hGpaA0xpdU/9vBZw8aVkKLFroV+zuOjWz9z5rJkTT3W3+y3uRUkW/bE/tfBK86gKNTwdVr58+F7y/zVPfbxGgI0b51TXn8jfYRKnosXrkrThotk6sRrgXhk8ynZ5wvnu3OS+vc/yS1vNcsUo9PYoUftepnksy9yhzx20q975BNr2L9De88F7Ndh1jp9lkfSWNVMOdP/bPY550Oyq820wmTZmioBx+oL/fw98YhvnrWGzbKZB/HORvrA/qN2K/3VLPY+dX/Pms/oldfTmTmo7O3h9tOex6Z6rfTyZb+89unkwvmr0r/PJvmm/3p/YGDv1Cqgt97OJrVeTWtvumHfjx65KDq03OgR2/yVTmowd0klecQKS4ODH+ewinandLjGytXSSJnyyeWBB+Lam/3f7eAnuNLOttm0t4acs+YOspcvPl8nI77bJPWtcKRJs8xm86svzTFVM4OGFZVn8/kCznvuucs/75V9bHTfr0fwo9Vk8+cdkp8sM2d4p/etW8+8UqCwr4IxuC/Llx2Ttxss8Fc06X4dArDBW5kiDPUYfCyvEUAAAQQQQAABBO5cAYKfO/fec+UIIIDAHSVw8eJF0SogDWB0nh6tztE5dWK6HDhwQHQouQQJEogO/aaVQm6WCxcuyPbt280QcVotou/vnAvGPofOUXTixAnz0N7eFvx98uTJ0q9fP7PZbQWJ8xwauGiYpN91aDodlsxtlY/zPMHr4doEn8ft6xt1Hfr+eh80BNIh4HTunuTJk0v8+NH/hbUOmafHaSCmwwa6Ocbt9d6J7Y4cviRb/z4l98S9y/p5u98aOi6+3HXX9ZPQv6g/fuxypEPS6Ts554txVhJcv17E7kxnz16RLZtPy9kzV6yQKoGksOZJiRMnaiQNL06evGwqC3Soslt10Qfpe/eckz27zkniJHElQ4aEEcKuG3Vtziqz0RNKSd4CD1v/toR2vxH91IBK58XaveuMGWItS9ZEIcOT6339GrKOtsLd1cuO+E+tQ6i9ZoV0teo8ISdPXLaGyLxHRo3YIV07rAio+NHPqs6VNG7MDv/QZvZJylVOYwIu57xezuCnbIUUMumXPXLSmjeoU7tl5rC+gwtL0zfm26dw/V2DlnlLKrpurw1jE/zo/E9f99ssPw79OyDM1qCsfuMsJqSKZw2VF9WilYnjx+6Svr3XBYS9hYonl6bNs0mh50KHRlGdk30IIIAAAggggAACt7cAwc/tfX+5OgQQQACBW0xg0aJF0rFjRxMKtWzZUkqUKBFwBRpIaAWJBhK6jB071sxDE9CIFwgg4Epg3pxDUtsauksfwH7Zr6CUq+ibo8s+WB/YVy473T/PxobdNcw8JfZ+L3zXYdW6dvFNdv9/1jBjL1sP31luvMDgr7fIkMGb/A/hvxtZTEqVTX7j3/gmv4M9XKD+zFR4Po1UqprKzDN09913yeaNp6RUwckBPdRAZ9AQX1Wqc4fO2zXxl93y80/bzM9XyQqp5PvhhZ1NxBn8FC/5mL+CSxtpFdcrdTPIJx8EzsMVcIJIXjz+eALp/22BSPaG3hyb4EeHsCyYe6I/9NFhGGvWTi+lrc9L3HvvDv2GkWz955//WfOd7bcCoPX+OcN0+LcPOz4VyRFsRgABBBBAAAEEELhTBQh+7tQ7z3UjgAACCHhSQKuSdIgzXRImTCgdOnQQHU7uLqvMQffpEG4zZ840+zNmzCi9evUy63xBAIGYC+jE6vmyjzcHahXAwO8Ki1ZO6ENs3feNNW/Jt319czfpsFRDfiwS8ze5wUfow/Mm9XxVD01a5ZD3Psh+g9+R09sCWsFSKI/vgX5kAYfd9nb5fsqquNm86ZQ8nfuhCBVOGpS+22Kp6FxEumS0hmas+kJqSW5VoUW1aMWaVp4lffi+gGbrrbmD/t58Sgo/l8zs0+ENz1mVbamtYfyy53gwoO2NfrFs6VH59ONV1tw6CaTfoMC5AN2896yZB2T1X8elxktpTVWem2Oia7N0yVEZ99NO+ahTTqu6NE50zdmPAAIIIIAAAgggcIcJEPzcYTecy0UAAQQQ8L7Axx9/LEuXLvV3VIeE07l3dGgze9H5W3TOlkSJEtmb+I4AAmEItHp7qYwZscV/pFYyJHnovoD5NHReoJHjillDO3pvWDSCH/+t+89WKpScZs2Vdtlf7aNvfCPmSvrPLog3QgABBBBAAAEEEEAAgdtOgODntrulXBACCCCAwK0ucOnSJendu7fMmjUr5KVopY9WArmdXyjkSdiIAAJGQOfO6NxxtXw/YENIEa306dUvX4wngw95shuwUft/5MhFc+bED8b13FB0N+CSb+opz5+/IplSjvH34aFk8aR+oyzStEVm/zZWEEAAAQQQQAABBBBAAIGbLUDwc7PvAO+PAAIIIIBAJALHjh2TTZs2yb59+0yLbNmyyZNPPmkNrxP1JNCRnI7NCCAQhcCxoxdl7ZoTsnf3edMq59NJJFPmRBInzl1RHMWuO1FAhzQ7Y1X8xIt3j8SLz+/jO/EzwDUjgAACCCCAAAIIIOB1AYIfr98h+ocAAggggAACCCCAAAIIIIAAAggggAACCCCAAAIIuBQg+HEJRTMEEEAAAQQQQAABBBBAAAEEEEAAAQQQQAABBBBAwOsCBD9ev0P0DwEEEEAAAQQQQAABBBBAAAEEEEAAAQQQQAABBBBwKUDw4xKKZggggAACCCCAAAIIIIAAAggggAACCCCAAAIIIICA1wUIfrx+h+gfAggggAACCCCAAAIIIIAAAggggAACCCCAAAIIIOBSgODHJRTNEEAAAQQQQAABBBBAAAEEEEAAAQQQQAABBBBAAAGvCxD8eP0O0T8EEEAAAQQQQAABBBBAAAEEEEAAAQQQQAABBBBAwKUAwY9LKJohgAACCCCAAAIIIIAAAggggAACCCCAAAIIIIAAAl4XIPjx+h2ifwgggAACCCCAAAIIIIAAAggggAACCCCAAAIIIICASwGCH5dQNEMAAQQQQAABBBBAAAEEEEAAAQQQQAABBBBAAAEEvC5A8OP1O0T/EEAAAQQQQAABBBBAAAEEEEAAAQQQQAABBBBAAAGXAgQ/LqFohgACCCCAAAIIIIAAAggggAACCCCAAAIIIIAAAgh4XYDgx+t3iP4hgAACCCCAAAIIIIAAAggggAACCCCAAAIIIIAAAi4FCH5cQtEMAQQQQAABBBBAAAEEEEAAAQQQQAABBBBAAAEEEPC6AMGP1+8Q/UMAAQQQQAABBBBAAAEEEEAAAQQQQAABBBBAAAEEXAoQ/LiEohkCCCCAAAIIIIAAAggggAACCCCAAAIIIIAAAggg4HUBgh+v3yH6hwACCCCAAAIIIIAAAggggAACCCCAAAIIIIAAAgi4FCD4cQlFMwQQQAABBBBAAAEEEEAAAQQQQAABBBBAAAEEEEDA6wIEP16/Q/QPAQQQQAABBBBAAAEEEEAAAQQQQAABBBBAAAEEEHApQPDjEopmCCCAAAIIIIAAAggggAACCCCAAAIIIIAAAggggIDXBQh+vH6H6B8CCCCAAAIIIIAAAggggAACCCCAAAIIIIAAAggg4FKA4MclFM0QQAABBBBAAAEEEEAAAQQQQAABBBBAAAEEEEAAAa8LEPx4/Q7RPwQQQAABBBBAAAEEEEAAAQQQQAABBBBAAAEEEEDApQDBj0somiGAAAIIIIAAAggggAACCCCAAAIIIIAAAggggAACXhcg+PH6HaJ/CCCAAAIIIIAAAggggAACCCCAAAIIIIAAAggggIBLAYIfl1A0QwABBBBAAAEEEEAAAQQQQAABBBBAAAEEEEAAAQS8LkDw4/U7RP8QQAABBBBAAAEEEEAAAQQQQAABBBBAAAEEEEAAAZcCBD8uoWiGAAIIIIAAAggggAACCCCAAAIIIIAAAggggAACCHhdgODH63eI/iGAAAIIIIAAAggggAACCCCAAAIIIIAAAggggAACLgUIflxC0QwBBBBAAAEEEEAAAQQQQAABBBBAAAEEEEAAAQQQ8LoAwY/X7xD9QwABBBBAAAEEEEAAAQQQQAABBBBAAAEEEEAAAQRcChD8uISiGQIIIIAAAggggAACCCCAAAIIIIAAAggggAACCCDgdQGCH6/fIfqHAAIIIIAAAggggAACCCCAAAIIIIAAAggggAACCLgUIPhxCUUzBBBAAAEEEEAAAQQQQAABBBBAAAEEEEAAAQQQQMDrAgQ/Xr9D9A8BBBBAAAEEEEAAAQQQQAABBBBAAAEEEEAAAQQQcClA8OMSimYIIIAAAggggAACCCCAAAIIIIAAAggggAACCCCAgNcFCH68fofoHwIIIIAAAggggAACCCCAAAIIIIAAAggggAACCCDgUoDgxyUUzRBAAAEEEEAAAQQQQAABBBBAAAEEEEAAAQQQQAABrwsQ/Hj9DtE/BBBAAAEEEEAAAQQQQAABBBBAAAEEEEAAAQQQQMClAMGPSyiaIYAAAggggAACCCCAAAIIIIAAAggggAACCCCAAAJeFyD48fodon8IIIAAAggggAACCCCAAAIIIIAAAggggAACCCCAgEsBgh+XUDRDAAEEEEAAAQQQQAABBBBAAAEEEEAAAQQQQAABBLwuQPDj9TtE/xBAAAEEEEAAAQQQQAABBBBAAAEEEEAAAQQQQAABlwIEPy6haIYAAggggAACCCCAAAIIIIAAAggggAACCCCAAAIIeF2A4Mfrd4j+IYAAAggggAACCCCAAAIIIIAAAggggAACCCCAAAIuBQh+XELRDAEEEEAAAQQQQAABBBBAAAEEEEAAAQQQQAABBBDwugDBj9fvEP1DAAEEEEAAAQQQQAABBBBAAAEEEEAAAQQQQAABBFwKEPy4hKIZAggggAACCCCAAAIIIIAAAggggAACCCCAAAIIIOB1AYIfr98h+ocAAggggAACCCCAAAIIIIAAAggggAACCCCAAAIIuBQg+HEJRTMEEEAAAQQQQAABBBBAAAEEEEAAAQQQQAABBBBAwOsCBD9ev0P0DwEEEEAAAQQQQAABBBBAAAEEEEAAAQQQQAABBBBwKUDw4xKKZggggAACCCCAAAIIIIAAAggggAACCCCAAAIIIICA1wUIfrx+h+gfAggggAACCCCAAAIIIIAAAggggAACCCCAAAIIIOBSgODHJRTNEEAAAQQQQAABBBBAAAEEEEAAAQQQQAABBBBAAAGvCxD8eP0O0T8EEEAAAQQQQAABBBBAAAEEEEAAAQQQQAABBBBAwKUAwY9LKJohgAACCCCAAAIIIIAAAggggAACCCCAAAIIIIAAAl4XIPjx+h2ifwgggAACCCCAAAIIIIAAAggggAACCCCAAAIIIICASwGCH5dQNEMAAQQQQAABBBBAAAEEEEAAAQQQQAABBBBAAAEEvC5A8OP1O0T/EEAAAQQQQAABBBBAAAEEEEAAAQQQQAABBBBAAAGXAgQ/LqFohgACCCCAAAIIIIAAAggggAACCCCAAAIIIIAAAgh4XYDgx+t3iP4hgAACCCCAAAIIIIAAAggggAACCCCAAAIIIIAAAi4FCH5cQtEMAQQQQAABBBBAAAEEEEAAAQQQQAABBBBAAAEEEPC6AMGP1+8Q/UMAAQQQQAABBBBAAAEEEEAAAQQQQAABBBBAAAEEXAoQ/LiEohkCCCCAAAIIIIAAAggggAACCCCAAAIIIIAAAggg4HUBgh+v3yH6hwACCCCAAAIIIIAAAggggAACCCCAAAIIIIAAAgi4FCD4cQlFMwQQQAABBBBAAAEEEEAAAQQQQAABBBBAAAEEEEDA6wIEP16/Q/QPAQQQQAABBBBAAAEEEEAAAQQQQAABBBBAAAEEEHApQPDjEopmCCCAAAIIIIAAAggggAACCCCAAAIIIIAAAggggIDXBQh+vH6H6B8CCCCAAAIIIIAAAggggAACCCCAAAIIIIAAAggg4FKA4MclFM0QQAABBBBAAAEEEEAAAQQQQAABBBBAAAEEEEAAAa8LEPx4/Q7RPwQQQAABBBBAAAEEEEAAAQQQQAABBBBAAAEEEEDApQDBj0somiGAAAIIIIAAAggggAACCCCAAAIIIIAAAggggAACXhcg+PH6HaJ/CCCAAAIIIIAAAggggAACCCCAAAIIIIAAAggggIBLAYIfl1A0QwABBBBAAAEEEEAAAQQQQAABBBBAAAEEEEAAAQS8LkDw4/U7RP8QQAABBBBAAAEEEEAAAQQQQAABBBBAAAEEEEAAAZcCBD8uoWiGAAIIIIAAAggggAACCCCAAAIIIIAAAggggAACCHhdgODH63eI/iGAAAIIIIAAAggggAACCCCAAAIIIIAAAggggAACLgUIflxC0QwBBBBAAAEEEEAAAQQQQAABBBBAAAEEEEAAAQQQ8LoAwY/X7xD9QwABBBBAAAEEEEAAAQQQQAABBBBAAAEEEEAAAQRcChD8uISiGQIIIIAAAggggAACCCCAAAIIIIAAAggggAACCCDgdQGCH6/fIfqHAAIIIIAAAggggAACCCCAAAIIIIAAAggggAACCLgUIPhxCUUzBBBAAAEEEEAAAQQQQAABBBBAAAEEEEAAAQQQQMDrAgQ/Xr9D9A8BBBBAAAEEEEAAAQQQQAABBBBAAAEEEEAAAQQQcClA8OMSimYIIIAAAggggAACCCCAAAIIIIAAAggggAACCCCAgNcFCH68fofoHwIIIIAAAggggAACCCCAAAIIIIAAAggggAACCCDgUoDgxyUUzRBAAAEEEEAAAQQQQAABBBBAAAEEEEAAAQQQQAABrwsQ/Hj9DtE/BBBAAAEEEEAAAQQQQAABBBBAAAEEEEAAAQQQQMClAMGPSyiaIYAAAggggAACCCCAAAIIIIAAAggggAACCCCAAAJeFyD48fodon8IIIAAAggggAACCCCAAAIIIIAAAggggAACCCCAgEsBgh+XUDRDAAEEEEAAAQQQQAABBBBAAAEEEEAAAQQQQAABBLwuQPDj9TtE/xBAAAEEEEAAAQQQQAABBBBAAAEEEEAAAQQQQAABlwIEPy6haIYAAggggAACCCCAAAIIIIAAAggggAACCCCAAAIIeF2A4Mfrd4j+IYAAAggggAACCCCAAAIIIIAAAggggAACCCCAAAIuBQh+XELRDAEEEEAAAQQQQAABBBBAAAEEEEAAAQQQQAABBBDwugDBj9fvEP1DAAEEEEAAAQQQQAABBBBAAAEEEEAAAQQQQAABBFwKEPy4hKIZAggggAACCCCAAAIIIIAAAggggAACCCCAAAIIIOB1AYIfr98h+ocAAggggAACCCCAAAIIIIAAAggggAACCCCAAAIIuBQg+HEJRTMEEEAAAQQQQAABBBBAAAEEEEAAAQQQQAABBBBAwOsCBD9ev0P0DwEEEEAAAQQQQAABBBBAAAEEEEAAAQQQQAABBBBwKUDw4xKKZggggAACCCCAAAIIIIAAAggggAACCCCAAAIIIICA1wUIfrx+h+gfAggggAACCCCAAAIIIIAAAggggAACCCCAAAIIIOBSgODHJRTNEEAAAQQQQAABBBBAAAEEEEAAAQQQQAABBBBAAAGvCxD8eP0O0T8EEEAAAQQQQAABBBBAAAEEEEAAAQQQQAABBBBAwKUAwY9LKJohgAACCCCAAAIIIIAAAggggAACCCCAAAIIIIAAAl4XIPjx+h2ifwgggAACCCCAAAIIIIAAAggggAACCCCAAAIIIICASwGCH5dQNEMAAQQQQAABBBBAAAEEEEAAAQQQQAABBBBAAAEEvC5A8OP1O0T/EEAAAQQQQAABBBBAAAEEEEAAAQQQQAABBBBAAAGXAgQ/LqFohgACCCCAAAIIIIAAAggggAACCCCAAAIIIIAAAgh4XYDgx+t3iP4hgAACCCCAAAIIIIAAAggggAACCCCAAAIIIIAAAi4FCH5cQtEMAQQQQAABBBBAAAEEEEAAAQQQQAABBBBAAAEEEPC6AMGP1+8Q/UMAAQQQQAABBBBAAAEEEEAAAQQQQAABBBBAAAEEXAoQ/LiEohkCCCCAAAIIIIAAAggggAACCCCAAAIIIIAAAggg4HUBgh+v3yH6hwACCCCAAAIIIIAAAggggAACCCCAAAIIIIAAAgi4FCD4cQlFMwQQQAABBBBAAAEEEEAAAQQQQAABBBBAAAEEEEDA6wIEP16/Q/QPAQQQQAABBBBAAAEEEEAAAQQQQAABBBBAAAEEEHApQPDjEopmCCCAAAIIIIAAAggggAACCCCAAAIIIIAAAggggIDXBQh+vH6H6B8CCCCAAAIIIIAAAggggAACCCCAAAIIIIAAAggg4FKA4MclFM0QQAABBBBAAAEEEEAAAQQQQAABBBBAAAEEEEAAAa8LEPx4/Q7RPwQQQAABBBBAAAEEEEAAAQQQQAABBBBAAAEEEEDApQDBj0somiGAAAIIIIAAAggggAACCCCAAAIIIIAAAggggAACXhcg+PH6HaJ/CCCAAAIIIIAAAggggAACCCCAAAIIIIAAAggggIBLAYIfl1A0QwABBBBAAAEEEEAAAQQQQAABBBBAAAEEEEAAAQS8LkDw4/U7RP8QQAABBBBAAAEEEEAAAQQQQAABBBBAAAEEEEAAAZcCBD8uoWiGAAIIIIAAAggggAACCCCAAAIIIIAAAggggAACCHhdgODH63eI/iGAAAIIIIAAAggggAACCCCAAAIIIIAAAggggAACLgUIflxC0QwBBBBAAAEEEEAAAQQQQAABBBBAAAEEEEAAAQQQ8LoAwY/X7xD9QwABBBBAAAEEEEAAAQQQQAABBBBAAAEEEEAAAQRcChD8uISiGQIIIIAAAggggAACCCCAAAIIIIAAAggggAACCCDgdQGCH6/fIfqHAAIIIIAAAggggAACCCCAAAIIIIAAAggggAACCLgUIPhxCUUzBBBAAAEEEEAAAQQQQAABBBBAAAEEEEAAAQQQQMDrAgQ/Xr9D9A8BBBBAAAEEEEAAAQQQQAABBBBAAAEEEEAAAQQQcClA8OMSimYIIIAAAggggAACCCCAAAIIIIAAAggggAACCCCAgNcFCH68fofoHwIIIIAAAggggAACCCCAAAIIIIAAAggggAACCCDgUoDgxyUUzRBAAAEEEEAAAQQQQAABBBBAAAEEEEAAAQQQQAABrwsQ/Hj9DtE/BBBAAAEEEEAAAQQQQAABBBBAAAEEEEAAAQQQQMClAMGPSyiaIYAAAggggAACCCCAAAIIIIAAAggggAACCCCAAAJeFyD48fodon8IIIAAAggggAACCCCAAAIIIIAAAggggAACCCCAgEsBgh+XUDRDAAEEEEAAAQQQQAABBBBAAAEEEEAAAQQQQAABBLwuQPDj9TtE/xBAAAEEEEAAAQQQQAABBBBAAAEEEEAAAQQQQAABlwIEPy6haIYAAggggAACCCCAAAIIIIAAAggggAACCCCAAAIIeF2A4Mfrd4j+IYAAAggggAACCCCAAAIIIIAAAggggAACCCCAAAIuBQh+XELRDAEEEEAAAQQQQAABBBBAAAEEEEAAAQQQQAABBBDwugDBj9fvEP1DAAEEEEAAAQQQQAABBBBAAAEEEEAAAQQQQAABBFwKEPy4hKIZAggggAACCCCAAAIIIIAAAggggAACCCCAAAIIIOB1AYIfr98h+ocAAggggAACCCCAAAIIIIAAAggggAACCCCAAAIIuBQg+HEJRTMEEEAAAQQQQAABBBBAAAEEEEAAAQQQQAABBBBAwOsCBD9ev0P0DwEEEEAAAQQQQAABBBBAAAEEEEAAAQQQQAABBBBwKUDw4xKKZggggAACCCCAAAIIIIAAAggggAACCCCAAAIIIICA1wUIfrx+h+gfAggggAACCCCAAAIIIIAAAggggAACCCCAAAIIIOBSgODHJRTNEEAAAQQQQAABBBBAAAEEEEAAAQQQQAABBBBAAAGvCxD8eP0O0T8EEEAAAQQQQAABBBBAAAEEEEAAAQQQQAABBBBAwKUAwY9LKJohgAACCCCAAAIIIIAAAggggAACCCCAAAIIIIAAAl4XIPjx+h2ifwgggAACCCCAAAIIIIAAAggggAACCCCAAAIIIICASwGCH5dQNEMAAQQQQAABBBBAAAEEEEAAAQQQQAABBBBAAAEEvC5A8OP1O0T/EEAAAQQQQAABBBBAAAEEEEAAAQQQQAABBBBAAAGXAgQ/LqFohgACCCCAAAIIIIAAAggggAACCCCAAAIIIIAAAgh4XYDgx+t3iP4hgAACCCCAAAIIIIAAAggggAACCCCAAAIIIIAAAi4FCH5cQtEMAQQQQAABBBBAAAEEEEAAAQQQQAABBBBAAAEEEPC6AMGP1+8Q/UMAAQQQQAABBBBAAAEEEEAAAQQQQAABBBBAAAEEXAoQ/LiEohkCCCCAAAIIIIAAAggggAACCCCAAAIIIIAAAggg4HUBgh+v3yH6hwACCCCAAAIIIIAAAggggAACCCCAAAIIIIAAAgi4FCD4cQlFMwQQQAABBBBAAAEEEEAAAQQQQAABBBBAAAEEEEDA6wIEP16/Q/QPAQQQQAABBBBAAAEEEEAAAQQQQAABBBBAAAEEEHApQPDjEopmCCCAAAIIIIAAAggggAACCCCAAAIIIIAAAggggIDXBQh+vH6H6B8CCCCAAAIIIIAAAggggAACCCCAAAIIIIAAAggg4FKA4MclFM0QQAABBBBAAAEEEEAAAQQQQAABBBBAAAEEEEAAAa8LEPx4/Q7RPwQQQAABBBBAAAEEEEAAAQQQQAABBBBAAAEEEEDApcD/A54KAtboVtV+AAAAAElFTkSuQmCC;" vertex="1" parent="1">
          <mxGeometry x="-840" y="380" width="270" height="158.56" as="geometry" />
        </mxCell>
      </root>
    </mxGraphModel>
  </diagram>
</mxfile>
